<svg xmlns="http://www.w3.org/2000/svg" width="495" height="204.9" viewBox="0 0 495 204.9"><g transform="translate(-2.957 -294.852)"><path d="M485.156,495.718H16.481s-.4-3.87-.524-10.121c-.067-3.64-.043-8.091.219-13.054.022-.4.045-.816.069-1.229.137-2.275.321-4.652.569-7.1.023-.216.046-.435.07-.654.271-2.561.607-5.221,1.027-7.956.342-2.221.736-4.494,1.2-6.8.032-.162.065-.325.1-.488q.356-1.762.765-3.55.159-.7.326-1.406c.219-.916.448-1.838.687-2.759q.875-3.391,1.956-6.822c.073-.23.148-.466.22-.7q.492-1.525,1.028-3.06.818-2.33,1.738-4.659c.384-.973.787-1.943,1.2-2.915a98.746,98.746,0,0,1,16.225-26.246c16.1-18.455,41.465-31.971,81.264-31.576,8,.078,15.435-.13,22.374-.59H147q3.165-.207,6.193-.487l.021,0c45.971-4.227,69.005-19.991,89.947-35.365l2.249-1.654a267.06,267.06,0,0,1,22.382-15.361q3.031-1.8,6.228-3.46c13.094-6.786,28.588-11.716,50-12.778a53.271,53.271,0,0,1,6.108.039q1.137.074,2.251.2a43.522,43.522,0,0,1,21.859,8.563c16.055,12.2,24.032,36.056,19.857,65.842-2.827,20.173,3.559,31.11,14.5,38.26C418.868,427.618,484.009,418.4,485.156,495.718Z" fill="#f8fbff"/><path d="M258.569,418.525v-9.21h-2.159V393.478H244.832v15.836H234.008V383.51H222.064v16.752H219.34v-20H207.4v37.5H192.29v21.866h-5.644V429.89H173.682v5.757h-7.443V409.873h-9.195v19.078h-9.195v69.9H267.793v-80.33Z" fill="#e7f1fb"/><path d="M388.206,450.182v48.673H272.3V456.5h8.885V444.94h8.885v15.617h7.195v-3.49h12.527v5.9h5.456V449.717h14.6V427h11.542v12.117h2.632v-10.15h11.543V444.6h10.459v-9.6h11.189v9.6h2.086v5.581Z" fill="#e7f1fb"/><path d="M149.024,431.1v67.508H43.352V439.864h8.1V423.832h8.1v21.66H66.11v-4.84H77.534v8.182h4.972V430.459H95.813V398.948h10.523v16.806h2.4V401.675h10.523v21.686H128.8V410.053H139v13.308h1.9v7.74Z" fill="#e7f1fb"/><path d="M274.02,307.7V498.413h-6.227V311.159Q270.824,309.362,274.02,307.7Z" fill="#deedff"/><path d="M153.215,363.538V498.413H146.99V364.028Z" fill="#deedff"/><path d="M245.411,326.52v14.826c0,1.866-.472,3.388-1.05,3.388h-.149c-.578,0-1.05-1.522-1.05-3.388V328.174Z" fill="#f99746"/><path d="M243.7,338.752c-8.2,0-14.838,7.024-14.838,15.689h29.676C258.539,345.776,251.9,338.752,243.7,338.752Z" fill="#f99746"/><path d="M244.883,338.943a6.1,6.1,0,0,0-1.3-.142c-5.339,0-9.668,7-9.668,15.64h2.607C236.519,346.519,240.16,339.973,244.883,338.943Z" fill="#ffb278"/><path d="M332.382,295.157v42.6c0,.373-.006.74-.014,1.1-.08,3.323-.516,5.878-1.038,5.878h-.149c-.484,0-.894-2.2-1.014-5.168-.01-.245-.019-.495-.024-.75,0-.017,0-.034,0-.053-.007-.327-.01-.662-.01-1v-42.8Q331.268,295.034,332.382,295.157Z" fill="#f99746"/><path d="M330.671,338.752c-8.195,0-14.838,7.024-14.838,15.689h29.676C345.509,345.776,338.865,338.752,330.671,338.752Z" fill="#f99746"/><path d="M331.853,338.943a6.105,6.105,0,0,0-1.3-.142c-5.34,0-9.668,7-9.668,15.64h2.606C323.488,346.519,327.13,339.973,331.853,338.943Z" fill="#ffb278"/><path d="M485.156,498.648h-96.95v.028H354.241V303.72C370.3,316.1,378.273,340.326,374.1,370.567c-2.827,20.481,3.559,31.585,14.5,38.844C418.868,429.509,484.009,420.152,485.156,498.648Z" fill="#deedff"/><path d="M425.284,475.618s-3.742-4.365-.231-7.137a9.959,9.959,0,0,1,4.655-1.426s-2.962,4.968-2,5.462,2.9-5.774,2.9-5.774,5.836-.566,7.713.337c0,0-4.989,4.082-3.938,4.325s6.439-3.764,6.439-3.764,5.431.924,5.142,4.237-2.162,4.337-2.984,4.249-5.634-1.925-5.739-1.251,2.792,2.876,4.82,2.979c0,0-3.829,4.223-6.374,3s-2.762-3.15-4.348-3.875-2.941-.723-2.286.016,3.526,1.457,4.433,3.062,1.721,2.687-.912,2.291-6.912-2.323-7.1-4.529Z" fill="#82b378"/><path d="M443.293,471.968s-14.751-.569-18.009,3.65a10.675,10.675,0,0,1-2.938,4.123l-.345.941s2.556-2.7,3.471-2.858C425.472,477.824,424.041,472.6,443.293,471.968Z" fill="#82b378"/><path d="M422.346,479.741a9.261,9.261,0,0,0-3.386,6.525l.575.051s1.011-4.326,2.839-6.017S422.346,479.741,422.346,479.741Z" fill="#82b378"/><path d="M412.2,470.129s5.952-3.333,3.174-7.856c0,0-2.222-2.777-4.6-3.491,0,0,1.269,6.745,0,6.9s-.873-7.618-.873-7.618-6.269-3.015-8.729-2.777c0,0,3.888,6.586,2.619,6.428s-5.634-6.825-5.634-6.825-6.428-1.19-7.459,2.619.634,5.713,1.587,5.951,7.062.159,6.9.953-4.285,2.063-6.586,1.349c0,0,2.539,6.268,5.872,5.951s4.364-2.381,6.428-2.539,3.57.4,2.539.952-4.523.182-6.19,1.6-3.015,2.289.08,2.924,8.649.238,9.76-2.142Z" fill="#a8d29f"/><path d="M393.635,458.7s16.664,5.4,18.568,11.427a12.666,12.666,0,0,0,1.587,5.793v1.19s-1.746-4.047-2.7-4.6C411.092,472.51,414.822,467.272,393.635,458.7Z" fill="#82b378"/><path d="M413.79,475.922a10.989,10.989,0,0,1,1.1,8.652l-.661-.177s.642-5.232-.7-7.864S413.79,475.922,413.79,475.922Z" fill="#82b378"/><path d="M421.671,465.533s-7.845-4.394-4.184-10.356c0,0,2.929-3.661,6.067-4.6,0,0-1.673,8.891,0,9.1s1.151-10.042,1.151-10.042,8.263-3.975,11.506-3.661c0,0-5.126,8.682-3.452,8.473s7.427-9,7.427-9,8.472-1.569,9.832,3.452-.837,7.531-2.092,7.845-9.309.209-9.1,1.255,5.648,2.72,8.682,1.779c0,0-3.347,8.263-7.741,7.845s-5.753-3.138-8.472-3.348-4.707.523-3.348,1.256,5.963.239,8.159,2.107,3.975,3.018-.1,3.855-11.4.314-12.866-2.824Z" fill="#a8d29f"/><path d="M446.148,450.47s-21.966,7.113-24.477,15.063a16.683,16.683,0,0,1-2.092,7.636v1.568s2.3-5.334,3.557-6.066C423.136,468.671,418.219,461.767,446.148,450.47Z" fill="#82b378"/><path d="M419.579,473.169a14.487,14.487,0,0,0-1.456,11.4l.872-.234s-.846-6.9.926-10.366S419.579,473.169,419.579,473.169Z" fill="#82b378"/><path d="M421.407,498.154a15.367,15.367,0,0,0,15.367-15.368H406.04A15.367,15.367,0,0,0,421.407,498.154Z" fill="#f1a34f"/><path d="M425.188,498.036a15.374,15.374,0,0,1-17.275-15.25h3.817A15.37,15.37,0,0,0,425.188,498.036Z" fill="#ffb973"/><path d="M436.986,498.936H405.828a1.9,1.9,0,0,1,1.895-1.9h27.368a1.9,1.9,0,0,1,1.895,1.9Z" fill="#f1a34f"/><rect width="31.589" height="0.471" transform="translate(405.534 482.786)" fill="#d86713"/><path d="M356.809,450.78a134.945,134.945,0,0,1,1.6-16.77c1.148-6.549,2.181-10.316,2.193-10.356.151-.576,2.336-2.906,7.194-2.834s4.4,3.127,4.4,3.127h0a.931.931,0,0,1-.035.272,144.773,144.773,0,0,0-4.312,36.7c0,.289.035.789.014,1.122,0,0-11.257.287-11.26,0C356.21,460.237,356.4,455.251,356.809,450.78Z" fill="#d1a586"/><path d="M355.394,460.814c0,.287.157.516.344.516h.005c.187,0,.336-.234.338-.516h9.648c0,.287.156.516.344.516h0c.191,0,.342-.241.34-.531a141.919,141.919,0,0,1,.8-16.256,126.375,126.375,0,0,1,3.687-20.324.964.964,0,0,0,.035-.271s.461-3.056-4.4-3.128-7.043,2.258-7.194,2.834c-.009.03-.594,2.164-1.372,6-.258,1.271-.536,2.728-.822,4.356a135.013,135.013,0,0,0-1.6,16.771C355.145,455.251,355,459.015,355.394,460.814Z" fill="#e5bd9e"/><path d="M355.394,460.814c0,.287.157.516.344.516h.005c.187,0,.336-.234.338-.516h9.648c0,.287.156.516.344.516h0c.191,0,.342-.241.34-.531a141.919,141.919,0,0,1,.8-16.256c-1.6-7.688-7.759-13.569-9.241-14.89-.258,1.271-.536,2.728-.822,4.356a135.013,135.013,0,0,0-1.6,16.771C355.145,455.251,355,459.015,355.394,460.814Z" fill="#dfb697"/><path d="M365.117,460.716l-.027-.019c-.008-.006-.014-.01-.017-.048h-.006a.253.253,0,0,0-.076-.2c-.3-.31-1.472-.3-2.953-.281a30.729,30.729,0,0,1-5.628-.306c-1.035-.179-.337-8.046.4-15.4.125-1.25.224-2.237.269-2.818.479-6.262,3.249-17.373,3.275-17.461.123-.468,1.789-2.2,5.4-2.146a3.7,3.7,0,0,1,2.878,1,1.87,1.87,0,0,1,.445,1.392.725.725,0,0,1-.028.21c-.015.06-2.512,14.433-2.92,17.882-.673,5.69-.94,17.454-.952,18.111v.057Zm-2.155-.665c1.08,0,1.842.049,2.108.321h0c0-.271.019-.779.046-1.735.031-1.125.086-2.883.165-4.865.139-3.469.379-8.24.738-11.274.418-3.534,2.911-17.856,2.924-17.9a.658.658,0,0,0,.023-.186,1.789,1.789,0,0,0-.42-1.314,3.609,3.609,0,0,0-2.794-.956c-3.552-.047-5.176,1.614-5.294,2.066-.028.1-2.791,11.166-3.272,17.439-.044.582-.143,1.57-.268,2.821-.491,4.9-1.512,15.109-.49,15.286a30.745,30.745,0,0,0,5.608.3C362.365,460.055,362.675,460.051,362.962,460.051Z" fill="#d1a586"/><path d="M367.13,461.331H329.307s.881-3.516,22.785-2.992C367.594,458.709,367.13,461.331,367.13,461.331Z" fill="#e5bd9e"/><path d="M370.208,498.053c-4.385-21.9-3.258-35.335-3.252-35.5.011-.337-.619-.643-.958-.654s-1.856-.1-2.032.189c-.229.377-1.112,16.933,5.424,35.969Z" fill="#d1a586"/><path d="M334.894,498.053c4.385-21.9,3.257-35.335,3.252-35.5-.011-.337.619-.643.958-.654s1.857-.1,2.031.189c.23.377,1.113,16.933-5.423,35.969Z" fill="#d1a586"/><path d="M327.895,498.053c4.386-21.9,3.258-35.335,3.252-35.5-.011-.337.619-.643.958-.654s1.857-.1,2.032.189c.229.377,1.113,16.933-5.423,35.969Z" fill="#a0795f"/><path d="M363.163,498.053c-4.386-21.9-3.258-35.335-3.252-35.5.011-.337-.62-.643-.958-.654s-1.857-.1-2.032.189c-.23.377-1.113,16.933,5.423,35.969Z" fill="#a0795f"/><path d="M.77,0H38.6a.769.769,0,0,1,.769.769v.492a.769.769,0,0,1-.769.769H.77A.77.77,0,0,1,0,1.261V.77A.77.77,0,0,1,.77,0Z" transform="translate(367.882 462.453) rotate(180)" fill="#d1a586"/><path d="M213.668,450.123a138.677,138.677,0,0,1,1.6-17c1.148-6.639,2.182-10.458,2.194-10.5.151-.584,2.336-2.946,7.193-2.873s4.4,3.171,4.4,3.171h0a1,1,0,0,1-.034.275,148.7,148.7,0,0,0-4.313,37.2c0,.293.035.8.015,1.137,0,0-11.258.291-11.26,0C213.068,459.711,213.26,454.656,213.668,450.123Z" fill="#d1a586"/><path d="M212.252,460.3c0,.291.157.524.344.524h.005c.187,0,.336-.237.338-.524h9.648c0,.291.157.524.344.524h0c.191,0,.342-.245.34-.539a145.877,145.877,0,0,1,.8-16.481,129.7,129.7,0,0,1,3.687-20.6.989.989,0,0,0,.035-.275s.461-3.1-4.4-3.171-7.044,2.289-7.2,2.873c-.009.031-.594,2.194-1.372,6.082-.258,1.288-.536,2.765-.822,4.417a138.878,138.878,0,0,0-1.6,17C212,454.655,211.86,458.472,212.252,460.3Z" fill="#e5bd9e"/><path d="M212.252,460.3c0,.291.157.524.344.524h.005c.187,0,.336-.237.338-.524h9.648c0,.291.157.524.344.524h0c.191,0,.342-.245.34-.539a145.877,145.877,0,0,1,.8-16.481c-1.6-7.794-7.759-13.755-9.241-15.1-.258,1.288-.536,2.765-.822,4.417a138.878,138.878,0,0,0-1.6,17C212,454.655,211.86,458.472,212.252,460.3Z" fill="#dfb697"/><path d="M221.975,460.2l-.027-.019c-.008-.006-.014-.01-.017-.049h-.006a.265.265,0,0,0-.078-.2c-.306-.313-1.473-.3-2.951-.283a30.412,30.412,0,0,1-5.628-.311c-1.035-.181-.337-8.155.4-15.615.125-1.268.224-2.27.268-2.86.477-6.314,3.25-17.612,3.276-17.7.123-.475,1.789-2.234,5.4-2.176a3.693,3.693,0,0,1,2.868,1,1.909,1.909,0,0,1,.454,1.423.77.77,0,0,1-.027.212c-.015.061-2.512,14.631-2.92,18.13-.672,5.758-.94,17.7-.952,18.361v.058Zm-2.155-.673c1.078,0,1.838.049,2.107.323l0,0c0-.276.019-.79.046-1.759.031-1.141.086-2.923.165-4.933.139-3.516.379-8.354.738-11.429.418-3.576,2.91-18.1,2.924-18.148a.684.684,0,0,0,.023-.189,1.837,1.837,0,0,0-.43-1.345,3.6,3.6,0,0,0-2.784-.957h-.164c-3.436,0-5.013,1.644-5.13,2.1-.027.1-2.791,11.327-3.271,17.681l-.055,0,.055,0c-.045.59-.144,1.593-.269,2.862-.49,4.971-1.511,15.316-.49,15.495a30.339,30.339,0,0,0,5.608.309C219.224,459.526,219.533,459.523,219.82,459.523Z" fill="#d1a586"/><path d="M223.988,460.82H186.165s.881-3.565,22.786-3.034C224.452,458.162,223.988,460.82,223.988,460.82Z" fill="#e5bd9e"/><path d="M227.067,498.05c-4.386-22.2-3.258-35.824-3.253-36,.011-.341-.619-.652-.957-.663s-1.857-.1-2.032.192c-.23.383-1.113,17.168,5.423,36.467Z" fill="#d1a586"/><path d="M191.752,498.05c4.385-22.2,3.258-35.824,3.252-36-.011-.341.619-.652.958-.663s1.857-.1,2.032.192c.229.383,1.112,17.168-5.424,36.467Z" fill="#d1a586"/><path d="M184.753,498.05c4.386-22.2,3.258-35.824,3.253-36-.012-.341.618-.652.957-.663s1.857-.1,2.032.192c.23.383,1.113,17.168-5.423,36.467Z" fill="#a0795f"/><path d="M220.021,498.05c-4.385-22.2-3.258-35.824-3.252-36,.011-.341-.619-.652-.958-.663s-1.857-.1-2.032.192c-.229.383-1.113,17.168,5.423,36.467Z" fill="#a0795f"/><rect width="39.372" height="2.059" rx="0.775" transform="translate(224.74 461.957) rotate(180)" fill="#d1a586"/><path d="M238.354,432.107a4.527,4.527,0,0,0,5.347-1.919S240.1,429.576,238.354,432.107Z" fill="#6bb7bf"/><path d="M238.134,430.8a1.526,1.526,0,0,0-1.529-1.155A1.942,1.942,0,0,0,238.134,430.8Z" fill="#6bb7bf"/><path d="M238.793,424.262a2.044,2.044,0,0,0,2.083-1.5A2.6,2.6,0,0,0,238.793,424.262Z" fill="#6bb7bf"/><path d="M242.389,402.309a3.523,3.523,0,0,1-3.109-3.156C242.881,400.291,242.389,402.309,242.389,402.309Z" fill="#6bb7bf"/><path d="M242.6,401.739a2.764,2.764,0,0,0,3.264-1.171S243.661,400.194,242.6,401.739Z" fill="#6bb7bf"/><path d="M238.413,439.442l-.395.455a.1.1,0,0,1-.173-.066,164.312,164.312,0,0,1,3.03-31.058,99.036,99.036,0,0,1,3.032-11.762h0c-.015.043-1.385,4.467-2.879,11.81a123.1,123.1,0,0,0-2.55,30.447A.254.254,0,0,1,238.413,439.442Z" fill="#6bb7bf"/><path d="M243.881,395.256c-.487.392-2.355,2.062-.543,3.35,0,0,1.388.44,1.848-.629a6.8,6.8,0,0,0,.471-2.113.183.183,0,0,0-.169-.194,1.5,1.5,0,0,1-.392-.089c-.172-.067-.259-.326-.491-.383a1.368,1.368,0,0,0-.463-.052A.5.5,0,0,0,243.881,395.256Z" fill="#f99746"/><path d="M242.845,398.14a1.122,1.122,0,0,1,.348,1.151l0,.262a1.237,1.237,0,0,1,.825-.857A1.466,1.466,0,0,1,242.845,398.14Z" fill="#6bb7bf"/><path d="M242.389,402.309a3.523,3.523,0,0,1-3.109-3.156S241.7,400.483,242.389,402.309Z" fill="#8ad8db"/><path d="M239.451,400.6a2.762,2.762,0,0,1-3.239-1.236S238.42,399.03,239.451,400.6Z" fill="#6bb7bf"/><path d="M242.881,438.376l.385.462a.1.1,0,0,0,.175-.062,164.37,164.37,0,0,0-2.406-31.113,99.09,99.09,0,0,0-2.8-11.82h0c.014.043,1.3,4.494,2.642,11.866a123.076,123.076,0,0,1,1.939,30.491A.26.26,0,0,0,242.881,438.376Z" fill="#6bb7bf"/><path d="M238.3,394.089c.48.4,2.313,2.109.476,3.36,0,0-1.4.412-1.835-.666a6.819,6.819,0,0,1-.429-2.122.185.185,0,0,1,.173-.191,1.431,1.431,0,0,0,.394-.081c.173-.063.266-.321.5-.373a1.378,1.378,0,0,1,.464-.042A.485.485,0,0,1,238.3,394.089Z" fill="#f99746"/><path d="M239.278,396.993a1.124,1.124,0,0,0-.372,1.144v.262a1.239,1.239,0,0,0-.808-.874A1.468,1.468,0,0,0,239.278,396.993Z" fill="#6bb7bf"/><path d="M240.266,398.341a2.762,2.762,0,0,0,2.93-1.854S240.967,396.6,240.266,398.341Z" fill="#6bb7bf"/><path d="M244.4,436.05l-.286.53a.1.1,0,0,1-.184-.026,164.261,164.261,0,0,1-3.816-30.972,99.154,99.154,0,0,1,.394-12.14h0c0,.045-.378,4.662-.234,12.154a123.153,123.153,0,0,0,4.151,30.27A.256.256,0,0,1,244.4,436.05Z" fill="#6bb7bf"/><path d="M240.1,391.735c-.39.489-1.848,2.526.2,3.388,0,0,1.451.127,1.666-1.017a6.773,6.773,0,0,0,0-2.164.183.183,0,0,0-.207-.153,1.5,1.5,0,0,1-.4,0c-.182-.027-.324-.262-.563-.267a1.389,1.389,0,0,0-.463.051A.488.488,0,0,0,240.1,391.735Z" fill="#f99746"/><path d="M239.722,394.776a1.124,1.124,0,0,1,.591,1.047l.051.257a1.24,1.24,0,0,1,.619-1.017A1.466,1.466,0,0,1,239.722,394.776Z" fill="#6bb7bf"/><path d="M241.942,396.08a2.323,2.323,0,0,1,1.385-2.112A1.954,1.954,0,0,1,241.942,396.08Z" fill="#6bb7bf"/><path d="M238.688,393.5a1.634,1.634,0,0,0-1.094-1.581A1.364,1.364,0,0,0,238.688,393.5Z" fill="#ed9f4a"/><path d="M242.412,400.877a1.784,1.784,0,0,0-.529-2.181A2.094,2.094,0,0,0,242.412,400.877Z" fill="#ed9f4a"/><path d="M243.2,400.781a.664.664,0,0,1,.574-.7S243.868,400.6,243.2,400.781Z" fill="#6bb7bf"/><path d="M237.393,398.7a1.923,1.923,0,0,0-2.064-.84S235.565,398.947,237.393,398.7Z" fill="#6bb7bf"/><path d="M246.083,440.949H236a1.112,1.112,0,0,1-1.1-1.271l4.692-32.336a.614.614,0,0,1,.607-.525h1.5a.655.655,0,0,1,.648.559l4.8,32.333A1.081,1.081,0,0,1,246.083,440.949Z" fill="#f99746"/><path d="M238.237,439.971l2.49-33.147a.613.613,0,0,0-.526.518l-4.691,32.336a1.111,1.111,0,0,0,1.1,1.271h2.014A1.2,1.2,0,0,1,238.237,439.971Z" fill="#ffb278"/><path d="M337.082,437.418s-6.914,7.9-8.329,7.768c-1.446-.132-2.328-.587-3.586,0-.9.422-3.762,2.721-2.995,2.569s2.156-.331,2.522-.366c.505-.048,1.315-.059,1.865-.154.348-.061,1.6-.1,2.023-.11,1.819-.06,10.427-5.088,10.427-5.088Z" fill="#ffb27d"/><path d="M325.7,428.983a1.934,1.934,0,0,0-1.2-.022V428.4a2.945,2.945,0,0,0-.023-.366h-5.812a2.944,2.944,0,0,0-.024.366v1.141a2.926,2.926,0,0,0,5.126,1.932h0a4.6,4.6,0,0,0,1.817-.856C326.026,430.1,326.167,429.268,325.7,428.983Zm-.306,1.055c-.147.379-.807.583-1.132.662a2.907,2.907,0,0,0,.234-.964.859.859,0,0,1,.75-.393C325.459,429.381,325.584,429.558,325.4,430.038Z" fill="#c45446"/><path d="M319.125,428.4v1.141a2.938,2.938,0,0,0,2.929,2.93,2.705,2.705,0,0,0,.394-.029,2.937,2.937,0,0,1-2.535-2.9V428.4a2.945,2.945,0,0,1,.023-.366h-.787A2.95,2.95,0,0,0,319.125,428.4Z" fill="#e37970"/><rect width="2.391" height="0.358" transform="translate(320.381 432.215)" fill="#c45446"/><path d="M341.88,397.316s.313-3.967,6.018-2.937c1.508.272,2.545-2.417,5.014-1.459,5.317,2.064,5.629-.661,7.166,3.163.643,1.6,4.733,3.464,3.484,6.231s.841,4.627-.627,6.794c-.76,1.122-.451,3.127-4.036,3.2-1.786.036-4.567,3.344-6.57,3.945s-8.021-.266-7.794-3.015c.177-2.145-2.324-1.966-3.861-4.432-1.343-2.155,1.053-2.7-.228-6.182C339.507,400.069,341.953,399.446,341.88,397.316Z" fill="#1c468a"/><path d="M310.517,494.893c.123,1.327-1.725,1.649-3.864,1.756s-1.493.544-4.425,1.075-4.106-.271-4.319-.667c-.189-.351,1.175-.9,2.627-1.522.183-.078.366-.158.549-.238,1.635-.719,2.552-2.185,3.827-3.544,1.207-1.288,2.354-5.411,2.354-5.411l3.984-.85s-1.119,3.71-1.507,5.294a4.893,4.893,0,0,0,.408,2.766A5.2,5.2,0,0,1,310.517,494.893Z" fill="#ffb27d"/><path d="M306.653,496.649c-2.139.106-1.493.544-4.425,1.075s-4.106-.271-4.319-.667c-.189-.351,1.175-.9,2.627-1.522l.023.024a8.336,8.336,0,0,0,4.441.053c1.939-.526,3.814-1.685,5.151-2.06a5.2,5.2,0,0,1,.366,1.341C310.64,496.22,308.792,496.542,306.653,496.649Z" fill="#c65447"/><path d="M345.8,444.664s-22.08.992-27.064,4.137-12.977,39.785-12.977,39.785a3.243,3.243,0,0,0,1.6.515,13.369,13.369,0,0,0,3.282-.492s11.487-16.393,12.3-20.523.611-7.815,2.454-7.914,24.811,2.792,28.286-3.328S345.8,444.664,345.8,444.664Z" fill="#163560"/><path d="M319.626,495.042c.123,1.327-1.725,1.649-3.864,1.756s-1.493.545-4.425,1.076-4.106-.272-4.318-.668c-.189-.351,1.174-.9,2.626-1.522.183-.078.366-.158.549-.238,1.635-.719,2.553-2.185,3.827-3.544,1.208-1.288,2.354-5.411,2.354-5.411l3.984-.85s-1.119,3.71-1.507,5.294a4.9,4.9,0,0,0,.408,2.767A5.188,5.188,0,0,1,319.626,495.042Z" fill="#ffb27d"/><path d="M315.762,496.8c-2.139.107-1.493.545-4.425,1.076s-4.106-.272-4.318-.668c-.189-.351,1.174-.9,2.626-1.522l.023.025a8.348,8.348,0,0,0,4.441.053c1.939-.527,3.815-1.686,5.151-2.06a5.188,5.188,0,0,1,.366,1.34C319.749,496.369,317.9,496.691,315.762,496.8Z" fill="#c65447"/><path d="M354.355,445.186s-23.518,1.113-28.376,4.45S314.56,489.9,314.56,489.9a3.247,3.247,0,0,0,1.614.452,13.376,13.376,0,0,0,3.26-.619s10.841-16.828,11.489-20.986.306-7.833,2.144-8,24.9,1.825,28.135-4.427S354.355,445.186,354.355,445.186Z" fill="#1c468a"/><path d="M361.394,415.137a.322.322,0,0,0-.03-.036,3.7,3.7,0,0,0-.656-.575l-.008-.006h0a13.3,13.3,0,0,0-5.354-1.63v0h0v0s-.375-.036-.969-.063a17.8,17.8,0,0,1-1.122-5.416l-.34.091-5.722,1.535s.253,1.816.372,3.535c.026.376.045.748.054,1.1-.165.061-3.726.562-4.5,1.394s-2.322,6.375-2.712,7.357l22.03.36S362.987,417.022,361.394,415.137Z" fill="#ffb27d"/><path d="M362.208,454.541c-2.608.248-11.4-5.06-14.328-6.786-.053-.03-.1-.059-.148-.087a13.962,13.962,0,0,0-4.567-1.326c-2.079-.34-4.019-.569-4.641-1.312-.739-.885,1.436-1.865,3.183-2.882a4.843,4.843,0,0,0,1.895-1.56,5.984,5.984,0,0,0,.047-2.464v0c-.021-.215-.049-.439-.08-.671a7.366,7.366,0,0,1-.524.9,13.293,13.293,0,0,1-1.867,2.185,6.22,6.22,0,0,1-2.169,1.5,1.707,1.707,0,0,1-1.036-.094,6.651,6.651,0,0,1-2.5-2.334c-.165-.229-.321-.458-.463-.675-.479-.725-.82-1.327-.948-1.47-.39-.432,1.57-1.287,2.376-1.929s3.963-13.116,3.963-13.116c.391-.982,1.938-6.522,2.712-7.357,0,0,3.02,3.687,6.935,3.476,3.887-.209,10.545-3.959,10.647-4.018a2.425,2.425,0,0,1,.7.618c1.593,1.885,1.039,7.641,1.039,7.641s-3.047,13.429-3.047,14.784c0,2.485,2.055,8.2,3.035,12.312C363.044,452.481,363.237,454.444,362.208,454.541Z" fill="#6bb7bf"/><path d="M347.19,409.038s.254,1.816.372,3.535c3.239-.308,4.757-3.382,5.35-5.07Z" fill="#f4a269"/><path d="M346.215,410.738s7.686-.385,7.372-5.168.467-8.053-4.453-8.009-5.753,1.931-6.037,3.552S344.207,410.715,346.215,410.738Z" fill="#ffb27d"/><path d="M345.891,399.263s1.837-.429,2.437.465.172,1.393,1.512,1.769,1.8.348,1.662,1.286,1.346,1.635,1.41,2.385a1.315,1.315,0,0,0,1.27,1.18c.589.053.321-9.676-1.957-10.1a7.668,7.668,0,0,0-5.146.616A6.36,6.36,0,0,0,345.891,399.263Z" fill="#1c468a"/><path d="M345.891,399.263s-1.787-.125-2.108.894.107,1.259-.348,1.876a2.438,2.438,0,0,0-.193,1.709s-3.533-6.507.193-6.936S347.062,397.137,345.891,399.263Z" fill="#1c468a"/><path d="M343.557,435.918a19.8,19.8,0,0,1-2.379,4.623,6.22,6.22,0,0,1-2.169,1.5,1.707,1.707,0,0,1-1.036-.094,6.651,6.651,0,0,1-2.5-2.334c-.165-.229-.321-.458-.463-.675,2.441-1.959,7.069-6.441,7.55-12.576C343.219,417.981,343.592,436.3,343.557,435.918Z" fill="#599dad"/><path d="M337.973,441.943a10.887,10.887,0,0,1,5.072-3.587c-1.145,1.715-3.1,3.455-4.036,3.681A1.707,1.707,0,0,1,337.973,441.943Z" fill="#599dad"/><path d="M358.291,425.821s-1.919,19.285-10.411,21.934c-.053-.03-.1-.059-.148-.087a13.962,13.962,0,0,0-4.567-1.326c-2.079-.34-4.019-.569-4.641-1.312-.739-.885,1.436-1.865,3.183-2.882a4.843,4.843,0,0,0,1.895-1.56,5.984,5.984,0,0,0,.047-2.464v0C351.89,435.075,358.291,425.821,358.291,425.821Z" fill="#599dad"/><path d="M360.452,420.109c-.889-4.009-4.925-1.708-4.925-1.708-1.4-.32-11.669,16.327-12.492,16.7-.7.319-10.161-2.43-13.035-3.276a24.681,24.681,0,0,0-3.8-2.64c-.533-.04-4.1.875-4.072,1.441s.856,1.394,2.171,1.6c1,.159,2.686.815,3.763.979h0s10.447,7.116,14.894,7.984C346.954,441.978,361.342,424.118,360.452,420.109Z" fill="#ffb27d"/><path d="M336.776,433.714s-2.408,6.187.477,8.539,9.146,1.561,16-8,9.648-14.77,6.089-16.291-6.5.865-8.328,4.585c-1.9,3.866-5.4,9.22-7.495,9.423A46.872,46.872,0,0,0,336.776,433.714Z" fill="#6bb7bf"/><path d="M276.4,375.557l.005.934s-.255,2.921,3.343,3.348,6.547.371,6.449-1.883a47.586,47.586,0,0,1-.928-5.9,10.149,10.149,0,0,1,.128-1.749l-6.971-.139-2.053.335Z" fill="#ffb27d"/><path d="M276.375,370.5l.027,5.053a5.894,5.894,0,0,0,2.512.554c3.2,0,5.274-2.349,6.357-4.054a10.149,10.149,0,0,1,.128-1.749l-6.971-.139Z" fill="#e2915a"/><path d="M285.933,369.186c-.809,4.353-6.425,4.21-8.852,3.936-.683-.076-1.113-.163-1.113-.163-.77-.206-1.2-1.419-1.4-3.008-.4-3.144.105-7.76.636-8.941.8-1.776,2.3-3.7,7.961-2.312S286.97,363.609,285.933,369.186Z" fill="#ffb27d"/><path d="M290.528,498.052H282.57a19.1,19.1,0,0,1,.635-2.856,8.109,8.109,0,0,1,.45-1.147c.774-1.545,5.69-.562,5.69-.562a3.783,3.783,0,0,1,.814,1.886A15.8,15.8,0,0,1,290.528,498.052Z" fill="#233862"/><path d="M266.479,495.541a4.314,4.314,0,0,1-.551,2.511H250.187a2.717,2.717,0,0,1,2.383-1.688,11.941,11.941,0,0,0,6.37-2.948,4.745,4.745,0,0,0,1.233-2.233c.741-3.3,6.123,1.01,6.123,1.01A26.571,26.571,0,0,1,266.479,495.541Z" fill="#233862"/><path d="M276.949,459.9a24.891,24.891,0,0,0-.4,2.908c-.5,9.761-8.216,32.079-9.6,32.6-2.135.806-5.5-.907-7.258-1.468a1.508,1.508,0,0,1-1.058-1.714c3.821-17.567,5.225-42.863,5.736-57.839a67.941,67.941,0,0,1,1.553-12.754s18.82-5.021,18.931,1.331C284.96,428.582,278.627,450.626,276.949,459.9Z" fill="#2b478b"/><path d="M276.949,459.9l-12.572-25.513a67.941,67.941,0,0,1,1.553-12.754s18.82-5.021,18.931,1.331C284.96,428.582,278.627,450.626,276.949,459.9Z" fill="#233862"/><path d="M272.762,422.984l9.949,72.1a19.457,19.457,0,0,0,7.767.211s2.912-38.349,2.67-47.62,2.09-24.808-.533-26.522S272.762,422.984,272.762,422.984Z" fill="#2b478b"/><path d="M273.468,356.867a18.693,18.693,0,0,0,5.426-1.468c2.383-1.036,5.39.105,6.366.619a1.448,1.448,0,0,0-.238-.587,1.314,1.314,0,0,1,.5.745c.045.033.065.056.053.064a1.676,1.676,0,0,1,.816.053s-.223-.032-.3.111a.135.135,0,0,1-.036.04c3.718,1.8,4.061,7.671,2.865,9.031a29.817,29.817,0,0,0-3.165,5.319,3.155,3.155,0,0,1-.368-2.31c.262-1.439-.981-1.439-2.552-2.093s-.261-2.486-1.635-3.6-6.412-.457-6.346-1.308C272.984,360.8,273.468,357.059,273.468,356.867Z" fill="#233862"/><path d="M287.048,379.209l-2.291,49.147s-19.117.312-18.572-4.014,6.891-43.628,6.891-43.628Z" fill="#e9f3fe"/><path d="M293.873,407.066c-1.137,3.412,1.007,14.862,1.772,18.74.167.821.279,1.3.279,1.3-2.647,4.307-12.344,4.252-12.344,4.252-1.864-8.242-2.834-21.369-2.834-21.369l7.44-32.613,9.36,8.652s-.708,5.277-1.584,10.647A89.013,89.013,0,0,1,293.873,407.066Z" fill="#22407a"/><path d="M277.963,369.9s-.182.561-1.6.356c0,0-1.19-.171-1.1-.8A3.863,3.863,0,0,1,277.963,369.9Z" fill="#fff"/><path d="M267.218,379.909l0,.021c-.452.438-13.214,12.829-15.687,17.682-2.517,4.923,11.505,14.731,11.505,14.731a3.255,3.255,0,0,0,1.528.217c-.661,5.444-1.4,10.466-.963,12.61.8,3.875,4.379,5.176,4.379,4.878,0-.1,1.31-14.081,2.022-21.378a252.605,252.605,0,0,1,5.35-31.19A26.915,26.915,0,0,0,267.218,379.909Zm-7.6,19.829a.115.115,0,0,1-.018-.074c0-.709,2.7-2.275,5.631-4.121l.056-.056.006,0c-.052,1.508-.047,2.988.043,4.365a55.729,55.729,0,0,1-.329,8.717C263.615,406.389,259.892,400.54,259.619,399.738Z" fill="#22407a"/><path d="M287.589,377.322c.024-.469-2.2-1.117-2.2-1.117a9.23,9.23,0,0,1-6.732,3.587s1.194,2.323,2.6,2.925C281.26,382.717,287.451,380.108,287.589,377.322Z" fill="#d9e9f9"/><path d="M278.659,379.709s-2.219-1.315-2.227-2.742c0,0-1.433-.179-2.059.516a7.377,7.377,0,0,0,.171,3.864S277.74,380.86,278.659,379.709Z" fill="#d9e9f9"/><path d="M280.166,379.5l-3.01-.721a.455.455,0,0,0-.382.524,3.838,3.838,0,0,0,1.218,2.037C278.363,381.452,280.877,380.49,280.166,379.5Z" fill="#ba4c43"/><path d="M287.239,377.08c.023-.469-1.48-1.435-1.48-1.435s-2.911,3.4-7.1,3.462c0,0,1.194,2.324,2.6,2.925C281.26,382.032,287.1,379.866,287.239,377.08Z" fill="#e9f3fe"/><path d="M278.659,379.107s-2.245-1.19-2.252-2.616a7.166,7.166,0,0,0-1.981,1.291,4.117,4.117,0,0,0,.118,2.963S277.74,380.258,278.659,379.107Z" fill="#e9f3fe"/><path d="M272.776,413.009a4.636,4.636,0,0,0,1.477,3l1.333,1.228a.78.78,0,0,0,1.142-.091l1.652-2.1a2.786,2.786,0,0,0,.583-1.986c-.155-1.587-.442-4.644-.673-7.6-.187-2.391-.338-4.714-.349-6.127-.036-4.511.859-18.9.859-18.9l-1.082.056a57.928,57.928,0,0,0-4.092,13.184,50.076,50.076,0,0,0-.748,5.923A109.528,109.528,0,0,0,272.776,413.009Z" fill="#c65447"/><path d="M272.776,413.009a4.636,4.636,0,0,0,1.477,3l1.333,1.228a.78.78,0,0,0,1.142-.091l1.652-2.1a2.786,2.786,0,0,0,.583-1.986c-.155-1.587-.442-4.644-.673-7.6-2.989-3.358-4.2-8-4.664-11.785a50.076,50.076,0,0,0-.748,5.923A109.528,109.528,0,0,0,272.776,413.009Z" fill="#ba4c43"/><path d="M262.138,413.142a2.069,2.069,0,0,1,2.34-2.071,1.28,1.28,0,0,1,.869.48c.852,1.135,1.663,4.436.153,4.59a3.32,3.32,0,0,1-2.013-.831,2.93,2.93,0,0,1-1.349-1.981Z" fill="#ffb27d"/><path d="M295.645,425.806c-2.741-2.853-7.478-8.465-7.31-13.072.224-6.451,7.627-16.054,7.627-16.054a89.013,89.013,0,0,1-2.089,10.386C292.736,410.478,294.88,421.928,295.645,425.806Z" fill="#233862"/><path d="M295.559,414.584s-1.971.985-3.167.493-2.6-.863-3.941.659-1.619,2.578-1.337,3.141,3.4.352,3.916,0,1.335-1.218,1.854-1.067c1.432.416,2.638-.676,3.313-1.546C296.6,415.739,295.506,415.485,295.559,414.584Z" fill="#ffb27d"/><path d="M288.186,377.381s7.848.869,9.7,4.287,11.476,17.269,11.161,23.025-13.13,12.211-13.13,12.211-2.837-1.2-2.88-2.489,8.859-9,8.319-10.441-10.341-12.822-11.287-16.575S288.186,377.381,288.186,377.381Z" fill="#22407a"/><path d="M265.288,395.487l-.056.056c-2.927,1.846-5.631,3.412-5.631,4.121-.392-1.25,3.412-6.471,4.643-7.533C265.493,391.049,265.288,395.487,265.288,395.487Z" fill="#233862"/><path d="M285.759,375.645S279.8,400.6,280.749,410a64.014,64.014,0,0,1,7.462-18.274s-1.924-1.692-1.819-2.316a6.58,6.58,0,0,1,2.813-.139s-.153-10.757-1.017-11.893A6.3,6.3,0,0,0,285.759,375.645Z" fill="#233862"/><path d="M276.407,376.491c.121-.071-5.9,24.386-6.409,32.179,0,0,.6-13.907.539-17.915,0,0,2.474-1.31,2.474-1.77s-2.64-1.7-2.64-1.7,1.672-8.565,2.585-9.509S276.407,376.491,276.407,376.491Z" fill="#233862"/><path d="M198.9,484.587a1.117,1.117,0,0,1,.2,1.2l0,0a7.416,7.416,0,0,1-2.346,2.574c-.142.114-.267.218-.377.314l-.084.076-.066.059c-1.031.951-.643,1.168-2.5,3.1-2.112,2.2-3.567,2.238-3.981,2.038-.35-.171.362-1.337,1.15-2.647.038-.063.075-.127.114-.191.105-.174.21-.351.314-.526.924-1.577.686-2.317.467-4.664-.178-1.908-2.967-10.655-2.967-10.655l4.049-.7s1.219,6.966,2.563,8.039c.718.572,1.522.579,2.212,1,.049.029.1.059.144.091A5.32,5.32,0,0,1,198.9,484.587Z" fill="#ffb27d"/><path d="M198.9,484.587a1.117,1.117,0,0,1,.2,1.2l0,0a8.594,8.594,0,0,1-2.35,2.566c-.14.116-.263.223-.373.322l-.084.076-.066.059c-1.031.951-.643,1.168-2.5,3.1-2.112,2.2-3.567,2.238-3.981,2.038-.35-.171.362-1.337,1.15-2.647a9.015,9.015,0,0,0,3.766-2.775c1.272-1.623,2.12-3.709,2.986-4.917.049.029.1.059.144.091A5.32,5.32,0,0,1,198.9,484.587Z" fill="#c65447"/><path d="M166.255,482.058c-.25,1.25-2.031,1.041-4.021.555s-1.518.092-4.35-.222-3.691-1.37-3.777-1.791c-.078-.373,1.322-.505,2.823-.678.189-.021.379-.045.568-.068,1.695-.213,2.937-1.306,4.476-2.205,1.458-.851,3.635-4.317,3.635-4.317l3.884.308s-2.038,3.1-2.827,4.442a4.7,4.7,0,0,0-.381,2.647A4.974,4.974,0,0,1,166.255,482.058Z" fill="#ffb27d"/><path d="M162.234,482.613c-1.991-.486-1.518.092-4.35-.222s-3.691-1.37-3.777-1.791c-.078-.373,1.322-.505,2.823-.678l.014.029A7.993,7.993,0,0,0,161,481.212c1.922.046,3.957-.5,5.284-.483a4.974,4.974,0,0,1-.03,1.329C166.005,483.308,164.224,483.1,162.234,482.613Z" fill="#c65447"/><path d="M174.9,425s-.926-2.267-1.944-2.36-4.257-.6-4.489-.139a3.2,3.2,0,0,0,.695,2.731c.694.6,5,1.573,5,1.573Z" fill="#ffb27d"/><path d="M181.142,457.219l8.372,22.531a7.684,7.684,0,0,0,2.52-.231,10.867,10.867,0,0,0,2.435-1.186s-2.077-21.634-5.885-26.133S181.142,457.219,181.142,457.219Z" fill="#aa413e"/><path d="M214.256,448.1s-24.057-8.135-29.422-6.4-21.474,33.78-21.474,33.78a3.113,3.113,0,0,0,1.356.856,12.807,12.807,0,0,0,3.158.324s14.537-12.461,16.268-16.1,2.423-7.1,4.154-6.75,22.326,8.48,27,3.634a13.49,13.49,0,0,0,3.45-11.142Z" fill="#c65447"/><path d="M199.555,410.262a13.667,13.667,0,0,1-1.024-4.713,14.472,14.472,0,0,0,1.683,5.209c5,3.285,14.593,14.253,14.4,16.331,0,0,3.378-5.729,3.436-5.763,0,0,6.231-7.923-1.154-12.461-3.753-2.307-3.734-5.268-3.577-7.839s-1.024-13.642-8.542-10.745a4.9,4.9,0,0,0-1.747-.456,1.475,1.475,0,0,1,.666.316,5.84,5.84,0,0,0-3.158.6C197.785,392.311,195.319,406.363,199.555,410.262Z" fill="#b5453c"/><path d="M200.51,410.922c-.025.011,2.416,1.279,4.252.776,1.727-.47,2.855-2.71,2.831-2.715-.731-.145-.942-1.15-.926-5.468l-.331.065-5.559,1.1s.127,1.749.131,3.4C200.911,409.462,200.827,410.774,200.51,410.922Z" fill="#ffb27d"/><path d="M200.777,404.681s.127,1.749.131,3.4c3.11-.088,4.754-2.925,5.428-4.5Z" fill="#ed975d"/><path d="M206.91,402.975a16.368,16.368,0,0,0,2.022-4.778c.279-1.573-.522-7.4-6.379-6.562a7.961,7.961,0,0,0-3.3,1.248c-1.272.859-3.107,2.713-1.055,7.8l.533,1.718Z" fill="#b5453c"/><path d="M199.738,406.241s7.36.122,7.365-4.463.959-7.656-3.74-7.928-5.614,1.477-5.988,3.007S197.824,406.091,199.738,406.241Z" fill="#ffb27d"/><path d="M200.011,393.738s2.015,5.379,5.107,6.174,4.434-.034,4.434-.034a8.755,8.755,0,0,1-2.864-5.173S201.531,391.178,200.011,393.738Z" fill="#b5453c"/><path d="M200.51,394.175a6.5,6.5,0,0,0-1.872,2.368c-.366,1.167-.531,3.571-1.232,3.489,0,0-1.518-3.656.188-5.724C199.4,392.115,200.51,394.175,200.51,394.175Z" fill="#b5453c"/><path d="M219.9,448.231c-.4,1.1-1.614,1.385-3.246,1.194-3.11-.364-7.732-2.452-11.062-3.9-5.077-2.2-7.384-.133-9-1.533s1.847-4.515-1.154-18.977c-1.017-4.9,5.431-15.417,5.431-15.417s.557,3.044,6.725-.618c.218-.129,2.646,3.467,4.985,7.9,2.578,4.89,5.047,10.8,4.321,13.84C215.515,436.525,221.053,445.029,219.9,448.231Z" fill="#699dee"/><path d="M200.868,409.6l-3.8,15.6s-.473.842-1.215,2.041c-1.741,2.815-4.964,7.6-7.027,8.084-1.017.24-3.182-.607-5.577-1.817a113.419,113.419,0,0,1-9.884-5.875,4.751,4.751,0,0,1,1.461-3.769s10.846,4.076,11.923,4.153c2.349.168,4.738-11.165,6.933-14.942C195.264,410.345,200.868,409.6,200.868,409.6Z" fill="#699dee"/><path d="M201.374,403.462s-.137.582-1.585.493c0,0-1.217-.075-1.18-.716A3.915,3.915,0,0,1,201.374,403.462Z" fill="#fff"/><path d="M219.9,448.231c-.4,1.1-1.614,1.385-3.246,1.194-2.153-.938-11.454-4.542-11.35-6.983.154-3.615,1.788-3.731.635-8.193-.927-3.582,7.667-10.244,9.038-11.692,2.578,4.89,2.649,5.121,1.923,8.165C215.515,436.525,221.053,445.029,219.9,448.231Z" fill="#4a75cb"/><path d="M195.849,427.242c-1.741,2.815-4.964,7.6-7.027,8.084-1.017.24-3.182-.607-5.577-1.817a14.489,14.489,0,0,0,5.1.279c1.789-.173,2.308-2.366,5.135-5.654C195.309,426,195.759,426.538,195.849,427.242Z" fill="#4a75cb"/><path d="M204.466,434.163a4.431,4.431,0,0,0-3.028-.923c-1.472.288-2.193,1.3-2.135,1.759a2.622,2.622,0,0,0,1.961,1.875,21.2,21.2,0,0,0,4.327-.692Z" fill="#ffb27d"/><path d="M207.593,408.983s6,.37,8.075,3.266c2.923,4.077,8,20.722,6.616,24.529l-18.25-.077s-.443-2.067.173-3.067,10.615-2.616,11.077-3.077-5.77-9-5.77-10.385S207.593,408.983,207.593,408.983Z" fill="#699dee"/><path d="M202.9,440.979H180.806l-3.983-13.89h22.06Z" fill="#1c468a"/><rect width="28.885" height="0.541" transform="translate(180.882 440.438)" fill="#163560"/><path d="M187.822,433.809a.643.643,0,0,1,.631-.884,1.267,1.267,0,0,1,1.137.884.643.643,0,0,1-.63.884A1.267,1.267,0,0,1,187.822,433.809Z" fill="#163560"/><path d="M133.475,409.458s2.415-1.974,3.283-1.984,2.516-.445,2.451-.163-1.453.651-1.215.781,2.256-.412,2.82-.087,1.887,1.671.825,2.256a15.335,15.335,0,0,1-5.076,1.41c-.824-.108-2.69-.238-2.69-.238Z" fill="#ffb27d"/><path d="M102.633,482.851l2.025,8.531,3.034-.017.111-8.513Z" fill="#ffb27d"/><path d="M128.152,483.214l5.763,8.167,2.246-2.884-3.468-6.406Z" fill="#ffb27d"/><path d="M116.342,380.068v0a.421.421,0,0,0-.005-.062c-.039-.426-.087-.846-.144-1.264h0a27.669,27.669,0,0,0-.728-3.608c-.175-.63-.366-1.218-.572-1.748-.031-.081-.063-.157-.092-.236h0a4.941,4.941,0,0,0-1.629-2.393,5.891,5.891,0,0,0-3.181-.609,1.489,1.489,0,0,1,.671-.318,4.911,4.911,0,0,0-1.759.458c-7.573-2.917-8.763,8.232-8.6,10.823s-2.545,3.436-6.484,5.477c-7.518,3.894-8.177,9.108-8.177,9.108.057.035.12.075.184.12.373-.632,1.142-1.819,1.789-2a26.7,26.7,0,0,0-1.043,2.535c.949.724,2.249,1.819,3.655,3.045v0c1.881,1.64,3.948,3.512,5.6,5.029a4.25,4.25,0,0,1,.2-1.642l.315,1.9.042.248c1.055.97,1.886,1.744,2.308,2.14l.116.108c.123.114.189.177.189.177-.06-.665.873-2.235,2.336-4.172.1-.135.207-.272.314-.411.47-.611.989-1.251,1.543-1.909.2-.238.4-.476.609-.717l0,0c.166-.194.335-.386.508-.583h0c.409-.465.831-.932,1.26-1.4,1.11-1.209,2.273-2.4,3.408-3.484a34.519,34.519,0,0,1,4.524-3.771c.048-.071.1-.144.138-.219a7.788,7.788,0,0,0,.62-1.277c.054-.135.1-.272.151-.41a18.487,18.487,0,0,0,.779-3.279,18.967,18.967,0,0,1-.54,3.342c-.048.177-.1.34-.147.491v0a6.959,6.959,0,0,1-.337.85,4.634,4.634,0,0,0,.608-.687,5.472,5.472,0,0,0,.341-.531C116.377,386.988,116.649,383.46,116.342,380.068Z" fill="#163560"/><path d="M113.2,391.074c.026.012-2.433,1.288-4.282.782-1.739-.474-2.875-2.729-2.851-2.734.736-.146.948-1.158.933-5.508l.333.066,5.6,1.108s-.128,1.762-.132,3.422C112.8,389.6,112.881,390.926,113.2,391.074Z" fill="#ffb27d"/><path d="M106.869,372.579a4.474,4.474,0,0,1,6.229-.151A24.256,24.256,0,0,0,106.869,372.579Z" fill="#e37970"/><path d="M112.932,384.788s-.128,1.762-.132,3.422c-3.133-.088-4.789-2.946-5.467-4.53Z" fill="#ed975d"/><path d="M106.755,383.07a16.46,16.46,0,0,1-2.036-4.812c-.282-1.584.525-7.454,6.424-6.609a8.017,8.017,0,0,1,3.324,1.257c1.281.865,3.129,2.732,1.062,7.855l-.537,1.73Z" fill="#163560"/><path d="M135.247,486.258l-2.968.091-3.212.1a63.427,63.427,0,0,1-11.583-21.505q-.146-.462-.307-.935c-2.278-6.641-7-14.979-9.489-22.525-.4-1.2-.752-2.333-1.071-3.4q-.153-.515-.3-1.011a79.994,79.994,0,0,1-2.854-15.026l17.969.144A334.951,334.951,0,0,0,135.247,486.258Z" fill="#2b478b"/><path d="M118.92,411.861c-.045,8.55,1.255,12.219,1.255,12.219a24.148,24.148,0,0,1-16.838,1.032c-.108-.034-7.572-1.738-7.572-1.738.153-.346,1.514-6.108,1.663-6.426,1.931-4.146,3.4-5.964,3.626-7.238a27.089,27.089,0,0,0,.222-7.164A57.51,57.51,0,0,0,99.059,391.3a58.473,58.473,0,0,0,7.418-2.535,5.79,5.79,0,0,0,4,1.484c1.821-.04,2.412-.819,2.317-1.671,1.941,1.08,3.49,2.1,3.49,2.1,1.65,2.866,5,5.649,5.238,10.045C121.584,401.8,118.922,411.621,118.92,411.861Z" fill="#e7f1fd"/><path d="M113.978,386.36s-7.413.122-7.418-4.495-.965-7.711,3.767-7.985,5.655,1.488,6.031,3.029S115.906,386.209,113.978,386.36Z" fill="#ffb27d"/><path d="M113.7,373.767s-2.03,5.417-5.145,6.218-4.466-.033-4.466-.033a8.816,8.816,0,0,0,2.885-5.211S112.173,371.189,113.7,373.767Z" fill="#163560"/><path d="M113.2,374.207a6.548,6.548,0,0,1,1.885,2.385c.369,1.176.536,3.6,1.241,3.514,0,0,1.529-3.682-.189-5.765C114.315,372.133,113.2,374.207,113.2,374.207Z" fill="#163560"/><path d="M104.556,490.9a8.213,8.213,0,0,1-.386,3.5s-.5,2.262,1.732,2.3,2.774-.168,2.522-1.556-.732-3.786-.732-3.786Z" fill="#ffb27d"/><path d="M108.719,498.05h-4.881a13.026,13.026,0,0,1,.315-3.556c0-.031.011-.053.014-.069l0-.023c2.522,2.312,4.1-.059,4.1-.059l0,.013A14.888,14.888,0,0,1,108.719,498.05Z" fill="#c45446"/><path d="M141.531,495.377a55.839,55.839,0,0,1-5.37-6.88l-3.054,1.565,6.828,6.413,1.6-.21Z" fill="#ffb27d"/><path d="M144.14,498.05h-5.168c-.761,0-1.369-1.262-2.189-2.9a2.757,2.757,0,0,0-1.86-1.244l.02,4.145H133.75l-1.1-4.383c-.728-1.337-.059-2.549.454-3.6.6,0,2.2.406,5.231,3.825a3.979,3.979,0,0,0,3.193,1.49.248.248,0,0,0,.045.024C144.1,496.536,144.14,498.05,144.14,498.05Z" fill="#c45446"/><path d="M132.279,486.349l-3.212.1a63.427,63.427,0,0,1-11.583-21.505q-.146-.462-.307-.935c-2.278-6.641-7-14.979-9.489-22.525-.4-1.2-.752-2.333-1.071-3.4q-.153-.515-.3-1.011l2.646-2.008s7.945,12.865,10.4,24.972C121.508,470.548,130.064,483.2,132.279,486.349Z" fill="#233862"/><path d="M109.243,461.159c.046,5.888-.252,19.424-1.019,25.027h-2.845c-1.573,0-2.358-.022-2.358-.022-1.923-9.744-3.291-17.806-4.288-24.753-.817-5.7-1.544-10.588-2.1-14.8-.563-4.235-.954-7.78-1.094-10.776-.021-.471-.038-.93-.047-1.376s-.011-.883-.007-1.3l15.526-1.513C110.814,441.961,109.218,457.737,109.243,461.159Z" fill="#2b478b"/><path d="M105.379,486.186c-1.573,0-2.358-.022-2.358-.022-1.923-9.744-3.291-17.806-4.288-24.753-.817-5.7-1.544-10.588-2.1-14.8-.563-4.235-.954-7.78-1.094-10.776l5.7,3.352s-3.636,1.282-2.249,10.994S103.448,484.812,105.379,486.186Z" fill="#233862"/><path d="M106.112,435.745s-1.094,3.951-4.877,3.447a45.638,45.638,0,0,1-9.165-2.775s1.617-5.109,3.628-11.822c2.434-8.126,3.04-19.548,4.46-26.155.4-1.852,3.078-2.453,3.179-3.56l3.139-6.091s4.681,10.505,4.933,13.154S106.112,435.745,106.112,435.745Z" fill="#f99746"/><path d="M103.467,409.743c-.169,4.288-1.67,11.6-7.7,14.818a.781.781,0,0,1-.072.034c2.434-8.126,2.4-15.923,3.823-22.531C102.761,401.39,103.559,407.382,103.467,409.743Z" fill="#ed7d2b"/><path d="M142.616,407.178H136.8c0,.028-.008.139-.017.295-.023.526-.059,1.558-.052,1.654a2.565,2.565,0,0,0,1.768,2.237h0l.012.007a3.92,3.92,0,0,0,.574.171,3.129,3.129,0,0,0,.393.061,2.025,2.025,0,0,0,.225.012,2.908,2.908,0,0,0,1.192-.255,2.939,2.939,0,0,0,1.739-2.674v-1.142A2.985,2.985,0,0,0,142.616,407.178Z" fill="#c45446"/><path d="M142.14,407.178h-.787a2.96,2.96,0,0,1,.024.366v1.142a2.932,2.932,0,0,1-1.741,2.674,2.859,2.859,0,0,1-.545.182c-.081.019-.164.033-.249.045a2.554,2.554,0,0,0,.393.028,2.281,2.281,0,0,0,.249-.012,2.815,2.815,0,0,0,.942-.243,2.957,2.957,0,0,0,1.312-1.159v0a2.89,2.89,0,0,0,.424-1.513v-1.142A2.776,2.776,0,0,0,142.14,407.178Z" fill="#e37970"/><rect width="2.391" height="0.358" transform="translate(140.908 411.718) rotate(180)" fill="#c45446"/><path d="M96.846,419.263s2.7-.584,3.4.188,1.084,2,.39,2.43-2.7-.752-3.427-.275c-.518.342-.682,1.21-1.2.907s-1.068-2.3-1.068-2.3Z" fill="#ffb27d"/><path d="M106.476,388.789s-7.294.321-9.048,1.949S85.177,404.947,85,408.244s9.2,12.668,9.2,12.668a7.218,7.218,0,0,0,3.731-2.266s-5.813-10.365-5.466-10.817,10.2-8.522,11-6.732C104.162,402.64,106.476,388.789,106.476,388.789Z" fill="#f99746"/><path d="M134.227,408.389s-8.329,2.776-9.37,2.545-2.528-11.518-3.332-15.386a7.48,7.48,0,0,0-4.983-5.973l-3.746-1s4.289,10.6,4.415,12.739.505,35.063.505,35.063-.253,1.514,2.648.883S124.022,436,124.022,436s-1.257-9.2-1.849-17.372c2.956-.505,12.459-5.322,12.459-5.322C136.107,410.988,134.227,408.389,134.227,408.389Z" fill="#f99746"/><path d="M157.507,443.927l-1.517,8.6h0L151.8,476.267l-3.746,21.226a.683.683,0,0,1-.678.557.48.48,0,0,1-.484-.537l3.23-24.062,3.454-25.739.522-3.883Z" fill="#c69d7f"/><path d="M174.091,443.927l-1.517,8.6h0l-4.189,23.743-3.746,21.226a.683.683,0,0,1-.678.557.48.48,0,0,1-.484-.537l3.23-24.062,3.454-25.739.522-3.883Z" fill="#c69d7f"/><path d="M155.99,452.523c.2-3.694-2.413-4.811-2.413-4.811l.522-3.883,3.408.1Z" fill="#a0795f"/><path d="M300.574,498.05a.686.686,0,0,1-.679-.557l-3.327-18.859-4.785-27.123-1.339-7.584,3.409-.1.591,4.4,4.153,30.941,2.462,18.34A.48.48,0,0,1,300.574,498.05Z" fill="#c69d7f"/><path d="M294.444,448.232a4.89,4.89,0,0,0-2.661,3.279l-1.339-7.584,3.409-.1Z" fill="#a0795f"/><path d="M319.686,498.05a.685.685,0,0,1-.679-.557l-3.327-18.859-4.786-27.123-1.338-7.584,3.409-.1.591,4.4,4.153,30.941,2.461,18.34A.48.48,0,0,1,319.686,498.05Z" fill="#c69d7f"/><path d="M313.556,448.232a4.893,4.893,0,0,0-2.662,3.279l-1.338-7.584,3.409-.1Z" fill="#a0795f"/><rect width="183.751" height="5.955" rx="2.947" transform="translate(138.421 440.949)" fill="#e0b594"/><path d="M176.7,437.365a1.935,1.935,0,0,0-1.2-.022v-.561a2.948,2.948,0,0,0-.024-.366H169.67a2.948,2.948,0,0,0-.024.366v1.141a2.926,2.926,0,0,0,5.126,1.932h0a4.593,4.593,0,0,0,1.816-.856C177.022,438.484,177.163,437.65,176.7,437.365Zm-.307,1.055c-.147.379-.806.583-1.131.662a2.907,2.907,0,0,0,.234-.964.855.855,0,0,1,.75-.393C176.455,437.763,176.581,437.94,176.4,438.42Z" fill="#c45446"/><path d="M170.122,436.782v1.141a2.938,2.938,0,0,0,2.929,2.93,2.686,2.686,0,0,0,.393-.029,2.938,2.938,0,0,1-2.535-2.9v-1.141a2.948,2.948,0,0,1,.024-.366h-.787A2.768,2.768,0,0,0,170.122,436.782Z" fill="#e37970"/><rect width="2.391" height="0.358" transform="translate(171.378 440.597)" fill="#c45446"/><path d="M259.287,437.365a1.935,1.935,0,0,0-1.2-.022v-.561a2.951,2.951,0,0,0-.024-.366h-5.811a2.948,2.948,0,0,0-.024.366v1.141a2.926,2.926,0,0,0,5.126,1.932h0a4.6,4.6,0,0,0,1.817-.856C259.608,438.484,259.748,437.65,259.287,437.365Zm-.307,1.055c-.146.379-.806.583-1.131.662a2.907,2.907,0,0,0,.234-.964.857.857,0,0,1,.75-.393C259.04,437.763,259.166,437.94,258.98,438.42Z" fill="#c45446"/><path d="M252.707,436.782v1.141a2.938,2.938,0,0,0,2.929,2.93,2.686,2.686,0,0,0,.393-.029,2.938,2.938,0,0,1-2.535-2.9v-1.141a2.948,2.948,0,0,1,.024-.366h-.787A2.766,2.766,0,0,0,252.707,436.782Z" fill="#e37970"/><rect width="2.391" height="0.358" transform="translate(253.963 440.597)" fill="#c45446"/><path d="M43.352,396.194V498.05H16.481s-.4-3.961-.524-10.358c-.067-3.726-.043-8.281.219-13.36.022-.414.045-.835.069-1.257.137-2.329.321-4.762.569-7.268.023-.222.046-.446.07-.669.271-2.622.607-5.344,1.027-8.143.342-2.273.736-4.6,1.2-6.962.032-.165.065-.332.1-.5q.356-1.8.765-3.633.159-.717.326-1.439.328-1.407.687-2.824.875-3.471,1.956-6.981c.073-.236.148-.478.22-.719q.492-1.561,1.028-3.131.818-2.385,1.738-4.768c.384-1,.787-1.99,1.2-2.984A101.5,101.5,0,0,1,43.352,396.194Z" fill="#deedff"/><path d="M.65,0h493.7a.65.65,0,0,1,.65.65v.465a.65.65,0,0,1-.65.65H.651A.651.651,0,0,1,0,1.116V.65A.65.65,0,0,1,.65,0Z" transform="translate(2.957 497.985)" fill="#2e3552"/></g></svg>