<svg xmlns="http://www.w3.org/2000/svg" xmlns:xlink="http://www.w3.org/1999/xlink" width="471.465" height="485.762" viewBox="0 0 471.465 485.762"><defs><linearGradient id="a" y1="0.5" x2="1" y2="0.5" gradientUnits="objectBoundingBox"><stop offset="0" stop-color="blue"/><stop offset="1" stop-color="#8cc63f"/></linearGradient><linearGradient id="b" x1="0.422" y1="0.517" x2="0.352" y2="0.841" gradientUnits="objectBoundingBox"><stop offset="0" stop-color="#40447e"/><stop offset="0.996" stop-color="#3c3b6b"/></linearGradient><linearGradient id="c" x1="0.48" y1="0.467" x2="0.372" y2="0.528" xlink:href="#b"/><linearGradient id="d" x1="0" y1="0.5" x2="1" y2="0.5" xlink:href="#b"/><linearGradient id="f" y1="0.5" x2="1" y2="0.5" gradientUnits="objectBoundingBox"><stop offset="0" stop-color="#ff9085"/><stop offset="1" stop-color="#fb6fbb"/></linearGradient><linearGradient id="h" x1="1.095" y1="0.828" x2="0.375" y2="0.425" gradientUnits="objectBoundingBox"><stop offset="0" stop-color="#444b8c"/><stop offset="0.996" stop-color="#26264f"/></linearGradient><linearGradient id="i" x1="-21.006" y1="8.639" x2="-18.449" y2="8.7" xlink:href="#h"/><linearGradient id="k" x1="1.189" y1="0.799" x2="0.354" y2="0.433" xlink:href="#h"/><linearGradient id="l" x1="-41.117" y1="12.756" x2="-37.874" y2="12.818" xlink:href="#h"/><linearGradient id="n" x1="0" y1="0.5" x2="1" y2="0.5" xlink:href="#h"/><linearGradient id="o" y1="0.5" x2="1" y2="0.5" gradientUnits="objectBoundingBox"><stop offset="0.004" stop-color="aqua"/><stop offset="1" stop-color="#9571f6"/></linearGradient><linearGradient id="p" x1="0" y1="0.5" x2="1" y2="0.5" xlink:href="#a"/><linearGradient id="q" x1="0" y1="0.5" x2="1" y2="0.5" xlink:href="#a"/><linearGradient id="s" x1="0" y1="0.5" x2="1" y2="0.5" xlink:href="#a"/><linearGradient id="u" x1="0" y1="0.5" x2="1" y2="0.5" xlink:href="#a"/><linearGradient id="v" x1="0.195" y1="-0.97" x2="0.619" y2="0.678" xlink:href="#f"/><linearGradient id="w" x1="1.332" y1="0.839" x2="0.096" y2="-0.409" gradientUnits="objectBoundingBox"><stop offset="0" stop-color="#311944"/><stop offset="1" stop-color="#893976"/></linearGradient><linearGradient id="x" x1="0.501" y1="0.425" x2="0.498" y2="-0.658" xlink:href="#f"/><linearGradient id="y" x1="0.198" y1="-2.702" x2="0.619" y2="1.776" xlink:href="#f"/><linearGradient id="ab" x1="0.195" y1="-1.004" x2="0.619" y2="0.703" xlink:href="#f"/><linearGradient id="ai" x1="1.332" y1="0.839" x2="0.096" y2="-0.409" xlink:href="#w"/><linearGradient id="ak" x1="0.198" y1="-2.702" x2="0.619" y2="1.776" xlink:href="#f"/><linearGradient id="ap" x1="0.501" y1="0.425" x2="0.498" y2="-0.658" xlink:href="#f"/><linearGradient id="at" x1="0.195" y1="-1.004" x2="0.619" y2="0.703" xlink:href="#f"/><linearGradient id="bh" x1="0.195" y1="-1.004" x2="0.619" y2="0.703" xlink:href="#a"/><linearGradient id="bi" x1="0.198" y1="-2.702" x2="0.619" y2="1.776" xlink:href="#a"/><linearGradient id="bk" x1="0.501" y1="0.425" x2="0.498" y2="-0.658" xlink:href="#a"/><linearGradient id="cj" x1="0.505" y1="-0.112" x2="0.495" y2="0.524" xlink:href="#f"/><linearGradient id="ck" x1="0.505" y1="-0.112" x2="0.495" y2="0.524" gradientUnits="objectBoundingBox"><stop offset="0" stop-color="#aa80f9"/><stop offset="0.996" stop-color="#6165d7"/></linearGradient><linearGradient id="cl" x1="0" y1="0.5" x2="1" y2="0.5" xlink:href="#ck"/><linearGradient id="cm" x1="-0.017" y1="0.5" x2="1" y2="0.5" xlink:href="#ck"/><linearGradient id="cn" x1="0.907" y1="1.663" x2="-0.146" y2="-1.371" gradientUnits="objectBoundingBox"><stop offset="0" stop-color="#311944"/><stop offset="1" stop-color="#6b3976"/></linearGradient><linearGradient id="co" x1="1.065" y1="1.559" x2="-2.053" y2="-3.747" gradientUnits="objectBoundingBox"><stop offset="0" stop-color="#ffc444"/><stop offset="0.996" stop-color="#f36f56"/></linearGradient><linearGradient id="cp" x1="0.538" y1="0.417" x2="0.339" y2="1.221" xlink:href="#ck"/><linearGradient id="ct" x1="0.093" y1="1.925" x2="0.829" y2="-0.282" gradientUnits="objectBoundingBox"><stop offset="0.004" stop-color="#f36f56"/><stop offset="1" stop-color="#ffc444"/></linearGradient><linearGradient id="cu" x1="-259.186" y1="-105.067" x2="-259.856" y2="-106.815" xlink:href="#cn"/><linearGradient id="cv" x1="0" y1="0.5" x2="1" y2="0.5" xlink:href="#ct"/><linearGradient id="cw" x1="-429.119" y1="-109.088" x2="-430.23" y2="-110.899" xlink:href="#cn"/><linearGradient id="cx" x1="0" y1="0.5" x2="1" y2="0.5" xlink:href="#ct"/></defs><g transform="translate(-12.321 -6.582)"><path d="M456.562,365.059a2.425,2.425,0,0,1-2.425-2.425V355.36a2.425,2.425,0,0,1,4.85,0v7.274A2.425,2.425,0,0,1,456.562,365.059Zm0-18.186a2.425,2.425,0,0,1-2.425-2.425v-7.274a2.425,2.425,0,1,1,4.85,0v7.274A2.425,2.425,0,0,1,456.562,346.873Zm0-18.185a2.425,2.425,0,0,1-2.425-2.425v-7.275a2.425,2.425,0,0,1,4.85,0v7.275A2.425,2.425,0,0,1,456.562,328.688Zm0-18.186a2.425,2.425,0,0,1-2.425-2.425V300.8a2.425,2.425,0,1,1,4.85,0v7.274A2.425,2.425,0,0,1,456.562,310.5Zm0-18.186a2.425,2.425,0,0,1-2.425-2.425v-7.274a2.425,2.425,0,1,1,4.85,0v7.274A2.425,2.425,0,0,1,456.562,292.316Zm0-18.186a2.425,2.425,0,0,1-2.425-2.425v-7.274a2.425,2.425,0,0,1,4.85,0V271.7A2.425,2.425,0,0,1,456.562,274.13Zm0-18.186a2.425,2.425,0,0,1-2.425-2.424v-7.275a2.425,2.425,0,0,1,4.85,0v7.275A2.425,2.425,0,0,1,456.562,255.944Zm0-18.185a2.425,2.425,0,0,1-2.425-2.425V228.06a2.425,2.425,0,1,1,4.85,0v7.274A2.425,2.425,0,0,1,456.562,237.759Zm0-18.186a2.425,2.425,0,0,1-2.425-2.425v-7.274a2.425,2.425,0,0,1,4.85,0v7.274A2.425,2.425,0,0,1,456.562,219.573Zm0-18.186a2.425,2.425,0,0,1-2.425-2.425v-7.274a2.425,2.425,0,1,1,4.85,0v7.274A2.425,2.425,0,0,1,456.562,201.387Z" fill="url(#a)"/><path d="M260.331,184.045l-13.991-.816a99.86,99.86,0,0,0-4.9-26.836l12.241-6.149a7.007,7.007,0,0,0,3.042-9.305l-4.433-9.237a6.831,6.831,0,0,0-9.139-3.315l-12.08,5.928a102.983,102.983,0,0,0-18.049-21.554l7.412-11.138a7.279,7.279,0,0,0-1.975-9.9l-8.608-6.085a6.929,6.929,0,0,0-9.816,1.643L192.613,98.3a104.837,104.837,0,0,0-27.354-10.172l.814-13.546a7.723,7.723,0,0,0-6.9-8.014l-10.858-1.151a7.018,7.018,0,0,0-7.89,6.526L139.6,85.639a106.1,106.1,0,0,0-29.579,4.915L103.5,77.736a8.159,8.159,0,0,0-10.413-3.777L82.823,78.467a7.155,7.155,0,0,0-3.489,9.965l6.769,13.12a105.337,105.337,0,0,0-23.095,19.4L49.85,112.426A8.3,8.3,0,0,0,38.636,114.3l-6.564,9.23a7.449,7.449,0,0,0,2.359,10.655l13.625,8.646a100.829,100.829,0,0,0-9.423,28.272l-16.907-.986a8.02,8.02,0,0,0-8.714,7.206l-.678,11.293a7.884,7.884,0,0,0,7.8,8.081l17.367.827a99.873,99.873,0,0,0,6.793,28.445l-15.84,7.774a7.513,7.513,0,0,0-3.62,10.338l5.416,9.865A8.239,8.239,0,0,0,41.163,257L57.2,248.945a103.57,103.57,0,0,0,20.231,20.394l-9.842,14.615a7.093,7.093,0,0,0,2.273,10.271l9.658,5.564a8.24,8.24,0,0,0,10.8-2.653l9.773-14.685a105.3,105.3,0,0,0,27.244,7.377l-1.02,16.964a6.9,6.9,0,0,0,7.058,7.317l10.927,0a7.86,7.86,0,0,0,7.816-7.234l1.009-16.78a106.03,106.03,0,0,0,26.869-6.571l7.389,14.319a6.878,6.878,0,0,0,9.556,2.67l9.283-5.137a7.34,7.34,0,0,0,3.148-9.627l-7.162-14.073a105.126,105.126,0,0,0,20.076-18.286l12.865,8.164a6.9,6.9,0,0,0,9.478-2.328l5.512-8.711a6.949,6.949,0,0,0-1.909-9.567L235.8,232.9a100.846,100.846,0,0,0,8.714-25.515l14.377.685A6.915,6.915,0,0,0,266,201.482l.61-10.141A6.8,6.8,0,0,0,260.331,184.045ZM142.055,260.722c-41.488-.951-74.2-35.16-71.723-76.378s39.076-71.706,80.412-68.211c39.931,3.375,69.433,37.414,67.106,76.13S182.134,261.642,142.055,260.722Z" fill="#bfc8d6"/><path d="M106.773,74.249l-9.943-.942-3.973,8.727Z" fill="#bfc8d6"/><path d="M205.327,84.309l11.483.8-.509,8.475Z" fill="#bfc8d6"/><path d="M246.657,127.822l11.425,1.151-3.249,6.242Z" fill="#bfc8d6"/><path d="M261.314,184.225l11.512,1.611-4.117,5.385Z" fill="#bfc8d6"/><path d="M237.3,262.437l11.128,2.278,1.925-9.08Z" fill="#bfc8d6"/><path d="M191.871,301.2l9.968,2.438,1.249-7.4Z" fill="#bfc8d6"/><path d="M140.4,316.04l-8.951-2.147,8.483-11.1Z" fill="#bfc8d6"/><path d="M91.971,303.36l-10.406-2.809,8.723-9.361Z" fill="#bfc8d6"/><path d="M44.1,111.057l10.974,1-4.834,7.756Z" fill="#bfc8d6"/><path d="M17.044,195.984l9.989,2.094-.306-8.294Z" fill="#bfc8d6"/><path d="M35.063,257.641l9.753,2.2,1.194-6.48Z" fill="#bfc8d6"/><path d="M271.58,185.633l-14.108-.823a100.614,100.614,0,0,0-4.943-27.055l12.343-6.2a7.065,7.065,0,0,0,3.067-9.381l-4.47-9.312a6.889,6.889,0,0,0-9.215-3.342l-12.18,5.976a103.842,103.842,0,0,0-18.2-21.73l7.474-11.228a7.338,7.338,0,0,0-1.991-9.98l-8.68-6.135a6.988,6.988,0,0,0-9.9,1.657L203.3,99.189a105.7,105.7,0,0,0-27.58-10.254l.82-13.657a7.786,7.786,0,0,0-6.958-8.079l-10.947-1.161a7.076,7.076,0,0,0-7.955,6.579l-.83,13.807a106.972,106.972,0,0,0-29.824,4.955l-6.578-12.923a8.229,8.229,0,0,0-10.5-3.808L92.6,79.193a7.213,7.213,0,0,0-3.518,10.046l6.825,13.227A106.22,106.22,0,0,0,72.62,122.022l-13.267-8.594a8.367,8.367,0,0,0-11.306,1.893l-6.619,9.305a7.509,7.509,0,0,0,2.379,10.742l13.738,8.716a101.626,101.626,0,0,0-9.5,28.5l-17.048-1c-4.588-.268-8.528,2.984-8.785,7.265l-.684,11.384a7.949,7.949,0,0,0,7.859,8.148l17.512.834A100.634,100.634,0,0,0,53.747,227.9l-15.972,7.836a7.575,7.575,0,0,0-3.65,10.422l5.462,9.946A8.307,8.307,0,0,0,50.6,259.179l16.166-8.12a104.373,104.373,0,0,0,20.4,20.561l-9.924,14.734a7.151,7.151,0,0,0,2.293,10.355l9.738,5.609a8.308,8.308,0,0,0,10.889-2.675l9.854-14.8a106.186,106.186,0,0,0,27.469,7.437l-1.027,17.1a6.959,6.959,0,0,0,7.116,7.378l11.017,0a7.924,7.924,0,0,0,7.882-7.293l1.016-16.916a106.912,106.912,0,0,0,27.093-6.625l7.449,14.437a6.937,6.937,0,0,0,9.636,2.691l9.36-5.179a7.4,7.4,0,0,0,3.174-9.706l-7.222-14.187a105.935,105.935,0,0,0,20.242-18.434l12.972,8.23a6.954,6.954,0,0,0,9.557-2.347l5.557-8.781A7.006,7.006,0,0,0,259.377,243l-12.535-8.12a101.587,101.587,0,0,0,8.786-25.722l14.5.69a6.973,6.973,0,0,0,7.176-6.639l.614-10.224A6.854,6.854,0,0,0,271.58,185.633Zm-119.256,77.3c-41.832-.96-74.816-35.448-72.319-77s39.4-72.29,81.078-68.767c40.262,3.4,70.009,37.72,67.663,76.751S192.735,263.861,152.324,262.934Z" fill="#d8dee8"/><path d="M393.934,288.8l-7.442-1.851a54.659,54.659,0,0,0,.073-14.927l7.2-2.071a3.835,3.835,0,0,0,2.575-4.7l-1.451-5.415a3.738,3.738,0,0,0-4.58-2.705l-7.1,1.968a56.392,56.392,0,0,0-7.531-13.414l5.111-5.241a3.983,3.983,0,0,0-.063-5.523l-4.015-4.142a3.791,3.791,0,0,0-5.445-.107l-5.1,5.176a57.372,57.372,0,0,0-13.684-8.232l1.806-7.2a4.227,4.227,0,0,0-2.9-5.006l-5.723-1.715a3.839,3.839,0,0,0-4.9,2.712l-1.825,7.283a58.05,58.05,0,0,0-16.4-.344l-2.214-7.552a4.465,4.465,0,0,0-5.219-3.082L309.13,214.1a3.916,3.916,0,0,0-2.883,5.007l2.316,7.739a57.684,57.684,0,0,0-14.379,8.1l-6.215-5.912a4.541,4.541,0,0,0-6.22-.123l-4.462,4.3a4.077,4.077,0,0,0,.192,5.969l6.455,6.025a55.166,55.166,0,0,0-7.922,14.253l-8.993-2.237a4.388,4.388,0,0,0-5.414,3l-1.505,6a4.314,4.314,0,0,0,3.376,5.133l9.257,2.2a54.642,54.642,0,0,0,.781,15.984l-9.3,2.581a4.11,4.11,0,0,0-2.99,5.194l1.917,5.853a4.507,4.507,0,0,0,5.563,2.742l9.436-2.712a56.667,56.667,0,0,0,8.821,13.01l-6.769,6.866a3.881,3.881,0,0,0,.186,5.753l4.632,3.968a4.509,4.509,0,0,0,6.076-.337l6.739-6.911a57.567,57.567,0,0,0,13.906,6.718l-2.261,9.021a3.778,3.778,0,0,0,3.057,4.648l5.876,1.105a4.3,4.3,0,0,0,4.934-3.1l2.237-8.923a57.968,57.968,0,0,0,15.114-.821l2.527,8.447a3.765,3.765,0,0,0,4.87,2.4l5.511-1.826a4.016,4.016,0,0,0,2.665-4.859l-2.431-8.292a57.485,57.485,0,0,0,12.643-7.807l6.094,5.69a3.776,3.776,0,0,0,5.333-.3l3.844-4.128a3.8,3.8,0,0,0-.061-5.339l-5.872-5.586a55.163,55.163,0,0,0,7.262-12.842l7.663,1.82a3.784,3.784,0,0,0,4.492-2.823l1.352-5.393A3.721,3.721,0,0,0,393.934,288.8Zm-71.35,29.3c-22.217-4.7-36.355-26.4-30.861-48.317s28.254-34.618,50.132-28.565c21.133,5.847,33.563,27.131,28.4,47.718S344.045,322.636,322.584,318.1Z" fill="#bfc8d6"/><path d="M322.436,214.248l-5.252-1.511-3.018,4.292Z" fill="#bfc8d6"/><path d="M374.422,229.609l6.094,1.592-1.13,4.506Z" fill="#bfc8d6"/><path d="M392.256,257.183l6.028,1.772-2.377,3.029Z" fill="#bfc8d6"/><path d="M394.444,289l6.029,2.029-2.758,2.48Z" fill="#bfc8d6"/><path d="M373.635,328.634l5.754,2.349,1.952-4.689Z" fill="#bfc8d6"/><path d="M345.287,344.894l5.115,2.318,1.418-3.852Z" fill="#bfc8d6"/><path d="M316.111,347.678l-4.6-2.058,5.683-5.113Z" fill="#bfc8d6"/><path d="M291.344,335.969l-5.313-2.561,5.637-4.154Z" fill="#bfc8d6"/><path d="M285.015,227.716l5.8,1.648-3.383,3.683Z" fill="#bfc8d6"/><path d="M261.889,270.657l5.161,2.135.673-4.492Z" fill="#bfc8d6"/><path d="M265.355,305.636l5.024,2.165,1.3-3.364Z" fill="#bfc8d6"/><path d="M399.823,290.79l-7.5-1.867a55.071,55.071,0,0,0,.073-15.049l7.264-2.088a3.866,3.866,0,0,0,2.6-4.735l-1.464-5.46a3.77,3.77,0,0,0-4.619-2.727l-7.153,1.984a56.8,56.8,0,0,0-7.594-13.524l5.153-5.284a4.015,4.015,0,0,0-.063-5.568l-4.049-4.175a3.823,3.823,0,0,0-5.489-.109l-5.146,5.219a57.864,57.864,0,0,0-13.8-8.3l1.82-7.261a4.262,4.262,0,0,0-2.926-5.048l-5.77-1.729a3.872,3.872,0,0,0-4.943,2.735l-1.84,7.341a58.527,58.527,0,0,0-16.54-.346l-2.232-7.614a4.5,4.5,0,0,0-5.262-3.108l-6.025,1.4a3.948,3.948,0,0,0-2.906,5.048l2.335,7.8a58.146,58.146,0,0,0-14.5,8.166l-6.266-5.961a4.58,4.58,0,0,0-6.272-.124l-4.5,4.337a4.108,4.108,0,0,0,.194,6.016l6.509,6.075a55.635,55.635,0,0,0-7.988,14.369l-9.067-2.256a4.425,4.425,0,0,0-5.459,3.021l-1.517,6.053a4.35,4.35,0,0,0,3.4,5.175l9.334,2.216a55.075,55.075,0,0,0,.788,16.114l-9.381,2.6a4.145,4.145,0,0,0-3.015,5.237l1.933,5.9a4.546,4.546,0,0,0,5.61,2.765l9.514-2.735a57.1,57.1,0,0,0,8.894,13.117l-6.825,6.923a3.912,3.912,0,0,0,.188,5.8l4.671,4a4.545,4.545,0,0,0,6.126-.339l6.794-6.967a58.1,58.1,0,0,0,14.022,6.774l-2.279,9.093a3.807,3.807,0,0,0,3.082,4.686l5.925,1.115a4.337,4.337,0,0,0,4.975-3.127l2.254-8.995a58.483,58.483,0,0,0,15.239-.827l2.549,8.516a3.8,3.8,0,0,0,4.91,2.42l5.557-1.84a4.049,4.049,0,0,0,2.687-4.9l-2.452-8.359a58.023,58.023,0,0,0,12.748-7.87l6.145,5.736a3.8,3.8,0,0,0,5.376-.3l3.876-4.161a3.833,3.833,0,0,0-.062-5.382l-5.921-5.632a55.574,55.574,0,0,0,7.322-12.946l7.727,1.834a3.815,3.815,0,0,0,4.529-2.846l1.363-5.436A3.751,3.751,0,0,0,399.823,290.79Zm-71.94,29.531c-22.4-4.739-36.657-26.617-31.118-48.712s28.487-34.9,50.546-28.8c21.309,5.9,33.842,27.354,28.64,48.108S349.522,324.9,327.883,320.321Z" fill="#d8dee8"/><path d="M446.463,408.77,45.286,405.276v10.338c0,2.806,1.749,5.192,4.119,5.618l113.441,20.357a15.561,15.561,0,0,0,4.07.191L442.1,418.569c2.457-.207,4.36-2.6,4.36-5.483Z" fill="url(#b)"/><path d="M317.319,392.012,49.7,410.924a7.97,7.97,0,0,1-8.683-8.033V211.576A8.669,8.669,0,0,1,49.7,202.93H317.319c3.945,0,7.135,3.5,7.135,7.816V383.691C324.454,388.008,321.264,391.733,317.319,392.012Z" fill="url(#c)"/><path d="M321.586,392.012,53.968,410.924a7.969,7.969,0,0,1-8.682-8.033V211.576a8.668,8.668,0,0,1,8.682-8.646H321.586c3.945,0,7.135,3.5,7.135,7.816V383.691C328.721,388.008,325.531,391.733,321.586,392.012Z" fill="url(#d)"/><path d="M313.249,379.819,63.991,396.247a6.532,6.532,0,0,1-7.064-6.593v-167.5a7.1,7.1,0,0,1,7.064-7.088l249.258-1.031a6.143,6.143,0,0,1,5.887,6.4V373A6.691,6.691,0,0,1,313.249,379.819Z" fill="#7bc245"/><path d="M314.908,391.154,45.286,411.061l117.56,21.1a15.6,15.6,0,0,0,4.07.191L446.463,408.77,319.2,391.289A20.51,20.51,0,0,0,314.908,391.154Z" fill="url(#d)"/><ellipse cx="43.177" cy="43.73" rx="43.177" ry="43.73" transform="translate(165.634 259.401)" fill="#fff"/><path d="M207.291,326.693a5.329,5.329,0,0,1-4.581-2.625l-16.244-27.384a5.453,5.453,0,0,1,1.829-7.428,5.307,5.307,0,0,1,7.334,1.853L206.9,310.118l14.906-29.653A5.313,5.313,0,0,1,229,278.1a5.446,5.446,0,0,1,2.338,7.28l-19.283,38.359a5.34,5.34,0,0,1-4.576,2.954Z" fill="url(#f)"/><path d="M84.628,411.562,309.1,394.742l69.471,9.466-222.535,17.98Z" opacity="0.3" fill="url(#d)" style="mix-blend-mode:multiply;isolation:isolate"/><path d="M257.108,339.541c-20.631-11.1-36.853,2.965-52.509-10.913-9.491-8.414-4.831-14.688-16.51-27.261-12.935-13.926-21.357-9.245-34.357-21.778-16.437-15.848-8.216-28.178-22.375-39.556-17.176-13.8-35.7-1.027-52.051-14.265-7.052-5.71-10.921-14.01-12.942-22.838h-16a5.078,5.078,0,0,0-5.08,5.075V406.32a4.668,4.668,0,0,0,5.08,4.714l272.746-19.36a4.391,4.391,0,0,0,3.287-2.009c-19.966-.728-32.232-7.421-40.072-14.34C270.988,361.789,273.648,348.44,257.108,339.541Z" fill="#fff" opacity="0.48" style="mix-blend-mode:soft-light;isolation:isolate"/><path d="M424.221,318.2V467.57c0,2.234-2.444,2.889-5.217,3.158l-95.893,10.724-1.466.142c-3.009.292-5.476-1.378-5.476-3.712V321.8c0-2.335,2.467-4.322,5.476-4.417l1.989-.063,96.232.315C422.639,317.548,424.221,315.971,424.221,318.2Z" fill="url(#h)"/><path d="M427.179,318.034V467.36c0,2.233-2.263,4.28-5.034,4.549l-97.487,9.469c-3.007.292-5.472-1.378-5.472-3.711V321.628c0-2.334,2.465-4.321,5.472-4.416l97.487-3.079C424.916,314.046,427.179,315.8,427.179,318.034Z" fill="url(#i)"/><path d="M424.053,326.425V464.8c0,2.086-2.115,3.995-4.706,4.243l-91.666,8.784c-2.8.268-5.092-1.29-5.092-3.463V330.151c0-2.173,2.294-4.032,5.092-4.13l91.666-3.222C421.938,322.708,424.053,324.34,424.053,326.425Z" fill="#7bc245"/><path d="M409.448,387.185c0,18.694-15.063,34.855-33.7,36.1a31.4,31.4,0,0,1-33.91-31.79c0-18.81,15.208-34.98,33.91-36.114A31.406,31.406,0,0,1,409.448,387.185Z" fill="#fff"/><path d="M374.556,407.706a3.885,3.885,0,0,1-3.589-1.8l-12.744-20.464a4.367,4.367,0,0,1,1.437-5.867,4.057,4.057,0,0,1,5.756,1.079l8.838,14.205L385.915,371.1a4.367,4.367,0,0,1,5.615-2.184,4.026,4.026,0,0,1,1.825,5.53l-15.07,30.717a4.545,4.545,0,0,1-3.582,2.527Q374.629,407.7,374.556,407.706Z" fill="url(#f)"/><g opacity="0.48" style="mix-blend-mode:soft-light;isolation:isolate"><path d="M395.665,403.962c-8.869-17.8-29.6-13.55-37.384-32.96-4.645-11.58,1.137-17.071-2.345-31.2a50.475,50.475,0,0,0-13.331-23.16l-17.947.567c-3.007.1-5.472,2.082-5.472,4.416V477.667c0,2.333,2.465,4,5.472,3.711l78.452-7.62a48.9,48.9,0,0,1-9.192-22.252C391.138,431.074,403.543,419.771,395.665,403.962Z" fill="#fff"/></g><path d="M477.32,380.667V483.749c0,1.541-1.318,1.968-2.812,2.124l-51.461,6.372-.783.082a2.589,2.589,0,0,1-2.926-2.608V382.49a3.037,3.037,0,0,1,2.926-3l1.063-.031,51.646.792C476.467,380.2,477.32,379.126,477.32,380.667Z" fill="url(#k)"/><path d="M478.914,380.568V483.634a3.148,3.148,0,0,1-2.713,3.087l-52.326,5.49a2.589,2.589,0,0,1-2.925-2.609V382.389a3.036,3.036,0,0,1,2.925-3l52.326-1.543A2.67,2.67,0,0,1,478.914,380.568Z" fill="url(#l)"/><path d="M477.229,386.34v95.493a2.934,2.934,0,0,1-2.536,2.879l-49.2,5.088a2.413,2.413,0,0,1-2.721-2.434v-99.1a2.842,2.842,0,0,1,2.721-2.807l49.2-1.652A2.482,2.482,0,0,1,477.229,386.34Z" fill="#7bc245"/><path d="M471.425,428.777a21.8,21.8,0,0,1-19.95,21.524,18.552,18.552,0,0,1-20.023-18.852,21.8,21.8,0,0,1,20.023-21.53A18.556,18.556,0,0,1,471.425,428.777Z" fill="#fff"/><path d="M450.771,441.038a2.286,2.286,0,0,1-2.121-1.069l-7.528-12.146a2.61,2.61,0,0,1,.848-3.489,2.384,2.384,0,0,1,3.4.631l5.223,8.431,6.9-14.147a2.586,2.586,0,0,1,3.323-1.311,2.4,2.4,0,0,1,1.08,3.287l-8.916,18.3a2.693,2.693,0,0,1-2.118,1.507Z" fill="url(#f)"/><g opacity="0.48" style="mix-blend-mode:soft-light;isolation:isolate"><path d="M461.9,442.3c-4.775-12.005-17.645-9.169-21.655-21.3-3.273-9.9,4.007-15.706,1.157-27.172a28.57,28.57,0,0,0-9.556-14.67l-7.974.235a3.036,3.036,0,0,0-2.925,3V489.6a2.588,2.588,0,0,0,2.925,2.608L463.991,488a32.049,32.049,0,0,1-4.97-13.565C457.358,460.421,466.278,453.3,461.9,442.3Z" fill="#fff"/></g><path d="M444.686,70.991c-16.26-7.456-34.389-5.462-49.255,3.658-4.209-26.9-20.037-50.432-44.468-61.6-39.792-18.193-87.242,3.339-106.187,47.825a97.582,97.582,0,0,0-7.786,34.911,39.146,39.146,0,0,0-6.425-3.809c-21.292-10-46.777,1.463-56.981,25.531-10.185,24.022-1.7,52.531,19.795,61.8,11.516,4.965,30.039,6.511,30.039,6.511s184.2.584,189.967,1.082c23.082,2,46.578-12.125,57.336-36.773C484.2,119.234,472.5,83.747,444.686,70.991Z" fill="url(#n)"/><path d="M452.122,73.259c-16.274-7.458-34.419-5.463-49.3,3.663C398.612,50.007,382.771,26.469,358.32,15.3c-39.826-18.2-87.315,3.345-106.276,47.851a97.607,97.607,0,0,0-7.793,34.926,39.126,39.126,0,0,0-6.43-3.81c-21.31-10.007-46.815,1.465-57.028,25.544-10.193,24.033-1.349,51.676,19.811,61.822,4.489,2.152,30.064,6.511,30.064,6.511s184.358.576,190.127,1.074c23.1,2,46.617-12.133,57.385-36.792C491.673,121.52,479.962,86.019,452.122,73.259Z" fill="url(#o)"/><g opacity="0.3" style="mix-blend-mode:soft-light;isolation:isolate"><path d="M333.816,140.355c-22.684-27.547-2.094-60.087-24.9-79.665-15.482-13.292-34.712-6.572-50-10.779a98.085,98.085,0,0,0-14.669,48.163,39.126,39.126,0,0,0-6.43-3.81c-21.31-10.007-46.816,1.465-57.028,25.544-10.193,24.033-1.349,51.676,19.811,61.822,4.489,2.152,30.064,6.511,30.064,6.511s184.357.576,190.127,1.074a51.04,51.04,0,0,0,11.277-.289A104.479,104.479,0,0,0,411.235,172.6C378.1,152.926,353.044,163.705,333.816,140.355Z" fill="#fff"/></g><path d="M381.213,308.831a2.425,2.425,0,0,1-2.425-2.425v-7.274a2.424,2.424,0,1,1,4.849,0v7.274A2.425,2.425,0,0,1,381.213,308.831Zm0-18.186a2.425,2.425,0,0,1-2.425-2.425v-7.274a2.424,2.424,0,1,1,4.849,0v7.274A2.425,2.425,0,0,1,381.213,290.645Zm0-18.186a2.425,2.425,0,0,1-2.425-2.424V262.76a2.424,2.424,0,0,1,4.849,0v7.275A2.424,2.424,0,0,1,381.213,272.459Zm0-18.185a2.425,2.425,0,0,1-2.425-2.425v-7.274a2.424,2.424,0,1,1,4.849,0v7.274A2.425,2.425,0,0,1,381.213,254.274Zm0-18.186a2.425,2.425,0,0,1-2.425-2.425v-7.274a2.424,2.424,0,1,1,4.849,0v7.274A2.425,2.425,0,0,1,381.213,236.088Zm0-18.186a2.425,2.425,0,0,1-2.425-2.425V208.2a2.424,2.424,0,1,1,4.849,0v7.274A2.425,2.425,0,0,1,381.213,217.9Zm0-18.186a2.425,2.425,0,0,1-2.425-2.424v-2.425a2.424,2.424,0,1,1,4.849,0v2.425A2.424,2.424,0,0,1,381.213,199.716Z" fill="url(#p)"/><path d="M94.193,182.537a2.425,2.425,0,0,1-2.424-2.425v-3.637a2.424,2.424,0,1,1,4.849,0v3.637A2.425,2.425,0,0,1,94.193,182.537Z" fill="url(#q)"/><path d="M94.193,167.988a2.424,2.424,0,0,1-2.424-2.424v-7.275a2.424,2.424,0,0,1,4.849,0v7.275A2.424,2.424,0,0,1,94.193,167.988Zm0-18.185a2.425,2.425,0,0,1-2.424-2.425V140.1a2.424,2.424,0,1,1,4.849,0v7.274A2.425,2.425,0,0,1,94.193,149.8Zm0-18.186a2.425,2.425,0,0,1-2.424-2.425v-7.274a2.424,2.424,0,1,1,4.849,0v7.274A2.425,2.425,0,0,1,94.193,131.617Zm0-18.186a2.425,2.425,0,0,1-2.424-2.425v-7.274a2.424,2.424,0,1,1,4.849,0v7.274A2.425,2.425,0,0,1,94.193,113.431Zm0-18.186a2.424,2.424,0,0,1-2.424-2.424V85.546a2.424,2.424,0,0,1,4.849,0v7.275A2.424,2.424,0,0,1,94.193,95.245Z" fill="url(#q)"/><path d="M94.193,75.241a2.425,2.425,0,0,1-2.424-2.425V69.179a2.425,2.425,0,0,1,2.424-2.425h3.638a2.425,2.425,0,0,1,0,4.85H96.618v1.212A2.425,2.425,0,0,1,94.193,75.241Z" fill="url(#s)"/><path d="M203.308,71.6h-7.274a2.425,2.425,0,1,1,0-4.85h7.274a2.425,2.425,0,1,1,0,4.85Zm-17.58,0h-7.274a2.425,2.425,0,0,1,0-4.85h7.274a2.425,2.425,0,1,1,0,4.85Zm-17.579,0h-7.274a2.425,2.425,0,1,1,0-4.85h7.274a2.425,2.425,0,1,1,0,4.85Zm-17.58,0h-7.274a2.425,2.425,0,1,1,0-4.85h7.274a2.425,2.425,0,1,1,0,4.85Zm-17.579,0h-7.275a2.425,2.425,0,0,1,0-4.85h7.275a2.425,2.425,0,0,1,0,4.85Zm-17.58,0h-7.274a2.425,2.425,0,1,1,0-4.85h7.274a2.425,2.425,0,0,1,0,4.85Z" fill="url(#s)"/><path d="M217.25,71.6h-3.637a2.425,2.425,0,1,1,0-4.85h3.637a2.425,2.425,0,1,1,0,4.85Z" fill="url(#u)"/><path d="M35.481,463.691v9.6h.014c.589,5.8,24.833,16.442,60.046,16.639,51.775.289,69.26-11.273,70.074-17.193h.019v-8.849Z" fill="url(#v)"/><path d="M165.634,463.929c0,5.969-29.874,10.683-66.129,10.531-35.613-.149-64.024-4.954-64.024-10.734s28.411-10.5,64.024-10.535C135.76,453.152,165.634,457.959,165.634,463.929Z" fill="url(#w)"/><path d="M165.13,463.2c0,5.925-29.646,10.614-65.633,10.475-35.36-.137-63.575-4.9-63.575-10.638s28.215-10.43,63.575-10.477C135.484,452.514,165.13,457.277,165.13,463.2Z" fill="url(#x)"/><path d="M165.634,472.742v-8.849l-130.153-.2v9.6Z" fill="url(#y)"/><path d="M165.634,463.929c0,5.969-29.874,10.683-66.129,10.531-35.613-.149-64.024-4.954-64.024-10.734s28.411-10.5,64.024-10.535C135.76,453.152,165.634,457.959,165.634,463.929Z" fill="url(#w)"/><path d="M165.13,463.2c0,5.925-29.646,10.614-65.633,10.475-35.36-.137-63.575-4.9-63.575-10.638s28.215-10.43,63.575-10.477C135.484,452.514,165.13,457.277,165.13,463.2Z" fill="url(#x)"/><path d="M35.481,445.49v9.6h.014c.589,5.8,24.833,15.938,60.046,15.757,55.8-.287,69.26-10.391,70.074-16.311h.019v-8.849Z" fill="url(#ab)"/><path d="M165.634,445.727c0,5.97-29.874,10.684-66.129,10.531-35.613-.149-64.024-4.954-64.024-10.734s28.411-10.5,64.024-10.535C135.76,434.95,165.634,439.757,165.634,445.727Z" fill="url(#w)"/><path d="M165.13,445c0,5.925-29.646,10.614-65.633,10.475-35.36-.137-63.575-4.9-63.575-10.638S64.137,434.407,99.5,434.36C135.484,434.312,165.13,439.075,165.13,445Z" fill="url(#x)"/><path d="M165.634,454.54v-8.849l-130.153-.2v9.6Z" fill="url(#y)"/><path d="M165.634,445.727c0,5.97-29.874,10.684-66.129,10.531-35.613-.149-64.024-4.954-64.024-10.734s28.411-10.5,64.024-10.535C135.76,434.95,165.634,439.757,165.634,445.727Z" fill="url(#w)"/><path d="M165.13,445c0,5.925-29.646,10.614-65.633,10.475-35.36-.137-63.575-4.9-63.575-10.638S64.137,434.407,99.5,434.36C135.484,434.312,165.13,439.075,165.13,445Z" fill="url(#x)"/><path d="M35.481,427.243v9.6h.014c.589,5.8,24.833,15.938,60.046,15.757,55.8-.287,69.26-10.39,70.074-16.31h.019v-8.85Z" fill="url(#ab)"/><path d="M165.634,427.48c0,5.97-29.874,10.684-66.129,10.532-35.613-.15-64.024-4.955-64.024-10.735s28.411-10.5,64.024-10.534C135.76,416.7,165.634,421.51,165.634,427.48Z" fill="url(#ai)"/><path d="M165.13,426.754c0,5.925-29.646,10.613-65.633,10.474-35.36-.137-63.575-4.9-63.575-10.638S64.137,416.161,99.5,416.113C135.484,416.065,165.13,420.829,165.13,426.754Z" fill="url(#x)"/><path d="M165.634,436.294v-8.849l-130.153-.2v9.6Z" fill="url(#ak)"/><path d="M165.634,427.48c0,5.97-29.874,10.684-66.129,10.532-35.613-.15-64.024-4.955-64.024-10.735s28.411-10.5,64.024-10.534C135.76,416.7,165.634,421.51,165.634,427.48Z" fill="url(#ai)"/><path d="M165.13,426.754c0,5.925-29.646,10.613-65.633,10.474-35.36-.137-63.575-4.9-63.575-10.638S64.137,416.161,99.5,416.113C135.484,416.065,165.13,420.829,165.13,426.754Z" fill="url(#x)"/><path d="M35.481,409v9.6h.014c.589,5.8,24.833,15.937,60.046,15.756,55.8-.287,69.26-10.39,70.074-16.31h.019V409.2Z" fill="url(#ab)"/><path d="M165.634,409.233c0,5.97-29.874,10.684-66.129,10.532-35.613-.15-64.024-4.954-64.024-10.734S63.892,398.535,99.5,398.5C135.76,398.457,165.634,403.264,165.634,409.233Z" fill="url(#w)"/><path d="M165.13,408.507c0,5.925-29.646,10.614-65.633,10.474-35.36-.137-63.575-4.9-63.575-10.637s28.215-10.43,63.575-10.477C135.484,397.818,165.13,402.582,165.13,408.507Z" fill="url(#ap)"/><path d="M165.634,418.047V409.2L35.481,409v9.6Z" fill="url(#y)"/><path d="M165.634,409.233c0,5.97-29.874,10.684-66.129,10.532-35.613-.15-64.024-4.954-64.024-10.734S63.892,398.535,99.5,398.5C135.76,398.457,165.634,403.264,165.634,409.233Z" fill="url(#w)"/><path d="M165.13,408.507c0,5.925-29.646,10.614-65.633,10.474-35.36-.137-63.575-4.9-63.575-10.637s28.215-10.43,63.575-10.477C135.484,397.818,165.13,402.582,165.13,408.507Z" fill="url(#ap)"/><path d="M35.481,390.75v9.6h.014c.589,5.8,24.833,15.938,60.046,15.756,55.8-.286,69.26-10.39,70.074-16.31h.019v-8.849Z" fill="url(#at)"/><path d="M165.634,390.987c0,5.97-29.874,10.684-66.129,10.531-35.613-.149-64.024-4.954-64.024-10.734s28.411-10.5,64.024-10.535C135.76,380.21,165.634,385.017,165.634,390.987Z" fill="url(#w)"/><path d="M165.13,390.26c0,5.925-29.646,10.614-65.633,10.475-35.36-.137-63.575-4.9-63.575-10.638S64.137,379.667,99.5,379.62C135.484,379.572,165.13,384.335,165.13,390.26Z" fill="url(#x)"/><path d="M165.634,399.8v-8.849l-130.153-.2v9.6Z" fill="url(#ak)"/><path d="M165.634,390.987c0,5.97-29.874,10.684-66.129,10.531-35.613-.149-64.024-4.954-64.024-10.734s28.411-10.5,64.024-10.535C135.76,380.21,165.634,385.017,165.634,390.987Z" fill="url(#w)"/><path d="M165.13,390.26c0,5.925-29.646,10.614-65.633,10.475-35.36-.137-63.575-4.9-63.575-10.638S64.137,379.667,99.5,379.62C135.484,379.572,165.13,384.335,165.13,390.26Z" fill="url(#x)"/><path d="M35.481,372.5v9.6h.014c.589,5.8,24.833,15.938,60.046,15.757,55.8-.287,69.26-10.39,70.074-16.31h.019V372.7Z" fill="url(#ab)"/><path d="M165.634,372.74c0,5.97-29.874,10.684-66.129,10.532-35.613-.15-64.024-4.955-64.024-10.735S63.892,362.041,99.5,362C135.76,361.963,165.634,366.77,165.634,372.74Z" fill="url(#ai)"/><path d="M165.13,372.014c0,5.925-29.646,10.613-65.633,10.474-35.36-.137-63.575-4.9-63.575-10.638S64.137,361.421,99.5,361.373C135.484,361.325,165.13,366.089,165.13,372.014Z" fill="url(#x)"/><path d="M165.634,381.554V372.7l-130.153-.2v9.6Z" fill="url(#ak)"/><path d="M165.634,372.74c0,5.97-29.874,10.684-66.129,10.532-35.613-.15-64.024-4.955-64.024-10.735S63.892,362.041,99.5,362C135.76,361.963,165.634,366.77,165.634,372.74Z" fill="url(#ai)"/><path d="M165.13,372.014c0,5.925-29.646,10.613-65.633,10.474-35.36-.137-63.575-4.9-63.575-10.638S64.137,361.421,99.5,361.373C135.484,361.325,165.13,366.089,165.13,372.014Z" fill="url(#x)"/><path d="M165.634,354.493c0,5.97-29.874,10.684-66.129,10.532-35.613-.15-64.024-4.954-64.024-10.734S63.892,343.8,99.5,343.756C135.76,343.717,165.634,348.524,165.634,354.493Z" fill="url(#w)"/><path d="M165.13,353.767c0,5.925-29.646,10.613-65.633,10.474-35.36-.136-63.575-4.9-63.575-10.638S64.137,343.174,99.5,343.127C135.484,343.078,165.13,347.842,165.13,353.767Z" fill="url(#x)"/><path d="M35.481,464.256v9.6h.014c.589,5.8,24.833,15.937,60.046,15.756,55.8-.287,69.26-10.39,70.074-16.31h.019v-8.849Z" fill="url(#bh)"/><path d="M165.634,473.307v-8.849l-130.153-.2v9.6Z" fill="url(#bi)"/><path d="M165.634,464.493c0,5.97-29.874,10.684-66.129,10.532-35.613-.15-64.024-4.954-64.024-10.734S63.892,453.8,99.5,453.756C135.76,453.717,165.634,458.524,165.634,464.493Z" fill="url(#w)"/><path d="M165.13,463.767c0,5.925-29.646,10.613-65.633,10.474-35.36-.136-63.575-4.9-63.575-10.638S64.137,453.174,99.5,453.127C135.484,453.078,165.13,457.842,165.13,463.767Z" fill="url(#bk)"/><path d="M35.481,445.256v9.6h.014c.589,5.8,24.833,15.937,60.046,15.756,55.8-.287,69.26-10.39,70.074-16.31h.019v-8.849Z" fill="url(#bh)"/><path d="M165.634,454.307v-8.849l-130.153-.2v9.6Z" fill="url(#bi)"/><path d="M165.634,445.493c0,5.97-29.874,10.684-66.129,10.532-35.613-.15-64.024-4.954-64.024-10.734S63.892,434.8,99.5,434.756C135.76,434.717,165.634,439.524,165.634,445.493Z" fill="url(#w)"/><path d="M165.13,444.767c0,5.925-29.646,10.613-65.633,10.474-35.36-.136-63.575-4.9-63.575-10.638S64.137,434.174,99.5,434.127C135.484,434.078,165.13,438.842,165.13,444.767Z" fill="url(#bk)"/><path d="M35.481,427.256v9.6h.014c.589,5.8,24.833,15.937,60.046,15.756,55.8-.287,69.26-10.39,70.074-16.31h.019v-8.849Z" fill="url(#bh)"/><path d="M165.634,436.307v-8.849l-130.153-.2v9.6Z" fill="url(#bi)"/><path d="M165.634,427.493c0,5.97-29.874,10.684-66.129,10.532-35.613-.15-64.024-4.954-64.024-10.734S63.892,416.8,99.5,416.756C135.76,416.717,165.634,421.524,165.634,427.493Z" fill="url(#w)"/><path d="M165.13,426.767c0,5.925-29.646,10.613-65.633,10.474-35.36-.136-63.575-4.9-63.575-10.638S64.137,416.174,99.5,416.127C135.484,416.078,165.13,420.842,165.13,426.767Z" fill="url(#bk)"/><path d="M35.481,408.256v9.6h.014c.589,5.8,24.833,15.937,60.046,15.756,55.8-.287,69.26-10.39,70.074-16.31h.019v-8.849Z" fill="url(#bh)"/><path d="M165.634,417.307v-8.849l-130.153-.2v9.6Z" fill="url(#bi)"/><path d="M165.634,408.493c0,5.97-29.874,10.684-66.129,10.532-35.613-.15-64.024-4.954-64.024-10.734S63.892,397.8,99.5,397.756C135.76,397.717,165.634,402.524,165.634,408.493Z" fill="url(#w)"/><path d="M165.13,407.767c0,5.925-29.646,10.613-65.633,10.474-35.36-.136-63.575-4.9-63.575-10.638S64.137,397.174,99.5,397.127C135.484,397.078,165.13,401.842,165.13,407.767Z" fill="url(#bk)"/><path d="M35.481,390.256v9.6h.014c.589,5.8,24.833,15.937,60.046,15.756,55.8-.287,69.26-10.39,70.074-16.31h.019v-8.849Z" fill="url(#bh)"/><path d="M165.634,399.307v-8.849l-130.153-.2v9.6Z" fill="url(#bi)"/><path d="M165.634,390.493c0,5.97-29.874,10.684-66.129,10.532-35.613-.15-64.024-4.954-64.024-10.734S63.892,379.8,99.5,379.756C135.76,379.717,165.634,384.524,165.634,390.493Z" fill="url(#w)"/><path d="M165.13,389.767c0,5.925-29.646,10.613-65.633,10.474-35.36-.136-63.575-4.9-63.575-10.638S64.137,379.174,99.5,379.127C135.484,379.078,165.13,383.842,165.13,389.767Z" fill="url(#bk)"/><path d="M35.481,372.256v9.6h.014c.589,5.8,24.833,15.937,60.046,15.756,55.8-.287,69.26-10.39,70.074-16.31h.019v-8.849Z" fill="url(#bh)"/><path d="M165.634,381.307v-8.849l-130.153-.2v9.6Z" fill="url(#bi)"/><path d="M165.634,372.493c0,5.97-29.874,10.684-66.129,10.532-35.613-.15-64.024-4.954-64.024-10.734S63.892,361.8,99.5,361.756C135.76,361.717,165.634,366.524,165.634,372.493Z" fill="url(#w)"/><path d="M165.13,371.767c0,5.925-29.646,10.613-65.633,10.474-35.36-.136-63.575-4.9-63.575-10.638S64.137,361.174,99.5,361.127C135.484,361.078,165.13,365.842,165.13,371.767Z" fill="url(#bk)"/><path d="M35.481,354.256v9.6h.014c.589,5.8,24.833,15.937,60.046,15.756,55.8-.287,69.26-10.39,70.074-16.31h.019v-8.849Z" fill="url(#bh)"/><path d="M165.634,363.307v-8.849l-130.153-.2v9.6Z" fill="url(#bi)"/><path d="M165.634,354.493c0,5.97-29.874,10.684-66.129,10.532-35.613-.15-64.024-4.954-64.024-10.734S63.892,343.8,99.5,343.756C135.76,343.717,165.634,348.524,165.634,354.493Z" fill="url(#w)"/><path d="M165.13,353.767c0,5.925-29.646,10.613-65.633,10.474-35.36-.136-63.575-4.9-63.575-10.638S64.137,343.174,99.5,343.127C135.484,343.078,165.13,347.842,165.13,353.767Z" fill="url(#bk)"/><path d="M106.5,324.074l57.126-14.289,2.857,13.879-52.3,24.137L72.777,337.572,47.8,313.046Z" fill="url(#cj)"/><path d="M106.5,324.074l57.126-14.289,2.857,13.879-52.3,24.137L72.777,337.572,47.8,313.046Z" fill="url(#ck)"/><path d="M104.7,343.285a155.1,155.1,0,0,0,25.432-16.973c11.2-9.221,16.336-16.176,27.674-18.925,2.026-.491,13.571-3.29,17.3,1.837,4.124,5.676-3.894,17.545-4.868,18.987-14.486,21.44-51.372,20.439-62.942,19.744Z" fill="url(#cl)"/><path d="M175.106,309.224a7.594,7.594,0,0,0-4.844-2.707,9.181,9.181,0,0,1-.1,6.329c-2.263,5.142-8.966,3.558-13.674,9.592-4.623,5.926-1.423,11.638-5.51,14.082-4.685,2.8-10.492-3.743-15.51-.612-3.412,2.128-2.351,6.167-6.327,8.367-2.747,1.52-5.441.8-8.571.408a44.244,44.244,0,0,0-14.673.742l1.4,2.53c11.57.7,48.456,1.7,62.942-19.744C171.212,326.769,179.231,314.9,175.106,309.224Z" opacity="0.3" fill="url(#cm)" style="mix-blend-mode:multiply;isolation:isolate"/><path d="M113.288,346.489a5.883,5.883,0,0,1,5.1-.476c3.019,1.017,7.812,1.837,7.805,3.314s-4.8,2.4-8.118,1.793C114.9,350.539,112.411,347.784,113.288,346.489Z" fill="url(#cn)"/><path d="M110.24,343.969l5.556,1.787a1.922,1.922,0,0,1-.316,2.457c-1.218.954-5.45-1.063-5.45-1.063Z" fill="url(#co)"/><path d="M33.013,318.357c-1.64,9.551,18.974,19.884,23.693,22.249,9.618,4.821,27.714,11.626,54.573,9.026l1.071-6.428a127.379,127.379,0,0,1-14.907-6.193c-10.413-5.122-14.367-8.78-28.816-17.516-15.988-9.666-20.646-10.906-25.41-9.71C39.144,310.808,33.776,313.918,33.013,318.357Z" fill="url(#cp)"/><path d="M54.493,300.193c-3.485-12.6,2.267-29.607,14.388-37.806,9.893-6.692,21.485-6.258,25.1-6.123,3.96.149,3.551.663,16.014,2.969,17.3,3.2,18.9,2.425,23.935,4.838a34.627,34.627,0,0,1,14.917,14.381c4.4,8.207,7.978,23.464-.376,30.925-4.749,4.242-11.407,4.224-15.153,3.827l-.765-5.052a15.449,15.449,0,0,0,5.816-10.561c.639-7.315-4.474-12.037-5.051-12.551a49.68,49.68,0,0,0-3.867,35.847,59.314,59.314,0,0,1-22,7.01c-7.426.822-16.621,1.839-22.5-2.755-8.3-6.482-9-23.364-.8-40.936-3,2.009-7.344,5.643-9.146,11.4-.272.87-.734,2.577-.918,9.184C73.754,316.656,58.1,313.253,54.493,300.193Z" fill="#fff"/><path d="M110.667,308.918c-4.175.512-5.311,4.845-9.184,4.592-8.428-.552-15.192-15.143-11.633-23.113,2.321-5.2,8.372-6.1,7.96-9.49-.331-2.71-4.53-4.8-7.96-4.9-5.339-.158-8.865,4.491-10.1,6.123a18.375,18.375,0,0,0-3.58,10.692,23.573,23.573,0,0,1,7.981-8.618c-8.193,17.572-7.492,34.454.8,40.936,5.879,4.594,15.074,3.577,22.5,2.755a58.949,58.949,0,0,0,19.1-5.517C122.075,315.091,116.371,308.218,110.667,308.918Z" opacity="0.2" fill="url(#cl)" style="mix-blend-mode:multiply;isolation:isolate"/><path d="M125.214,320.806l-48.844-.729,12.988,6.268,35.98-2.355Z" fill="url(#cl)"/><path d="M74.646,321.375h0a2.175,2.175,0,0,0,1.431,2.043l15.607,6.118.072-4.242L76.37,320.077A1.35,1.35,0,0,0,74.646,321.375Z" fill="url(#n)"/><path d="M56.855,291.8c3.769-3.568,13.015-1.321,16.465,3.805,2.539,3.774.437,6.879,2.295,11.633,2.277,5.824,10.864,11.09,16.141,12.843-.826,1.778-.583,2.239-1.409,4.017-3.357-.419-27.622-4.136-33.558-18.544C56.48,304.8,52.813,295.621,56.855,291.8Z" fill="#fff"/><path d="M113.889,252.877s-4.428,4.789-8.1,5.287-8.988-.478-9.9,0,4.616,2.446,9,3.65,12.354,3.607,14.556,3.081-2.407-3.351-4.232-4.1S116,256.2,116,256.2Z" fill="url(#ct)"/><path d="M120.46,255.62a4.454,4.454,0,0,0,3.046-4.1,4.854,4.854,0,0,0-1.815-3.352c-1.952-1.9-5.344-3.085-7.8-1.838-1.457.74-2.122,4.1-2.27,4.678a4.534,4.534,0,0,0,.161,1.775c.1.9.242,2.322.451,4.676a11.234,11.234,0,0,1,1.607-1.079,9.858,9.858,0,0,1,2.333-.924C118.336,254.952,118.942,256.038,120.46,255.62Z" fill="url(#cu)"/><path d="M111.311,254.9a6.043,6.043,0,0,0,2.574,5.373c2.636,1.771,7.341-3.576,6.658-6.006a4,4,0,0,0-2.231-2.229c-.626-.252-.965-.173-1.979-.6-.936-.4-1.09-.655-1.478-.638-.485.021-1.168.462-1.945,2.487a1.725,1.725,0,0,0-1.092-1.6,1.087,1.087,0,0,0-.586.068C110.386,252.124,110.341,253.4,111.311,254.9Z" fill="url(#cv)"/><path d="M115,250.376c.052.184-.666.351-1.186.969a3.878,3.878,0,0,0,.283,4.77c.7.659,1.26.362,2.614,1.2a7.22,7.22,0,0,1,1.746,1.513,3.811,3.811,0,0,1-3.465,2.665,3.971,3.971,0,0,1-2.827-2.027,4.534,4.534,0,0,1-.894-3.1c.214-1.542,1.311-1.726,1.169-2.99a7.331,7.331,0,0,1-.32-2.21,4.372,4.372,0,0,1,.112-.673C113.41,250.306,114.927,250.111,115,250.376Z" fill="url(#cw)"/><path d="M117.158,258.625a3.855,3.855,0,0,1-1.657-.909c-.043-.037-.1-.062-.128-.043-.09.072.2.933.878,1.2.479.193,1.071.056,1.091-.079C117.351,258.74,117.258,258.677,117.158,258.625Z" fill="url(#cx)"/><path d="M93.051,295.532,89.608,326.88a2.957,2.957,0,0,0,2.483,2.641l50.507-3.1a1.771,1.771,0,0,0,1.661-1.469l6.34-30.277c.189-1.1-1.792-2.24-2.909-2.208l-52.929,1.488A1.772,1.772,0,0,0,93.051,295.532Z" fill="url(#n)"/><path d="M94.205,296.446l-3.442,31.348a1.77,1.77,0,0,0,1.843,1.962l51.146-2.421a1.771,1.771,0,0,0,1.662-1.469l5.225-30.415a1.771,1.771,0,0,0-1.8-2.07l-52.928,1.488A1.772,1.772,0,0,0,94.205,296.446Z" fill="url(#n)"/><path d="M124.238,319.989c-4.466-1.893-2.889-5.5-8.163-10-6.957-5.933-14.048-3.36-16.531-7.959-.773-1.432-1.142-3.661.2-7.269l-3.832.108a1.772,1.772,0,0,0-1.711,1.577l-3.442,31.348a1.771,1.771,0,0,0,1.843,1.962l51.146-2.421a1.771,1.771,0,0,0,1.662-1.469l.721-4.2a19.308,19.308,0,0,0-5.57-2.088C133.061,318.059,129.38,322.168,124.238,319.989Z" opacity="0.3" fill="url(#n)" style="mix-blend-mode:multiply;isolation:isolate"/></g></svg>