<svg xmlns="http://www.w3.org/2000/svg" xmlns:xlink="http://www.w3.org/1999/xlink" width="489.212" height="468.303" viewBox="0 0 489.212 468.303"><defs><linearGradient id="a" x1="0.411" y1="0.932" x2="0.634" y2="-0.163" gradientUnits="objectBoundingBox"><stop offset="0" stop-color="#09005d"/><stop offset="1" stop-color="#1a0f91"/></linearGradient><linearGradient id="b" x1="0.513" y1="-9.038" x2="0.5" y2="0.693" xlink:href="#a"/><linearGradient id="c" x1="0" y1="0.5" x2="1" y2="0.5" xlink:href="#a"/><linearGradient id="g" x1="0" y1="0.5" x2="1" y2="0.5" xlink:href="#a"/><linearGradient id="h" x1="0" y1="0.5" x2="1" y2="0.5" xlink:href="#a"/><linearGradient id="j" x1="2.865" y1="-0.443" x2="-0.981" y2="1.09" gradientUnits="objectBoundingBox"><stop offset="0" stop-color="#4f52ff"/><stop offset="1" stop-color="#4042e2"/></linearGradient><linearGradient id="k" x1="0.941" y1="-0.289" x2="-0.243" y2="1.244" xlink:href="#j"/><linearGradient id="n" x1="0" y1="0.5" x2="1" y2="0.5" xlink:href="#a"/><linearGradient id="p" x1="0" y1="0.5" x2="1" y2="0.5" xlink:href="#a"/><linearGradient id="r" x1="0" y1="0.5" x2="1" y2="0.5" xlink:href="#a"/><linearGradient id="x" x1="0" y1="0.5" x2="1" y2="0.5" xlink:href="#a"/><linearGradient id="aa" x1="10.088" y1="-11.029" x2="11.088" y2="-11.029" xlink:href="#a"/><linearGradient id="ab" x1="1.804" y1="-1.838" x2="2.804" y2="-1.838" xlink:href="#a"/><linearGradient id="ac" x1="2.25" y1="-1.838" x2="3.25" y2="-1.838" xlink:href="#a"/><linearGradient id="ad" x1="1.877" y1="-1.838" x2="2.877" y2="-1.838" xlink:href="#a"/><linearGradient id="ae" x1="1.744" y1="-1.805" x2="2.744" y2="-1.805" xlink:href="#a"/><linearGradient id="af" x1="2.021" y1="-2.556" x2="3.021" y2="-2.556" xlink:href="#a"/><linearGradient id="ag" x1="3.556" y1="-2.625" x2="4.556" y2="-2.625" xlink:href="#a"/><linearGradient id="ah" x1="2.017" y1="-2.556" x2="3.017" y2="-2.556" xlink:href="#a"/><linearGradient id="aq" x1="0" y1="0.5" x2="1" y2="0.5" xlink:href="#a"/><linearGradient id="av" x1="0.497" y1="0.574" x2="0.53" y2="-1.8" xlink:href="#j"/><linearGradient id="aw" x1="0.592" y1="5.396" x2="0.52" y2="1.57" xlink:href="#j"/><linearGradient id="ax" x1="-0.387" y1="-0.741" x2="0.976" y2="1.386" gradientUnits="objectBoundingBox"><stop offset="0" stop-color="#febbba"/><stop offset="1" stop-color="#ff928e"/></linearGradient><linearGradient id="ay" x1="-543.847" y1="-350.646" x2="-546.097" y2="-346.671" xlink:href="#a"/><linearGradient id="az" x1="0.68" y1="0.786" x2="1.962" y2="1.911" xlink:href="#ax"/><linearGradient id="ba" x1="-598.472" y1="-346.753" x2="-601.091" y2="-343.431" xlink:href="#a"/><linearGradient id="bb" x1="121.667" y1="119.779" x2="120.745" y2="123.862" xlink:href="#a"/><linearGradient id="bc" x1="-352.282" y1="-65.282" x2="-351.965" y2="-64.535" xlink:href="#a"/><linearGradient id="bd" x1="0" y1="0.5" x2="1" y2="0.5" xlink:href="#j"/><linearGradient id="be" x1="-104.2" y1="-128.067" x2="-101.914" y2="-130.121" xlink:href="#ax"/><linearGradient id="bf" x1="-453.231" y1="-154.761" x2="-444.63" y2="-156.194" xlink:href="#ax"/><linearGradient id="bg" x1="-401.847" y1="-471.952" x2="-394.062" y2="-473.27" xlink:href="#ax"/><linearGradient id="bh" x1="-498.726" y1="-572.126" x2="-498.218" y2="-569.893" xlink:href="#a"/><linearGradient id="bi" x1="-1645.339" y1="-1543.858" x2="-1613.517" y2="-1548.17" xlink:href="#ax"/><linearGradient id="bk" x1="0" y1="0.5" x2="1" y2="0.5" xlink:href="#a"/><linearGradient id="bs" x1="0" y1="0.5" x2="1" y2="0.5" xlink:href="#a"/><linearGradient id="bw" x1="-101.731" y1="-12.154" x2="-100.731" y2="-12.154" xlink:href="#a"/><linearGradient id="bx" x1="-25.572" y1="-16.043" x2="-24.572" y2="-16.043" xlink:href="#a"/><linearGradient id="by" x1="-28.829" y1="-16.354" x2="-27.829" y2="-16.354" xlink:href="#a"/><linearGradient id="bz" x1="-104.773" y1="-11.806" x2="-103.773" y2="-11.806" xlink:href="#a"/><linearGradient id="ca" x1="-27.263" y1="-16.045" x2="-26.263" y2="-16.045" xlink:href="#a"/><linearGradient id="cg" x1="0" y1="0.5" x2="1" y2="0.5" xlink:href="#a"/></defs><g transform="translate(-7.681 7.854)"><path d="M463.224,398.175a7.692,7.692,0,0,1-7.673,7.666H40.6a7.692,7.692,0,0,1-7.673-7.666L29.478,159.717c0-4.216,4.968-12.448,14.071-11.829L449.081,137.4a19.336,19.336,0,0,1,19.842,19.777Z" fill="url(#a)"/><path d="M455.648,390.821a7.28,7.28,0,0,1-7.259,7.259H50.611a7.281,7.281,0,0,1-7.26-7.259L40.093,174.346c.384-13.027,11.805-17.709,18.728-17.432L447.5,146.486a13.572,13.572,0,0,1,13.931,13.907Z" fill="#7bc245"/><g opacity="0.67"><path d="M47.65,287.6a.685.685,0,0,1-.685-.675l-.258-17.556a.685.685,0,1,1,1.37-.02l.258,17.556a.685.685,0,0,1-.675.7Z" fill="#fff"/><path d="M47.018,244.58a.686.686,0,0,1-.685-.675l-.987-67.238c.021-4.521,1.414-8.132,4.142-10.746,4.957-4.75,12.708-4.511,13.035-4.5l124.112-3.331a.671.671,0,0,1,.7.666.684.684,0,0,1-.666.7L62.52,162.792c-.353-.014-7.542-.234-12.084,4.119-2.449,2.347-3.7,5.627-3.72,9.749l.987,67.225a.685.685,0,0,1-.675.7Z" fill="#fff"/></g><path d="M486.41,425.636H18.157A10.507,10.507,0,0,1,7.681,415.16h0a10.507,10.507,0,0,1,10.476-10.476H486.41a10.507,10.507,0,0,1,10.476,10.476h0A10.507,10.507,0,0,1,486.41,425.636Z" fill="url(#b)"/><circle cx="38.739" cy="38.739" r="38.739" transform="translate(58.243 246.985)" fill="#91b3fa"/><circle cx="32.419" cy="32.419" r="32.419" transform="translate(64.743 252.854)" fill="#fff" opacity="0.7"/><path d="M71.447,284.294v6.814H69.38V280.474h1.6l5.541,6.98v-6.965h2.067v10.619H76.914Z" fill="url(#c)"/><path d="M84.132,291.258a4.3,4.3,0,0,1-1.722-.33,3.86,3.86,0,0,1-1.3-.891,3.928,3.928,0,0,1-.817-1.295,4.225,4.225,0,0,1-.284-1.543,4.27,4.27,0,0,1,.284-1.558,3.928,3.928,0,0,1,.817-1.295,3.874,3.874,0,0,1,1.3-.891,4.3,4.3,0,0,1,1.722-.33,4.248,4.248,0,0,1,1.715.33,3.865,3.865,0,0,1,2.1,2.186,4.27,4.27,0,0,1,.285,1.558,4.225,4.225,0,0,1-.285,1.543,3.987,3.987,0,0,1-.808,1.295,3.791,3.791,0,0,1-1.288.891A4.308,4.308,0,0,1,84.132,291.258ZM82.081,287.2a2.73,2.73,0,0,0,.157.951,2.307,2.307,0,0,0,.434.741,1.941,1.941,0,0,0,.652.487,1.986,1.986,0,0,0,1.617,0,1.951,1.951,0,0,0,.652-.487,2.311,2.311,0,0,0,.434-.749,2.786,2.786,0,0,0,.157-.958,2.754,2.754,0,0,0-.157-.944,2.317,2.317,0,0,0-.434-.748,1.951,1.951,0,0,0-.652-.487,1.91,1.91,0,0,0-.809-.172,1.852,1.852,0,0,0-.808.179,2.034,2.034,0,0,0-.652.495,2.3,2.3,0,0,0-.434.748A2.754,2.754,0,0,0,82.081,287.2Z" fill="url(#c)"/><path d="M92.833,291.258a3.544,3.544,0,0,1-2.68-1.184,4.053,4.053,0,0,1-.772-1.3,4.512,4.512,0,0,1-.277-1.6,4.7,4.7,0,0,1,.262-1.587,4.15,4.15,0,0,1,.727-1.288,3.33,3.33,0,0,1,1.108-.869,3.161,3.161,0,0,1,1.408-.315,2.97,2.97,0,0,1,1.565.42,3.041,3.041,0,0,1,1.086,1.093v-4.463h2.007V288.8a.744.744,0,0,0,.1.449.467.467,0,0,0,.36.15v1.707a4.547,4.547,0,0,1-.854.105,1.387,1.387,0,0,1-.883-.27.989.989,0,0,1-.39-.7l-.045-.494a2.848,2.848,0,0,1-1.175,1.131A3.352,3.352,0,0,1,92.833,291.258Zm.525-1.708a1.885,1.885,0,0,0,.584-.1,2.069,2.069,0,0,0,.554-.277,2.455,2.455,0,0,0,.457-.419,1.744,1.744,0,0,0,.307-.525V286.36a2.225,2.225,0,0,0-.337-.606,2.5,2.5,0,0,0-.495-.48,2.609,2.609,0,0,0-.583-.322,1.679,1.679,0,0,0-.607-.119,1.809,1.809,0,0,0-.831.194,1.973,1.973,0,0,0-.652.532,2.563,2.563,0,0,0-.419.771,2.74,2.74,0,0,0-.15.9,2.47,2.47,0,0,0,.165.913,2.363,2.363,0,0,0,.449.734,2.047,2.047,0,0,0,.682.495A2.108,2.108,0,0,0,93.358,289.55Z" fill="url(#c)"/><path d="M102.883,291.258a4.373,4.373,0,0,1-1.708-.322,3.856,3.856,0,0,1-2.134-2.164,4.133,4.133,0,0,1-.292-1.543,4.365,4.365,0,0,1,.285-1.58,3.849,3.849,0,0,1,.823-1.3,3.953,3.953,0,0,1,1.311-.891,4.356,4.356,0,0,1,1.73-.33,4.255,4.255,0,0,1,1.715.33,3.962,3.962,0,0,1,1.288.883,3.772,3.772,0,0,1,.808,1.288,4.289,4.289,0,0,1,.277,1.528c0,.13,0,.255-.007.374a1.522,1.522,0,0,1-.038.3h-6.065a2.327,2.327,0,0,0,.225.824,2.028,2.028,0,0,0,.464.614,2.007,2.007,0,0,0,.644.389,2.109,2.109,0,0,0,.749.135,2.307,2.307,0,0,0,1.13-.292,1.548,1.548,0,0,0,.727-.771l1.722.479a3.5,3.5,0,0,1-1.385,1.475A4.292,4.292,0,0,1,102.883,291.258Zm2.037-4.733a2.092,2.092,0,0,0-.652-1.415,1.988,1.988,0,0,0-1.4-.532,2.019,2.019,0,0,0-.757.142,2,2,0,0,0-.621.4,2.067,2.067,0,0,0-.442.614,2.167,2.167,0,0,0-.2.794Z" fill="url(#c)"/><path d="M108.17,291.108v-2.157h1.647v2.157Z" fill="url(#g)"/><path d="M111.24,288.936a3.124,3.124,0,0,0,.7.33,3.322,3.322,0,0,0,1.139.179,1.993,1.993,0,0,0,1-.217,1.367,1.367,0,0,0,.569-.666,3.639,3.639,0,0,0,.255-1.116q.06-.666.06-1.565v-5.407h2.066v5.407a17.491,17.491,0,0,1-.127,2.209,4.466,4.466,0,0,1-.539,1.7,2.784,2.784,0,0,1-1.191,1.093,4.723,4.723,0,0,1-2.1.39,3.974,3.974,0,0,1-2.307-.659Z" fill="url(#h)"/><path d="M121.768,291.258a6.061,6.061,0,0,1-1.932-.315,4.718,4.718,0,0,1-1.617-.9l.749-1.258a6.458,6.458,0,0,0,1.4.771,3.746,3.746,0,0,0,1.355.262,1.712,1.712,0,0,0,.944-.225.724.724,0,0,0,.344-.644.643.643,0,0,0-.4-.614,8.885,8.885,0,0,0-1.318-.449q-.764-.21-1.3-.4a3.389,3.389,0,0,1-.869-.442,1.525,1.525,0,0,1-.479-.569,1.817,1.817,0,0,1-.15-.772,2.454,2.454,0,0,1,.232-1.078,2.346,2.346,0,0,1,.652-.816,3,3,0,0,1,.981-.517,3.977,3.977,0,0,1,1.221-.18,5.239,5.239,0,0,1,1.654.255,4.031,4.031,0,0,1,1.416.824l-.809,1.213a4.675,4.675,0,0,0-1.161-.659,3.164,3.164,0,0,0-1.115-.21,1.611,1.611,0,0,0-.854.21.729.729,0,0,0-.345.674.649.649,0,0,0,.083.344.725.725,0,0,0,.262.24,2.558,2.558,0,0,0,.472.2q.291.1.726.2.809.21,1.385.42a3.769,3.769,0,0,1,.944.479,1.72,1.72,0,0,1,.539.621,1.91,1.91,0,0,1,.172.847,2.183,2.183,0,0,1-.853,1.819A3.676,3.676,0,0,1,121.768,291.258Z" fill="url(#c)"/><circle cx="60.541" cy="60.541" r="60.541" transform="translate(187.463 171.9)" fill="#91b3fa"/><circle cx="51.094" cy="51.094" r="51.094" transform="translate(196.556 182.188)" fill="#fff" opacity="0.7"/><path d="M221.824,263.389v-61.9h10.838v61.9Z" fill="url(#j)"/><path d="M264.753,263.389H253.28V211.612H241.426V201.494h35.181v10.118H264.753Z" fill="url(#k)"/><circle cx="47.94" cy="47.94" r="47.94" transform="translate(301.686 39.621)" fill="#91b3fa"/><circle cx="40.118" cy="40.118" r="40.118" transform="matrix(0.23, -0.973, 0.973, 0.23, 301.745, 116.924)" fill="#fff" opacity="0.7"/><path d="M321.418,82.319l2.876,8.043,2.845-8.043h2.172l-4.149,10.634h-1.737l-4.178-10.634Z" fill="url(#c)"/><path d="M332.92,93.1a4.3,4.3,0,0,1-1.722-.33,3.86,3.86,0,0,1-1.295-.891,3.927,3.927,0,0,1-.817-1.3,4.246,4.246,0,0,1-.284-1.543,4.291,4.291,0,0,1,.284-1.558,3.927,3.927,0,0,1,.817-1.295A3.874,3.874,0,0,1,331.2,85.3a4.3,4.3,0,0,1,1.722-.33,4.248,4.248,0,0,1,1.715.33,3.865,3.865,0,0,1,2.1,2.186,4.271,4.271,0,0,1,.285,1.558,4.226,4.226,0,0,1-.285,1.543,3.987,3.987,0,0,1-.808,1.3,3.791,3.791,0,0,1-1.288.891A4.3,4.3,0,0,1,332.92,93.1Zm-2.051-4.059a2.73,2.73,0,0,0,.157.951,2.307,2.307,0,0,0,.434.741,1.941,1.941,0,0,0,.652.487,1.986,1.986,0,0,0,1.617,0,1.951,1.951,0,0,0,.652-.487,2.317,2.317,0,0,0,.434-.748,2.8,2.8,0,0,0,.157-.959,2.744,2.744,0,0,0-.157-.943,2.312,2.312,0,0,0-.434-.749,1.951,1.951,0,0,0-.652-.487,1.91,1.91,0,0,0-.809-.172,1.852,1.852,0,0,0-.808.179,2.033,2.033,0,0,0-.652.495,2.3,2.3,0,0,0-.434.748A2.754,2.754,0,0,0,330.869,89.044Z" fill="url(#c)"/><path d="M338.357,82.02h2.007v8.417a.989.989,0,0,0,.209.674.753.753,0,0,0,.6.239,1.5,1.5,0,0,0,.4-.06,2.579,2.579,0,0,0,.412-.149l.27,1.527a3.894,3.894,0,0,1-.944.3,5.136,5.136,0,0,1-.973.1,2.01,2.01,0,0,1-1.461-.5,1.9,1.9,0,0,1-.516-1.43Z" fill="url(#n)"/><path d="M345.515,93.1a2.229,2.229,0,0,1-1.842-.779,3.612,3.612,0,0,1-.629-2.307V85.105h2.007v4.478q0,1.812,1.3,1.812a2.062,2.062,0,0,0,1.131-.352,2.529,2.529,0,0,0,.891-1.07V85.105h2.007v5.542a.705.705,0,0,0,.112.449.492.492,0,0,0,.367.15v1.707a4.241,4.241,0,0,1-.5.075c-.134.01-.257.015-.367.015a1.452,1.452,0,0,1-.876-.247.977.977,0,0,1-.4-.682l-.045-.629a3.339,3.339,0,0,1-1.348,1.213A4.049,4.049,0,0,1,345.515,93.1Z" fill="url(#c)"/><path d="M355.34,93.1a6.062,6.062,0,0,1-1.932-.315,4.732,4.732,0,0,1-1.618-.9l.749-1.258a6.463,6.463,0,0,0,1.4.771,3.746,3.746,0,0,0,1.355.262,1.714,1.714,0,0,0,.944-.225.724.724,0,0,0,.344-.644.644.644,0,0,0-.4-.614,8.882,8.882,0,0,0-1.318-.449q-.765-.21-1.3-.4a3.373,3.373,0,0,1-.869-.442,1.516,1.516,0,0,1-.479-.569,1.817,1.817,0,0,1-.15-.772,2.44,2.44,0,0,1,.232-1.078,2.346,2.346,0,0,1,.652-.816,3,3,0,0,1,.981-.517,3.975,3.975,0,0,1,1.22-.18,5.24,5.24,0,0,1,1.655.255,4.027,4.027,0,0,1,1.415.824l-.808,1.213a4.694,4.694,0,0,0-1.161-.659,3.166,3.166,0,0,0-1.116-.21,1.61,1.61,0,0,0-.853.21.729.729,0,0,0-.345.674.649.649,0,0,0,.083.344.717.717,0,0,0,.262.24,2.544,2.544,0,0,0,.471.2q.293.1.727.2.809.21,1.385.42a3.787,3.787,0,0,1,.944.479,1.719,1.719,0,0,1,.539.621,1.924,1.924,0,0,1,.172.847,2.184,2.184,0,0,1-.854,1.819A3.673,3.673,0,0,1,355.34,93.1Z" fill="url(#p)"/><path d="M359.818,84.012V82.02h2.007v1.992Zm0,8.941V85.105h2.007v7.848Z" fill="url(#n)"/><path d="M367.261,93.1a4.3,4.3,0,0,1-1.722-.33,3.874,3.874,0,0,1-1.3-.891,3.941,3.941,0,0,1-.816-1.3,4.225,4.225,0,0,1-.284-1.543,4.269,4.269,0,0,1,.284-1.558,3.941,3.941,0,0,1,.816-1.295,3.889,3.889,0,0,1,1.3-.891,4.3,4.3,0,0,1,1.722-.33,4.248,4.248,0,0,1,1.715.33,3.865,3.865,0,0,1,2.1,2.186,4.27,4.27,0,0,1,.285,1.558,4.225,4.225,0,0,1-.285,1.543,3.989,3.989,0,0,1-.809,1.3,3.772,3.772,0,0,1-1.288.891A4.3,4.3,0,0,1,367.261,93.1Zm-2.052-4.059a2.753,2.753,0,0,0,.157.951,2.309,2.309,0,0,0,.435.741,1.947,1.947,0,0,0,.651.487,1.989,1.989,0,0,0,1.618,0,1.947,1.947,0,0,0,.651-.487,2.3,2.3,0,0,0,.435-.748,2.8,2.8,0,0,0,.157-.959,2.745,2.745,0,0,0-.157-.943,2.3,2.3,0,0,0-.435-.749,1.947,1.947,0,0,0-.651-.487,1.91,1.91,0,0,0-.809-.172,1.856,1.856,0,0,0-.809.179,2.04,2.04,0,0,0-.651.495,2.3,2.3,0,0,0-.435.748A2.778,2.778,0,0,0,365.209,89.044Z" fill="url(#r)"/><path d="M380.006,92.953H378v-4.4a2.3,2.3,0,0,0-.329-1.378,1.081,1.081,0,0,0-.914-.434,1.736,1.736,0,0,0-.614.119,2.266,2.266,0,0,0-.591.337,2.74,2.74,0,0,0-.5.517,2.041,2.041,0,0,0-.33.659v4.583h-2.006V85.105h1.812v1.453a2.962,2.962,0,0,1,1.258-1.168,4.029,4.029,0,0,1,1.857-.42,2.364,2.364,0,0,1,1.2.27,1.952,1.952,0,0,1,.719.7,2.967,2.967,0,0,1,.352.988,6.478,6.478,0,0,1,.1,1.124Z" fill="url(#r)"/><circle cx="46.12" cy="46.12" r="46.12" transform="translate(76.132 323.496)" fill="#91b3fa"/><circle cx="38.595" cy="38.595" r="38.595" transform="translate(84.023 330.573)" fill="#fff" opacity="0.7"/><path d="M94.92,374.85V364.216h4.7a3.032,3.032,0,0,1,1.356.307,3.514,3.514,0,0,1,1.07.809,3.822,3.822,0,0,1,.7,1.138,3.425,3.425,0,0,1,.255,1.281,3.529,3.529,0,0,1-.517,1.879,2.961,2.961,0,0,1-1.4,1.221l2.426,4h-2.321l-2.172-3.565H96.986v3.565Zm2.066-5.377h2.591a1.093,1.093,0,0,0,.532-.135,1.359,1.359,0,0,0,.427-.367,1.822,1.822,0,0,0,.284-.546,2.119,2.119,0,0,0,.105-.674,1.918,1.918,0,0,0-.12-.689,1.8,1.8,0,0,0-.322-.547,1.454,1.454,0,0,0-.464-.359,1.206,1.206,0,0,0-.532-.128h-2.5Z" fill="url(#r)"/><path d="M108.1,375a4.347,4.347,0,0,1-1.707-.323,3.854,3.854,0,0,1-2.135-2.164,4.144,4.144,0,0,1-.292-1.542,4.364,4.364,0,0,1,.285-1.58,3.826,3.826,0,0,1,.824-1.3,3.91,3.91,0,0,1,1.31-.891,4.356,4.356,0,0,1,1.73-.33,4.252,4.252,0,0,1,1.715.33,3.946,3.946,0,0,1,1.288.883,3.757,3.757,0,0,1,.808,1.288,4.289,4.289,0,0,1,.277,1.528c0,.13,0,.254-.007.374a1.609,1.609,0,0,1-.037.3h-6.066a2.333,2.333,0,0,0,.225.824,2.013,2.013,0,0,0,1.108,1,2.113,2.113,0,0,0,.749.135,2.325,2.325,0,0,0,1.131-.292,1.548,1.548,0,0,0,.726-.772l1.722.48a3.5,3.5,0,0,1-1.385,1.475A4.3,4.3,0,0,1,108.1,375Zm2.037-4.733a2.087,2.087,0,0,0-.652-1.415,2.044,2.044,0,0,0-2.778.007,2.054,2.054,0,0,0-.442.614,2.162,2.162,0,0,0-.2.794Z" fill="url(#h)"/><path d="M115.572,375a2.971,2.971,0,0,1-1.063-.188,2.538,2.538,0,0,1-.854-.524,2.444,2.444,0,0,1-.561-.786,2.38,2.38,0,0,1-.2-.989,2.189,2.189,0,0,1,.247-1.026,2.369,2.369,0,0,1,.689-.8,3.421,3.421,0,0,1,1.056-.516,4.6,4.6,0,0,1,1.348-.188,5.8,5.8,0,0,1,1.026.09,4.188,4.188,0,0,1,.891.255v-.45a1.572,1.572,0,0,0-.442-1.2,1.837,1.837,0,0,0-1.31-.419,3.466,3.466,0,0,0-1.228.225,5.628,5.628,0,0,0-1.228.659l-.614-1.273a5.794,5.794,0,0,1,3.265-1,3.825,3.825,0,0,1,2.628.831,3.048,3.048,0,0,1,.936,2.4v2.441a.713.713,0,0,0,.112.45.488.488,0,0,0,.367.149v1.708a4.533,4.533,0,0,1-.883.1,1.334,1.334,0,0,1-.876-.255,1.089,1.089,0,0,1-.382-.674l-.045-.434a3.485,3.485,0,0,1-1.273,1.048A3.656,3.656,0,0,1,115.572,375Zm.569-1.468a2.607,2.607,0,0,0,.966-.18,1.752,1.752,0,0,0,.712-.479.723.723,0,0,0,.329-.569v-.9a4.882,4.882,0,0,0-.779-.217,4.18,4.18,0,0,0-.808-.082,2.139,2.139,0,0,0-1.273.352,1.055,1.055,0,0,0-.5.891,1.072,1.072,0,0,0,.39.846A1.415,1.415,0,0,0,116.141,373.532Z" fill="url(#p)"/><path d="M121.533,370.926a4.29,4.29,0,0,1,.284-1.558,3.813,3.813,0,0,1,.824-1.288,4,4,0,0,1,1.3-.883,4.3,4.3,0,0,1,1.722-.33,4.13,4.13,0,0,1,2.194.554,3.549,3.549,0,0,1,1.356,1.453l-1.962.6a1.773,1.773,0,0,0-.674-.666,1.884,1.884,0,0,0-.929-.233,1.906,1.906,0,0,0-.808.173,1.986,1.986,0,0,0-.652.479,2.224,2.224,0,0,0-.434.741,2.8,2.8,0,0,0-.157.959,2.676,2.676,0,0,0,.164.958,2.4,2.4,0,0,0,.442.749,1.941,1.941,0,0,0,.652.487,1.871,1.871,0,0,0,.793.172,1.928,1.928,0,0,0,1-.269,1.521,1.521,0,0,0,.637-.659l1.962.6a3.3,3.3,0,0,1-1.333,1.467,4.185,4.185,0,0,1-2.232.57,4.317,4.317,0,0,1-1.722-.33,3.9,3.9,0,0,1-2.134-2.194A4.185,4.185,0,0,1,121.533,370.926Z" fill="url(#c)"/><path d="M135.176,374.445a8.922,8.922,0,0,1-.988.36,4.146,4.146,0,0,1-1.228.18,2.877,2.877,0,0,1-.786-.1,1.719,1.719,0,0,1-.644-.337,1.652,1.652,0,0,1-.442-.6,2.169,2.169,0,0,1-.165-.892v-4.507H129.89V367h1.033v-2.546h2.007V367h1.647v1.543H132.93v3.834a.713.713,0,0,0,.217.591.829.829,0,0,0,.532.172,1.846,1.846,0,0,0,.614-.1q.3-.105.479-.18Z" fill="url(#x)"/><path d="M135.88,372.678a3.159,3.159,0,0,0,.7.33,3.343,3.343,0,0,0,1.138.179,2,2,0,0,0,1-.217,1.372,1.372,0,0,0,.569-.666,3.677,3.677,0,0,0,.254-1.116q.06-.666.06-1.565v-5.407h2.067v5.407a17.49,17.49,0,0,1-.127,2.209,4.466,4.466,0,0,1-.539,1.7,2.784,2.784,0,0,1-1.191,1.093,4.726,4.726,0,0,1-2.1.389,3.966,3.966,0,0,1-2.306-.659Z" fill="url(#c)"/><path d="M146.409,375a6.062,6.062,0,0,1-1.932-.315,4.718,4.718,0,0,1-1.618-.9l.749-1.258a6.427,6.427,0,0,0,1.4.772,3.767,3.767,0,0,0,1.355.262,1.714,1.714,0,0,0,.944-.225.724.724,0,0,0,.344-.644.644.644,0,0,0-.4-.614,8.763,8.763,0,0,0-1.318-.449q-.765-.21-1.3-.4a3.342,3.342,0,0,1-.869-.441,1.5,1.5,0,0,1-.479-.57,1.809,1.809,0,0,1-.15-.771,2.437,2.437,0,0,1,.232-1.078,2.338,2.338,0,0,1,.652-.816,3,3,0,0,1,.981-.517,3.974,3.974,0,0,1,1.22-.18,5.241,5.241,0,0,1,1.655.255,4.027,4.027,0,0,1,1.415.824l-.808,1.213a4.712,4.712,0,0,0-1.161-.659,3.17,3.17,0,0,0-1.116-.21,1.61,1.61,0,0,0-.853.21.729.729,0,0,0-.345.674.649.649,0,0,0,.082.344.729.729,0,0,0,.263.24,2.547,2.547,0,0,0,.471.2q.292.1.727.2.808.21,1.385.419a3.786,3.786,0,0,1,.944.48,1.711,1.711,0,0,1,.539.621,1.922,1.922,0,0,1,.172.846,2.184,2.184,0,0,1-.854,1.82A3.679,3.679,0,0,1,146.409,375Z" fill="url(#p)"/><ellipse cx="44.54" cy="44.54" rx="44.54" ry="44.54" transform="matrix(0.986, -0.169, 0.169, 0.986, 85.816, 74.831)" fill="#91b3fa"/><ellipse cx="38.035" cy="38.035" rx="38.035" ry="38.035" transform="translate(99.352 72.651)" fill="#fff" opacity="0.7"/><path d="M103.494,116.493v-2.156h1.647v2.156Z" fill="url(#aa)"/><path d="M109.17,109.679v6.814H107.1V105.86h1.6l5.541,6.979v-6.964h2.067v10.618h-1.677Z" fill="url(#ab)"/><path d="M125.914,114.681v1.812H118.53V105.86h7.249v1.812H120.6v2.561h4.478v1.677H120.6v2.771Z" fill="url(#ac)"/><path d="M135.484,107.672h-3.4v8.821h-2.052v-8.821h-3.4V105.86h8.851Z" fill="url(#ad)"/><path d="M139.332,111.1a5.523,5.523,0,0,1,.352-1.924,5.159,5.159,0,0,1,2.674-2.913,5.092,5.092,0,0,1,2.216-.464,4.827,4.827,0,0,1,2.539.644,4.112,4.112,0,0,1,1.595,1.677l-1.588,1.093a2.723,2.723,0,0,0-.509-.756,2.568,2.568,0,0,0-.644-.487,2.887,2.887,0,0,0-.719-.262,3.4,3.4,0,0,0-.734-.082,2.793,2.793,0,0,0-1.355.314,2.992,2.992,0,0,0-.959.817,3.592,3.592,0,0,0-.576,1.138,4.3,4.3,0,0,0-.195,1.265,4.126,4.126,0,0,0,.225,1.356,3.617,3.617,0,0,0,.636,1.145,3.167,3.167,0,0,0,.989.794,2.7,2.7,0,0,0,1.265.3,3.326,3.326,0,0,0,.749-.09,2.8,2.8,0,0,0,1.393-.786,2.314,2.314,0,0,0,.479-.742l1.693.974a3.2,3.2,0,0,1-.727,1.056,4.694,4.694,0,0,1-1.063.771,5.426,5.426,0,0,1-1.266.479,5.526,5.526,0,0,1-1.318.165,4.535,4.535,0,0,1-2.081-.479,5.43,5.43,0,0,1-1.625-1.251,5.794,5.794,0,0,1-1.064-1.752A5.48,5.48,0,0,1,139.332,111.1Z" fill="url(#ae)"/><path d="M153.68,116.643a4.3,4.3,0,0,1-1.722-.33,3.84,3.84,0,0,1-1.3-.891,3.925,3.925,0,0,1-.816-1.295,4.226,4.226,0,0,1-.285-1.543,4.27,4.27,0,0,1,.285-1.558,3.925,3.925,0,0,1,.816-1.295,3.869,3.869,0,0,1,1.3-.891,4.3,4.3,0,0,1,1.722-.33,4.252,4.252,0,0,1,1.715.33,3.865,3.865,0,0,1,2.1,2.186,4.27,4.27,0,0,1,.285,1.558,4.225,4.225,0,0,1-.285,1.543,3.989,3.989,0,0,1-.809,1.295,3.781,3.781,0,0,1-1.288.891A4.3,4.3,0,0,1,153.68,116.643Zm-2.052-4.059a2.749,2.749,0,0,0,.157.951,2.309,2.309,0,0,0,.435.741,1.937,1.937,0,0,0,.651.487,1.989,1.989,0,0,0,1.618,0,1.947,1.947,0,0,0,.651-.487,2.281,2.281,0,0,0,.434-.748,2.8,2.8,0,0,0,.158-.959,2.745,2.745,0,0,0-.158-.943,2.276,2.276,0,0,0-.434-.749,1.947,1.947,0,0,0-.651-.487,1.913,1.913,0,0,0-.809-.172,1.856,1.856,0,0,0-.809.179,2.029,2.029,0,0,0-.651.495,2.3,2.3,0,0,0-.435.749A2.768,2.768,0,0,0,151.628,112.584Z" fill="url(#af)"/><path d="M163.8,110.382a3.966,3.966,0,0,0-1.632.352,2.063,2.063,0,0,0-1.034,1.011v4.748h-2.007v-7.848h1.842v1.677a3.6,3.6,0,0,1,.495-.726,3.812,3.812,0,0,1,.614-.562,2.852,2.852,0,0,1,.666-.366,1.841,1.841,0,0,1,.652-.128h.247a.8.8,0,0,1,.157.015Z" fill="url(#ag)"/><path d="M168.177,116.643a4.364,4.364,0,0,1-1.707-.322,3.911,3.911,0,0,1-1.3-.877,3.863,3.863,0,0,1-.831-1.287,4.133,4.133,0,0,1-.292-1.543,4.364,4.364,0,0,1,.284-1.58,3.851,3.851,0,0,1,.824-1.3,3.91,3.91,0,0,1,1.31-.891,4.356,4.356,0,0,1,1.73-.33,4.248,4.248,0,0,1,1.715.33,3.936,3.936,0,0,1,1.288.883,3.775,3.775,0,0,1,.809,1.288,4.311,4.311,0,0,1,.277,1.528c0,.13,0,.255-.008.374a1.528,1.528,0,0,1-.037.3H166.17a2.327,2.327,0,0,0,.225.824,2.06,2.06,0,0,0,.464.614,2.029,2.029,0,0,0,.644.389,2.113,2.113,0,0,0,.749.135,2.325,2.325,0,0,0,1.131-.292,1.548,1.548,0,0,0,.726-.772l1.723.48a3.5,3.5,0,0,1-1.386,1.475A4.3,4.3,0,0,1,168.177,116.643Zm2.037-4.733a2.086,2.086,0,0,0-.651-1.415,2.045,2.045,0,0,0-2.779.007,2.064,2.064,0,0,0-.441.614,2.168,2.168,0,0,0-.2.794Z" fill="url(#ah)"/><circle cx="32.713" cy="32.713" r="32.713" transform="translate(235.668 339.627)" fill="#91b3fa"/><circle cx="27.376" cy="27.376" r="27.376" transform="translate(241.264 344.647)" fill="#fff" opacity="0.7"/><path d="M253.266,375.085a3.159,3.159,0,0,0,.7.33,3.346,3.346,0,0,0,1.139.179,1.993,1.993,0,0,0,1-.217,1.372,1.372,0,0,0,.569-.666,3.646,3.646,0,0,0,.255-1.116c.039-.444.06-.966.06-1.565v-5.407h2.066v5.407a17.493,17.493,0,0,1-.127,2.209,4.466,4.466,0,0,1-.539,1.7,2.784,2.784,0,0,1-1.191,1.093,4.723,4.723,0,0,1-2.1.39,3.974,3.974,0,0,1-2.307-.659Z" fill="url(#h)"/><path d="M263,377.407a2.971,2.971,0,0,1-1.063-.188,2.547,2.547,0,0,1-.854-.524,2.433,2.433,0,0,1-.561-.786,2.38,2.38,0,0,1-.2-.989,2.171,2.171,0,0,1,.247-1.025,2.341,2.341,0,0,1,.689-.8,3.427,3.427,0,0,1,1.055-.516,4.6,4.6,0,0,1,1.348-.188,5.792,5.792,0,0,1,1.026.09,4.153,4.153,0,0,1,.891.255v-.449a1.576,1.576,0,0,0-.441-1.2,1.842,1.842,0,0,0-1.311-.419,3.466,3.466,0,0,0-1.228.225,5.67,5.67,0,0,0-1.228.659l-.614-1.273a5.794,5.794,0,0,1,3.265-1,3.825,3.825,0,0,1,2.628.831,3.048,3.048,0,0,1,.936,2.4v2.441a.713.713,0,0,0,.112.45.489.489,0,0,0,.367.149v1.708a4.457,4.457,0,0,1-.883.105,1.334,1.334,0,0,1-.876-.255,1.093,1.093,0,0,1-.382-.674l-.045-.434a3.475,3.475,0,0,1-1.273,1.048A3.656,3.656,0,0,1,263,377.407Zm.569-1.468a2.607,2.607,0,0,0,.966-.18,1.752,1.752,0,0,0,.712-.479.723.723,0,0,0,.329-.569v-.9a4.892,4.892,0,0,0-.778-.217,4.2,4.2,0,0,0-.809-.082,2.141,2.141,0,0,0-1.273.352,1.054,1.054,0,0,0-.494.891,1.071,1.071,0,0,0,.389.846A1.415,1.415,0,0,0,263.57,375.939Z" fill="url(#x)"/><path d="M271.358,377.257l-2.89-7.848h2.067l1.991,6.215,2.007-6.215h1.887l-2.89,7.848Z" fill="url(#c)"/><path d="M279.416,377.407a2.967,2.967,0,0,1-1.063-.188,2.528,2.528,0,0,1-.854-.524,2.436,2.436,0,0,1-.562-.786,2.38,2.38,0,0,1-.2-.989,2.171,2.171,0,0,1,.247-1.025,2.352,2.352,0,0,1,.689-.8,3.421,3.421,0,0,1,1.056-.516,4.594,4.594,0,0,1,1.348-.188,5.809,5.809,0,0,1,1.026.09,4.187,4.187,0,0,1,.891.255v-.449a1.577,1.577,0,0,0-.442-1.2,1.839,1.839,0,0,0-1.31-.419,3.471,3.471,0,0,0-1.229.225,5.717,5.717,0,0,0-1.228.659l-.614-1.273a5.8,5.8,0,0,1,3.265-1,3.828,3.828,0,0,1,2.629.831,3.048,3.048,0,0,1,.936,2.4v2.441a.707.707,0,0,0,.112.45.488.488,0,0,0,.367.149v1.708a4.466,4.466,0,0,1-.884.105,1.337,1.337,0,0,1-.876-.255,1.093,1.093,0,0,1-.382-.674l-.045-.434a3.458,3.458,0,0,1-1.273,1.048A3.649,3.649,0,0,1,279.416,377.407Zm.569-1.468a2.615,2.615,0,0,0,.966-.18,1.755,1.755,0,0,0,.711-.479.722.722,0,0,0,.33-.569v-.9a4.935,4.935,0,0,0-.779-.217,4.19,4.19,0,0,0-.809-.082,2.143,2.143,0,0,0-1.273.352,1.056,1.056,0,0,0-.494.891,1.074,1.074,0,0,0,.389.846A1.418,1.418,0,0,0,279.985,375.939Z" fill="url(#c)"/><ellipse cx="40.293" cy="40.293" rx="40.293" ry="40.293" transform="translate(365.202 215.93)" fill="#91b3fa"/><ellipse cx="33.719" cy="33.719" rx="33.719" ry="33.719" transform="translate(372.096 222.113)" fill="#fff" opacity="0.7"/><path d="M216.27,300.891l-25.4,22.714,6.11,6.084a.751.751,0,0,1-.485,1.261L172.7,332.973a.92.92,0,0,1-.968-1.149l5.41-20.8a.7.7,0,0,1,1.206-.281l5.292,6.129,25.469-23.341a1.088,1.088,0,0,1,1.517.044l5.692,5.866A1.006,1.006,0,0,1,216.27,300.891Z" fill="#fff"/><circle cx="46.12" cy="46.12" r="46.12" transform="translate(22.531 149.72)" fill="#91b3fa"/><circle cx="38.595" cy="38.595" r="38.595" transform="translate(30.634 157.231)" fill="#fff" opacity="0.7"/><path d="M38.25,189h1.827l4.044,10.634H41.994l-.988-2.651H37.292l-.974,2.651H34.192Zm2.381,6.53-1.467-4.178-1.528,4.178Z" fill="url(#c)"/><path d="M52.388,199.636H50.381v-4.4a2.3,2.3,0,0,0-.329-1.378,1.083,1.083,0,0,0-.914-.434,1.736,1.736,0,0,0-.614.119,2.288,2.288,0,0,0-.592.337,2.767,2.767,0,0,0-.5.517,2.041,2.041,0,0,0-.33.659v4.583H45.094v-7.848h1.813v1.453a2.962,2.962,0,0,1,1.258-1.168,4.028,4.028,0,0,1,1.857-.42,2.364,2.364,0,0,1,1.2.27,1.952,1.952,0,0,1,.719.7,2.959,2.959,0,0,1,.352.988,6.475,6.475,0,0,1,.1,1.123Z" fill="url(#p)"/><path d="M57.21,199.681a3.225,3.225,0,0,1-1.437-.315,3.444,3.444,0,0,1-1.116-.861,3.89,3.89,0,0,1-.726-1.265,4.542,4.542,0,0,1-.255-1.528,4.592,4.592,0,0,1,.269-1.588,4.144,4.144,0,0,1,.749-1.288,3.418,3.418,0,0,1,1.153-.868,3.462,3.462,0,0,1,1.483-.315,3.072,3.072,0,0,1,1.6.412,3.487,3.487,0,0,1,1.138,1.1v-1.378h1.752v7.473a3.576,3.576,0,0,1-.329,1.558,3.431,3.431,0,0,1-.906,1.168,4.048,4.048,0,0,1-1.378.734,5.726,5.726,0,0,1-1.745.255,4.924,4.924,0,0,1-2.164-.427,4.392,4.392,0,0,1-1.5-1.206l1.093-1.063a3.094,3.094,0,0,0,1.131.868,3.4,3.4,0,0,0,1.445.315,3.131,3.131,0,0,0,.891-.127,2.155,2.155,0,0,0,.756-.4,1.851,1.851,0,0,0,.517-.689,2.407,2.407,0,0,0,.187-.989v-.988a2.651,2.651,0,0,1-1.093,1.041A3.218,3.218,0,0,1,57.21,199.681Zm.674-1.6a1.883,1.883,0,0,0,.629-.1,2.2,2.2,0,0,0,.555-.284,2.266,2.266,0,0,0,.449-.42,1.873,1.873,0,0,0,.3-.509v-1.872a2.429,2.429,0,0,0-.846-1.108,2.022,2.022,0,0,0-1.205-.419,1.732,1.732,0,0,0-.839.2,2.084,2.084,0,0,0-.644.539,2.442,2.442,0,0,0-.412.771,2.866,2.866,0,0,0-.142.9,2.408,2.408,0,0,0,.165.9,2.29,2.29,0,0,0,.456.734,2.153,2.153,0,0,0,.682.495A2.021,2.021,0,0,0,57.884,198.078Z" fill="url(#c)"/><path d="M66.031,199.786a2.231,2.231,0,0,1-1.842-.779,3.612,3.612,0,0,1-.629-2.307v-4.912h2.007v4.478q0,1.812,1.3,1.812A2.059,2.059,0,0,0,68,197.726a2.526,2.526,0,0,0,.891-1.071v-4.867H70.9v5.541a.707.707,0,0,0,.112.45.488.488,0,0,0,.367.149v1.708a4.239,4.239,0,0,1-.5.075c-.134.01-.257.015-.366.015a1.453,1.453,0,0,1-.877-.247.977.977,0,0,1-.4-.682l-.044-.629a3.346,3.346,0,0,1-1.348,1.213A4.057,4.057,0,0,1,66.031,199.786Z" fill="url(#c)"/><path d="M72.876,188.7h2.007v8.417a.991.991,0,0,0,.209.674.753.753,0,0,0,.6.239,1.5,1.5,0,0,0,.4-.06,2.579,2.579,0,0,0,.412-.149l.27,1.527a3.879,3.879,0,0,1-.944.3,5.136,5.136,0,0,1-.973.1,2.01,2.01,0,0,1-1.461-.5,1.9,1.9,0,0,1-.516-1.43Z" fill="url(#aq)"/><path d="M79.78,199.786a2.976,2.976,0,0,1-1.064-.188,2.533,2.533,0,0,1-.853-.524,2.436,2.436,0,0,1-.562-.786,2.38,2.38,0,0,1-.2-.989,2.17,2.17,0,0,1,.247-1.025,2.362,2.362,0,0,1,.689-.8,3.421,3.421,0,0,1,1.056-.516,4.6,4.6,0,0,1,1.348-.188,5.809,5.809,0,0,1,1.026.09,4.187,4.187,0,0,1,.891.255v-.449a1.577,1.577,0,0,0-.442-1.2,1.839,1.839,0,0,0-1.31-.419,3.471,3.471,0,0,0-1.229.225,5.718,5.718,0,0,0-1.228.659l-.614-1.273a5.8,5.8,0,0,1,3.265-1,3.828,3.828,0,0,1,2.629.831,3.048,3.048,0,0,1,.936,2.4v2.441a.707.707,0,0,0,.112.45.488.488,0,0,0,.367.149v1.708a4.467,4.467,0,0,1-.884.1,1.337,1.337,0,0,1-.876-.255,1.093,1.093,0,0,1-.382-.674l-.045-.434a3.467,3.467,0,0,1-1.273,1.048A3.648,3.648,0,0,1,79.78,199.786Zm.569-1.468a2.615,2.615,0,0,0,.966-.18,1.756,1.756,0,0,0,.711-.479.722.722,0,0,0,.33-.569v-.9a4.94,4.94,0,0,0-.779-.217,4.19,4.19,0,0,0-.809-.082,2.143,2.143,0,0,0-1.273.352,1.056,1.056,0,0,0-.494.891,1.075,1.075,0,0,0,.389.846A1.418,1.418,0,0,0,80.349,198.318Z" fill="url(#c)"/><path d="M90.907,193.525a3.966,3.966,0,0,0-1.632.352,2.066,2.066,0,0,0-1.034,1.011v4.748H86.235v-7.848h1.842v1.677a3.556,3.556,0,0,1,.494-.726,3.808,3.808,0,0,1,.614-.562,2.9,2.9,0,0,1,.666-.367,1.861,1.861,0,0,1,.652-.127h.247a.8.8,0,0,1,.157.015Z" fill="url(#x)"/><path d="M90.563,197.464a3.116,3.116,0,0,0,.7.33,3.34,3.34,0,0,0,1.138.179,1.99,1.99,0,0,0,1-.217,1.362,1.362,0,0,0,.569-.666,3.646,3.646,0,0,0,.255-1.116q.06-.666.06-1.565V189h2.067v5.407a17.481,17.481,0,0,1-.128,2.209,4.449,4.449,0,0,1-.539,1.7,2.772,2.772,0,0,1-1.191,1.093,4.723,4.723,0,0,1-2.1.39,3.974,3.974,0,0,1-2.307-.659Z" fill="url(#p)"/><path d="M101.092,199.786a6.062,6.062,0,0,1-1.932-.315,4.708,4.708,0,0,1-1.618-.9l.749-1.258a6.444,6.444,0,0,0,1.4.772,3.747,3.747,0,0,0,1.356.262,1.711,1.711,0,0,0,.943-.225.723.723,0,0,0,.345-.644.644.644,0,0,0-.4-.614,8.724,8.724,0,0,0-1.318-.449q-.764-.21-1.3-.4a3.334,3.334,0,0,1-.868-.441,1.519,1.519,0,0,1-.48-.569,1.833,1.833,0,0,1-.149-.772,2.44,2.44,0,0,1,.232-1.078,2.355,2.355,0,0,1,.651-.816,3.022,3.022,0,0,1,.981-.517,3.982,3.982,0,0,1,1.221-.18,5.245,5.245,0,0,1,1.655.255,4.027,4.027,0,0,1,1.415.824l-.809,1.213a4.689,4.689,0,0,0-1.16-.659,3.174,3.174,0,0,0-1.116-.21,1.614,1.614,0,0,0-.854.21.728.728,0,0,0-.344.674.649.649,0,0,0,.082.344.725.725,0,0,0,.262.24,2.559,2.559,0,0,0,.472.2q.292.1.726.2.809.21,1.386.419a3.778,3.778,0,0,1,.943.48,1.7,1.7,0,0,1,.539.621,1.908,1.908,0,0,1,.173.846,2.184,2.184,0,0,1-.854,1.82A3.673,3.673,0,0,1,101.092,199.786Z" fill="url(#aq)"/><path d="M182.037,222.412l-33.783-4.481-.636,8.6a.751.751,0,0,1-1.272.454l-17.029-16.731a.92.92,0,0,1,.241-1.483l19.308-9.444a.7.7,0,0,1,1,.732l-1.2,8.008,34.3,4.121a1.088,1.088,0,0,1,.954,1.18l-.743,8.139A1.006,1.006,0,0,1,182.037,222.412Z" fill="#fff"/><path d="M180.358,270.493l-17.8,5.592,2.829,7.46a.7.7,0,0,1-.89.878l-20.822-7.372a.851.851,0,0,1-.378-1.337l12.5-15.47a.647.647,0,0,1,1.124.224l2.121,7.186,18.24-5.979a.627.627,0,0,1,.776.358l2.918,7.146A.987.987,0,0,1,180.358,270.493Z" fill="#fff"/><path d="M188.923,175.53,175.63,162.44l-5.259,6a.694.694,0,0,1-1.193-.373l-3.267-21.846a.851.851,0,0,1,1-.961l19.526,3.772a.648.648,0,0,1,.331,1.1l-5.349,5.246,13.842,13.3a.628.628,0,0,1,.048.854l-4.94,5.93A.986.986,0,0,1,188.923,175.53Z" fill="#fff"/><path d="M260.321,301.2l3.187,18.383,7.768-1.817a.7.7,0,0,1,.753,1l-10.063,19.663a.852.852,0,0,1-1.376.2l-13.679-14.437a.647.647,0,0,1,.37-1.084l7.4-1.151-3.512-18.871a.627.627,0,0,1,.459-.722l7.469-1.945A.986.986,0,0,1,260.321,301.2Z" fill="#fff"/><path d="M317.491,241.047l21.362,1.794.236-9.164a.8.8,0,0,1,1.328-.547l18.938,16.9a.978.978,0,0,1-.179,1.587l-20.021,11.016a.743.743,0,0,1-1.1-.726l.869-8.565-22-1.575a.721.721,0,0,1-.669-.719l.006-8.869A1.133,1.133,0,0,1,317.491,241.047Z" fill="#fff"/><path d="M265.335,152.609l17.1-12.929-5.944-6.979a.8.8,0,0,1,.623-1.294l25.38-.071a.978.978,0,0,1,.926,1.3l-7.546,21.57a.743.743,0,0,1-1.3.193l-5.073-6.956-17.426,13.519a.722.722,0,0,1-.979-.089l-5.918-6.6A1.133,1.133,0,0,1,265.335,152.609Z" fill="#fff"/><circle cx="52.858" cy="52.858" r="52.858" transform="translate(182.809 2.5)" fill="#91b3fa"/><circle cx="44.234" cy="44.234" r="44.234" transform="translate(173.018 54.703) rotate(-45)" fill="#fff" opacity="0.7"/><ellipse cx="50.477" cy="50.477" rx="50.477" ry="50.477" transform="translate(366.643 114.438)" fill="#91b3fa"/><circle cx="42.242" cy="42.242" r="42.242" transform="translate(357.935 164.608) rotate(-45)" fill="#fff" opacity="0.7"/><path d="M314.8,194.256l20.662-5.708-2.949-8.679a.8.8,0,0,1,1.056-.973l23.616,9.3a.978.978,0,0,1,.38,1.55L342.589,207.01a.743.743,0,0,1-1.281-.3l-2.148-8.337-21.185,6.135a.722.722,0,0,1-.877-.444l-3.063-8.322A1.134,1.134,0,0,1,314.8,194.256Z" fill="#fff"/><path d="M330.334,409.783H484.292V383.025H330.334C333.629,383.025,333.629,409.783,330.334,409.783Z" fill="#91b3fa"/><path d="M484.292,403.087V390.841c0-4.316-3.043-7.816-6.8-7.816H330.983c-2.952,0-5.344-2.077-5.344-4.64a1.528,1.528,0,0,1,1.623-1.41H487.39c3.673,0,9.5,5.013,9.5,11.2v17.1c0,5.831-5.66,10.558-9.123,10.558H328.105a2.321,2.321,0,0,1-2.466-2.142c0-2.158,2.015-3.908,4.5-3.908H478.47C481.685,409.783,484.292,406.785,484.292,403.087Z" fill="url(#av)"/><path d="M480.022,388.816H335.665a.3.3,0,0,1,0-.6H480.022a.3.3,0,1,1,0,.6Z" fill="#fff"/><path d="M480.022,392.788H335.665a.3.3,0,0,1,0-.6H480.022a.3.3,0,1,1,0,.6Z" fill="#fff"/><path d="M480.022,396.759H335.665a.3.3,0,0,1,0-.6H480.022a.3.3,0,1,1,0,.6Z" fill="#fff"/><path d="M480.022,400.731H335.665a.3.3,0,0,1,0-.6H480.022a.3.3,0,1,1,0,.6Z" fill="#fff"/><path d="M480.022,404.7H335.665a.3.3,0,0,1,0-.6H480.022a.3.3,0,0,1,0,.6Z" fill="#fff"/><rect width="205.476" height="44.709" rx="3.769" transform="translate(291.369 415.548)" fill="url(#aw)"/><rect width="24.139" height="34.432" rx="4.356" transform="translate(314.591 420.686)" fill="#7d97f4"/><rect width="9.057" height="34.432" rx="3.543" transform="translate(342.28 420.686)" fill="#7d97f4"/><path d="M278.921,427.794c.074-.029,40.026-69.994,45.425-76.578a4.182,4.182,0,0,1,3.736-1.5l11.151,1.329,13.1,28.34-21.825-12.71c2.16,14.936-25.877,37.132-35.493,45.231a2.208,2.208,0,0,0-.174,3.217l3.838,4.018A44.08,44.08,0,0,1,276.9,431.527Z" fill="url(#ax)"/><path d="M296.46,416.971a5.65,5.65,0,0,1,3.279,2.973,2.5,2.5,0,0,1-.939,2.877c-4.034,2.89-17.341,12.222-23.482,14.049a.694.694,0,0,1-.869-.818c.315-1.427,1.335-4.276,4.619-8.446l-.295.6a.853.853,0,0,0,1.181,1.126C284.061,427.009,292.427,421.935,296.46,416.971Z" fill="url(#ay)"/><path d="M294.483,444.965c.067-.043,6.061-14.484,6.128-14.527,5.5-33.461,18.9-62.118,22.859-69.659a4.186,4.186,0,0,1,3.355-2.227l11.189-.955,18.565,25.1-23.945-8.031c5.137,14.19-17.827,41.6-25.605,51.479a2.208,2.208,0,0,0,.48,3.185l4.573,3.159a44.092,44.092,0,0,1-18.825,16.539Z" fill="url(#az)"/><path d="M309.468,430.817a5.653,5.653,0,0,1,3.814,2.248,2.5,2.5,0,0,1-.338,3.008c-3.366,3.647-14.509,15.478-20.153,18.51a.694.694,0,0,1-1.017-.625c.02-1.461.442-4.457,2.814-9.206l-.168.643a.854.854,0,0,0,1.385.864C299.358,443.157,306.524,436.494,309.468,430.817Z" fill="url(#ba)"/><path d="M390.391,352.31s10.122,15.055,10.952,21.923-2.8,9.243-13.393,10.119c-31.528,2.606-47.07-6.843-47.07-6.843-2.157-13.751-3.691-17.25-21.7-24.726,0,0,22.783,1.808,27.368.029S390.391,352.31,390.391,352.31Z" fill="url(#bb)"/><path d="M350.026,267.959s7.05-8.342,14.546,1.893c1.357,1.853,6.571.324,8.482,4.2a4.926,4.926,0,0,0,5.315,2.736c5.469-1.009,14.409-1.094,18.823,7.477,3.369,6.542.768,10.371-2.6,12.553a5.521,5.521,0,0,0-1.861,7.4c1.435,2.437,1.705,5.736-2,9.706-8.3,8.9-24.734-5.646-24.734-5.646l-13.048-30.833Z" fill="url(#bc)"/><path d="M363.016,350.317s-11.788-11.224-17.59-18.659a15.774,15.774,0,0,1-2.671-14.195c2.649-8.925,7.357-18.169,7.786-19.607.658-2.206,13.875-2.114,13.875-2.114s26.008,16.88,36.227,45.472l-11.476,3.573s-6.791-11.393-13.5-18.636c0,0,11.611,15.337,12.019,21.616Z" fill="url(#bd)"/><path d="M340.557,354.746l8.857-9.637,10.229,2.755s11.925,1.847,18.751,0l6.825-1.848,15.424-4.8,2.422,6.846a4.122,4.122,0,0,1-1.505,4.736,27.269,27.269,0,0,1-3.9,2.427c-2.031.888-46.79.281-46.79.281Z" fill="url(#be)"/><path d="M355.333,279.851l8.883,16.518c-.587,3.606-9.669,3.708-11.071,1.555a2.127,2.127,0,0,1-.279-.729l-5.314-11.037c-.228-1.076,2.722-4.7,3.694-5.219l3.53-1.88C356.136,278.336,350.463,278.279,355.333,279.851Z" fill="url(#bf)"/><path d="M337.355,275.974s-1,5.581,3.384,12.677,8.754,6.775,10.973,4.245,4.877-6.746,3.668-13.823S338.87,268.858,337.355,275.974Z" fill="url(#bg)"/><path d="M350.07,279.842s-7.1-9.329-12.556-1.2l.092,2.809s-7.091-.331-6.322-6.867,6.558-11,14.584-8.768,12.715,4.776,13.622,10.349-3.644,4.661-3.644,4.661-1.738-3.844-3.837-4.107-1.34,2.779-1.34,2.779Z" fill="url(#bh)"/><path d="M351.7,279.594s-3.679-4.775-.33-5.766,3.224,4.679,3.005,6.788Z" fill="url(#bi)"/><path d="M369.875,358.56l-.094,0-40.738-.044a1.824,1.824,0,1,1,0-3.647l40.738.044a1.824,1.824,0,0,1,.09,3.645Z" fill="#7d97f4"/><path d="M292.42,321.572h33.928a6.464,6.464,0,0,1,5.848,3.708l15.685,33.258H305.718a3.93,3.93,0,0,1-3.655-2.485L289.9,325.277A2.71,2.71,0,0,1,292.42,321.572Z" fill="#7d97f4"/><path d="M316.323,338.624c.735,2.284.192,4.5-1.214,4.955s-3.14-1.033-3.875-3.317-.192-4.5,1.213-4.955S315.587,336.34,316.323,338.624Z" fill="#91b3fa"/><path d="M208.972,52.584V45.545l-2.741,5.242h-1.123l-2.741-5.242v7.039H200.3V41.951h2.216L205.662,48l3.175-6.051h2.2V52.584Z" fill="url(#c)"/><path d="M213.061,43.643V41.651h2.006v1.992Zm0,8.941V44.737h2.006v7.847Z" fill="url(#bk)"/><path d="M216.385,48.66a4.261,4.261,0,0,1,.285-1.557,3.785,3.785,0,0,1,.823-1.288,4.031,4.031,0,0,1,1.3-.884,4.325,4.325,0,0,1,1.723-.329,4.133,4.133,0,0,1,2.194.554,3.534,3.534,0,0,1,1.355,1.453l-1.962.6a1.761,1.761,0,0,0-.674-.667,1.891,1.891,0,0,0-.928-.232,1.922,1.922,0,0,0-.809.172,1.989,1.989,0,0,0-.652.48,2.221,2.221,0,0,0-.434.741,2.8,2.8,0,0,0-.157.958,2.678,2.678,0,0,0,.165.959,2.411,2.411,0,0,0,.441.749,1.954,1.954,0,0,0,.652.487,1.887,1.887,0,0,0,.794.172,1.925,1.925,0,0,0,1-.27,1.518,1.518,0,0,0,.636-.659l1.962.6a3.294,3.294,0,0,1-1.333,1.468,4.183,4.183,0,0,1-2.231.569,4.325,4.325,0,0,1-1.723-.329,3.907,3.907,0,0,1-2.134-2.194A4.19,4.19,0,0,1,216.385,48.66Z" fill="url(#c)"/><path d="M230,46.474a3.959,3.959,0,0,0-1.633.352,2.057,2.057,0,0,0-1.033,1.011v4.747h-2.007V44.737h1.842v1.677a3.582,3.582,0,0,1,.494-.726,3.814,3.814,0,0,1,.615-.562,2.821,2.821,0,0,1,.666-.367,1.838,1.838,0,0,1,.651-.127h.248a.8.8,0,0,1,.157.015Z" fill="url(#c)"/><path d="M234.357,52.734a4.317,4.317,0,0,1-1.722-.329,3.877,3.877,0,0,1-1.3-.892,3.941,3.941,0,0,1-.816-1.3,4.372,4.372,0,0,1,0-3.1,3.956,3.956,0,0,1,.816-1.3,3.889,3.889,0,0,1,1.3-.891,4.317,4.317,0,0,1,1.722-.329,4.265,4.265,0,0,1,1.715.329,3.906,3.906,0,0,1,1.288.891,3.956,3.956,0,0,1,.816,1.3,4.357,4.357,0,0,1,0,3.1,3.989,3.989,0,0,1-.809,1.3,3.774,3.774,0,0,1-1.288.892A4.317,4.317,0,0,1,234.357,52.734ZM232.3,48.675a2.726,2.726,0,0,0,.158.951,2.323,2.323,0,0,0,.434.742,1.96,1.96,0,0,0,.651.487,1.989,1.989,0,0,0,1.618,0,1.951,1.951,0,0,0,.651-.487,2.306,2.306,0,0,0,.435-.749,2.792,2.792,0,0,0,.157-.959,2.749,2.749,0,0,0-.157-.943,2.306,2.306,0,0,0-.435-.749,1.91,1.91,0,0,0-1.46-.659,1.843,1.843,0,0,0-.809.18,2.037,2.037,0,0,0-.651.494,2.3,2.3,0,0,0-.434.749A2.749,2.749,0,0,0,232.3,48.675Z" fill="url(#c)"/><path d="M242.774,52.734a6.089,6.089,0,0,1-1.932-.314,4.734,4.734,0,0,1-1.618-.9l.749-1.258a6.421,6.421,0,0,0,1.4.771,3.746,3.746,0,0,0,1.355.262,1.717,1.717,0,0,0,.943-.224.724.724,0,0,0,.345-.644.644.644,0,0,0-.4-.614,8.743,8.743,0,0,0-1.318-.45q-.765-.208-1.3-.4a3.325,3.325,0,0,1-.869-.442,1.5,1.5,0,0,1-.479-.569,1.816,1.816,0,0,1-.15-.771,2.444,2.444,0,0,1,.232-1.079,2.355,2.355,0,0,1,.652-.816,3,3,0,0,1,.981-.516,3.975,3.975,0,0,1,1.22-.18,5.269,5.269,0,0,1,1.655.254,4.042,4.042,0,0,1,1.415.824l-.808,1.213a4.744,4.744,0,0,0-1.161-.659,3.191,3.191,0,0,0-1.116-.209,1.619,1.619,0,0,0-.853.209.73.73,0,0,0-.345.674.653.653,0,0,0,.082.345.718.718,0,0,0,.263.239,2.54,2.54,0,0,0,.471.2q.292.1.727.2.809.21,1.385.419a3.822,3.822,0,0,1,.944.479,1.714,1.714,0,0,1,.539.622,1.919,1.919,0,0,1,.172.846,2.184,2.184,0,0,1-.854,1.82A3.679,3.679,0,0,1,242.774,52.734Z" fill="url(#p)"/><path d="M250.876,52.734a4.317,4.317,0,0,1-1.722-.329,3.877,3.877,0,0,1-1.3-.892,3.941,3.941,0,0,1-.816-1.3,4.371,4.371,0,0,1,0-3.1,3.956,3.956,0,0,1,.816-1.3,3.889,3.889,0,0,1,1.3-.891,4.317,4.317,0,0,1,1.722-.329,4.265,4.265,0,0,1,1.715.329,3.906,3.906,0,0,1,1.288.891,3.956,3.956,0,0,1,.816,1.3,4.357,4.357,0,0,1,0,3.1,3.989,3.989,0,0,1-.809,1.3,3.774,3.774,0,0,1-1.288.892A4.317,4.317,0,0,1,250.876,52.734Zm-2.052-4.059a2.726,2.726,0,0,0,.158.951,2.3,2.3,0,0,0,.434.742,1.96,1.96,0,0,0,.651.487,1.989,1.989,0,0,0,1.618,0,1.96,1.96,0,0,0,.651-.487,2.306,2.306,0,0,0,.435-.749,2.792,2.792,0,0,0,.157-.959,2.748,2.748,0,0,0-.157-.943,2.306,2.306,0,0,0-.435-.749,1.947,1.947,0,0,0-.651-.487,1.925,1.925,0,0,0-.809-.172,1.843,1.843,0,0,0-.809.18,2.037,2.037,0,0,0-.651.494,2.286,2.286,0,0,0-.434.749A2.749,2.749,0,0,0,248.824,48.675Z" fill="url(#r)"/><path d="M256.687,52.584v-5.9h-1.033V45.156h1.033v-.479a3.537,3.537,0,0,1,.7-2.322,2.352,2.352,0,0,1,1.917-.853,4.452,4.452,0,0,1,1.932.464l-.4,1.513a2.537,2.537,0,0,0-.532-.2,2.224,2.224,0,0,0-.562-.082q-1.049,0-1.048,1.408v.554h1.917v1.527h-1.917v5.9Z" fill="url(#r)"/><path d="M266.452,52.18a8.762,8.762,0,0,1-.989.359,4.146,4.146,0,0,1-1.228.18,2.844,2.844,0,0,1-.786-.105,1.712,1.712,0,0,1-.644-.337,1.635,1.635,0,0,1-.442-.6,2.161,2.161,0,0,1-.165-.891V46.279h-1.033V44.737H262.2V42.191H264.2v2.546h1.648v1.542H264.2v3.834a.713.713,0,0,0,.217.592.828.828,0,0,0,.532.172,1.843,1.843,0,0,0,.614-.1c.2-.07.359-.13.479-.18Z" fill="url(#aq)"/><path d="M217.381,69.216V67.059h1.648v2.157Z" fill="url(#bs)"/><path d="M223.057,62.4v6.814H220.99V58.582h1.6l5.541,6.98V58.6H230.2V69.216h-1.677Z" fill="url(#c)"/><path d="M239.8,67.4v1.812h-7.384V58.582h7.249V60.4h-5.182v2.561h4.478v1.677h-4.478V67.4Z" fill="url(#p)"/><path d="M249.371,60.4h-3.4v8.821h-2.052V60.4h-3.4V58.582h8.851Z" fill="url(#c)"/><circle cx="38.739" cy="38.739" r="38.739" transform="translate(163.986 382.97)" fill="#91b3fa"/><circle cx="32.419" cy="32.419" r="32.419" transform="translate(169.999 388.915)" fill="#fff" opacity="0.7"/><path d="M186.355,427.154V416.521h2.066v10.633Z" fill="url(#bw)"/><path d="M193.963,427.3a4.3,4.3,0,0,1-1.722-.33,3.86,3.86,0,0,1-1.3-.891,3.941,3.941,0,0,1-.816-1.3,4.357,4.357,0,0,1,0-3.1,3.956,3.956,0,0,1,.816-1.3,3.889,3.889,0,0,1,1.3-.891,4.317,4.317,0,0,1,1.722-.33,4.248,4.248,0,0,1,1.715.33,3.865,3.865,0,0,1,2.1,2.186,4.36,4.36,0,0,1,0,3.1,3.986,3.986,0,0,1-.808,1.3,3.791,3.791,0,0,1-1.288.891A4.308,4.308,0,0,1,193.963,427.3Zm-2.052-4.059a2.726,2.726,0,0,0,.158.951,2.322,2.322,0,0,0,.434.742,1.944,1.944,0,0,0,.651.486,1.978,1.978,0,0,0,1.618,0,1.948,1.948,0,0,0,.651-.487,2.3,2.3,0,0,0,.435-.748,2.82,2.82,0,0,0,.157-.959,2.768,2.768,0,0,0-.157-.943,2.3,2.3,0,0,0-.435-.749,1.947,1.947,0,0,0-.651-.487,1.91,1.91,0,0,0-.809-.172,1.856,1.856,0,0,0-.809.179,2.04,2.04,0,0,0-.651.495,2.293,2.293,0,0,0-.434.749A2.745,2.745,0,0,0,191.911,423.245Z" fill="url(#bx)"/><path d="M206.708,427.154H204.7v-4.4a2.3,2.3,0,0,0-.329-1.378,1.082,1.082,0,0,0-.914-.435,1.716,1.716,0,0,0-.614.12,2.288,2.288,0,0,0-.592.337,2.736,2.736,0,0,0-.5.517,2.041,2.041,0,0,0-.33.659v4.583h-2.007v-7.848h1.813v1.453a2.962,2.962,0,0,1,1.258-1.168,4.028,4.028,0,0,1,1.857-.42,2.363,2.363,0,0,1,1.2.27,1.944,1.944,0,0,1,.719.7,2.981,2.981,0,0,1,.352.988,6.466,6.466,0,0,1,.1,1.123Z" fill="url(#by)"/><path d="M208.46,418.212v-1.991h2.007v1.991Zm0,8.942v-7.848h2.007v7.848Z" fill="url(#bz)"/><path d="M211.785,423.229a4.285,4.285,0,0,1,.284-1.557,3.8,3.8,0,0,1,.824-1.288,4.02,4.02,0,0,1,1.3-.884,4.317,4.317,0,0,1,1.722-.329,4.13,4.13,0,0,1,2.194.554,3.537,3.537,0,0,1,1.356,1.453l-1.962.6a1.769,1.769,0,0,0-.674-.667,1.884,1.884,0,0,0-.929-.232,1.921,1.921,0,0,0-.808.172,1.99,1.99,0,0,0-.652.48,2.2,2.2,0,0,0-.434.741,2.8,2.8,0,0,0-.157.958,2.677,2.677,0,0,0,.164.959,2.414,2.414,0,0,0,.442.749,1.955,1.955,0,0,0,.652.487,1.886,1.886,0,0,0,.793.172,1.925,1.925,0,0,0,1-.27,1.518,1.518,0,0,0,.636-.659l1.962.6a3.3,3.3,0,0,1-1.333,1.468,4.184,4.184,0,0,1-2.232.569,4.317,4.317,0,0,1-1.722-.329,3.907,3.907,0,0,1-2.134-2.194A4.19,4.19,0,0,1,211.785,423.229Z" fill="url(#ca)"/><path d="M229.825,341.4l-3.738,18.278,7.9,1.142a.694.694,0,0,1,.337,1.2l-16.542,14.638a.851.851,0,0,1-1.353-.318l-7.471-18.431a.648.648,0,0,1,.741-.875l7.313,1.629,3.613-18.852a.628.628,0,0,1,.691-.505l7.664.913A.986.986,0,0,1,229.825,341.4Z" fill="#fff"/><path d="M378.338,250.981l2.651,3.954,2.636-3.954h2.232l-3.789,5.392,3.669,5.241h-2.232l-2.516-3.8-2.531,3.8h-2.246l3.669-5.241-3.789-5.392Z" fill="url(#c)"/><path d="M388.867,261.764a2.967,2.967,0,0,1-1.063-.187,2.569,2.569,0,0,1-.854-.524,2.447,2.447,0,0,1-.562-.786,2.4,2.4,0,0,1-.2-.989,2.189,2.189,0,0,1,.247-1.026,2.368,2.368,0,0,1,.689-.8,3.422,3.422,0,0,1,1.056-.517,4.6,4.6,0,0,1,1.348-.187,5.809,5.809,0,0,1,1.026.09,4.247,4.247,0,0,1,.891.254v-.449a1.572,1.572,0,0,0-.442-1.2,1.837,1.837,0,0,0-1.31-.419,3.483,3.483,0,0,0-1.228.224,5.715,5.715,0,0,0-1.228.659l-.615-1.273a5.8,5.8,0,0,1,3.265-1,3.826,3.826,0,0,1,2.629.831,3.045,3.045,0,0,1,.936,2.4v2.441a.7.7,0,0,0,.112.449.492.492,0,0,0,.367.15v1.707a4.458,4.458,0,0,1-.883.1,1.344,1.344,0,0,1-.877-.254,1.1,1.1,0,0,1-.382-.674l-.044-.435a3.478,3.478,0,0,1-1.273,1.049A3.669,3.669,0,0,1,388.867,261.764Zm.569-1.468a2.614,2.614,0,0,0,.966-.179,1.743,1.743,0,0,0,.711-.48.719.719,0,0,0,.33-.569v-.9a4.9,4.9,0,0,0-.779-.217,4.186,4.186,0,0,0-.809-.083,2.15,2.15,0,0,0-1.273.352,1.059,1.059,0,0,0-.494.891,1.073,1.073,0,0,0,.39.847A1.414,1.414,0,0,0,389.436,260.3Z" fill="url(#c)"/><path d="M407.513,261.614h-2.007v-4.4a2.342,2.342,0,0,0-.322-1.378,1.049,1.049,0,0,0-.891-.434,1.683,1.683,0,0,0-1.123.457,2.513,2.513,0,0,0-.749,1.191v4.567h-2.007v-4.4a2.342,2.342,0,0,0-.322-1.378,1.049,1.049,0,0,0-.891-.434,1.709,1.709,0,0,0-1.116.449,2.439,2.439,0,0,0-.756,1.184v4.582h-2.007v-7.847h1.812v1.452a2.985,2.985,0,0,1,1.191-1.175,3.55,3.55,0,0,1,1.729-.412,2.226,2.226,0,0,1,1.528.479,2.147,2.147,0,0,1,.689,1.183,3.384,3.384,0,0,1,1.213-1.235,3.268,3.268,0,0,1,1.677-.427,2.342,2.342,0,0,1,1.184.269,1.949,1.949,0,0,1,.718.7,2.95,2.95,0,0,1,.352.989,6.467,6.467,0,0,1,.1,1.123Z" fill="url(#c)"/><path d="M411.407,261.764a2.976,2.976,0,0,1-1.064-.187,2.565,2.565,0,0,1-.853-.524,2.447,2.447,0,0,1-.562-.786,2.383,2.383,0,0,1-.2-.989,2.177,2.177,0,0,1,.247-1.026,2.358,2.358,0,0,1,.689-.8,3.4,3.4,0,0,1,1.056-.517,4.6,4.6,0,0,1,1.348-.187,5.809,5.809,0,0,1,1.026.09,4.248,4.248,0,0,1,.891.254v-.449a1.576,1.576,0,0,0-.442-1.2,1.842,1.842,0,0,0-1.311-.419,3.491,3.491,0,0,0-1.228.224,5.762,5.762,0,0,0-1.228.659l-.614-1.273a5.8,5.8,0,0,1,3.265-1,3.83,3.83,0,0,1,2.629.831,3.049,3.049,0,0,1,.936,2.4v2.441a.7.7,0,0,0,.112.449.492.492,0,0,0,.367.15v1.707a4.468,4.468,0,0,1-.884.1,1.343,1.343,0,0,1-.876-.254,1.1,1.1,0,0,1-.382-.674l-.045-.435a3.469,3.469,0,0,1-1.273,1.049A3.661,3.661,0,0,1,411.407,261.764Zm.569-1.468a2.614,2.614,0,0,0,.966-.179,1.757,1.757,0,0,0,.711-.48.719.719,0,0,0,.33-.569v-.9a4.935,4.935,0,0,0-.779-.217,4.194,4.194,0,0,0-.809-.083,2.15,2.15,0,0,0-1.273.352,1.059,1.059,0,0,0-.494.891,1.075,1.075,0,0,0,.389.847A1.417,1.417,0,0,0,411.976,260.3Z" fill="url(#c)"/><path d="M422.534,255.5a3.95,3.95,0,0,0-1.632.352,2.066,2.066,0,0,0-1.034,1.011v4.747h-2.006v-7.847H419.7v1.677a3.528,3.528,0,0,1,.494-.726,3.766,3.766,0,0,1,.614-.562,2.84,2.84,0,0,1,.666-.367,1.838,1.838,0,0,1,.652-.127h.247a.8.8,0,0,1,.157.015Z" fill="url(#x)"/><path d="M423.657,252.673v-1.991h2.007v1.991Zm0,8.941v-7.847h2.007v7.847Z" fill="url(#cg)"/><path d="M434.77,261.614h-2.007v-4.4a2.293,2.293,0,0,0-.33-1.378,1.082,1.082,0,0,0-.913-.434,1.716,1.716,0,0,0-.614.12,2.259,2.259,0,0,0-.592.337,2.707,2.707,0,0,0-.5.517,2.031,2.031,0,0,0-.33.659v4.582h-2.007v-7.847h1.812v1.452a2.98,2.98,0,0,1,1.258-1.168,4.045,4.045,0,0,1,1.858-.419,2.374,2.374,0,0,1,1.2.269,1.96,1.96,0,0,1,.719.7,2.972,2.972,0,0,1,.351.989,6.467,6.467,0,0,1,.1,1.123Z" fill="url(#c)"/><path d="M411.4,159.143h-1.945v-4.267a2.223,2.223,0,0,0-.319-1.335,1.048,1.048,0,0,0-.885-.421,1.671,1.671,0,0,0-.6.116,2.179,2.179,0,0,0-.574.327,2.654,2.654,0,0,0-.486.5,1.976,1.976,0,0,0-.319.639v4.441h-1.945v-7.605h1.756v1.408a2.883,2.883,0,0,1,1.219-1.132,3.909,3.909,0,0,1,1.8-.407,2.283,2.283,0,0,1,1.161.262,1.887,1.887,0,0,1,.7.682,2.862,2.862,0,0,1,.341.958,6.269,6.269,0,0,1,.094,1.088Z" fill="url(#c)"/><path d="M416.612,159.289a4.168,4.168,0,0,1-1.669-.32,3.749,3.749,0,0,1-1.256-.863,3.827,3.827,0,0,1-.791-1.256,4.225,4.225,0,0,1,0-3,3.827,3.827,0,0,1,.791-1.256,3.749,3.749,0,0,1,1.256-.863,4.168,4.168,0,0,1,1.669-.32,4.123,4.123,0,0,1,1.662.32,3.776,3.776,0,0,1,1.248.863,3.828,3.828,0,0,1,.791,1.256,4.225,4.225,0,0,1,0,3,3.876,3.876,0,0,1-.784,1.256,3.676,3.676,0,0,1-1.248.863A4.175,4.175,0,0,1,416.612,159.289Zm-1.989-3.934a2.642,2.642,0,0,0,.153.922,2.235,2.235,0,0,0,.421.718,1.879,1.879,0,0,0,.631.472,1.924,1.924,0,0,0,1.568,0,1.889,1.889,0,0,0,.631-.472,2.244,2.244,0,0,0,.421-.725,2.726,2.726,0,0,0,.152-.929,2.686,2.686,0,0,0-.152-.915,2.244,2.244,0,0,0-.421-.725,1.853,1.853,0,0,0-1.415-.639,1.789,1.789,0,0,0-.784.174,1.969,1.969,0,0,0-.631.479,2.221,2.221,0,0,0-.421.726A2.657,2.657,0,0,0,414.623,155.355Z" fill="url(#c)"/><path d="M426.452,159.289a3,3,0,0,1-1.567-.4,2.833,2.833,0,0,1-1.045-1.081v4.427h-1.945v-10.7h1.7v1.306a3.088,3.088,0,0,1,1.089-1.052,3.027,3.027,0,0,1,1.538-.385,3.253,3.253,0,0,1,1.422.312,3.529,3.529,0,0,1,1.125.842,3.924,3.924,0,0,1,.741,1.248,4.3,4.3,0,0,1,.268,1.517,4.778,4.778,0,0,1-.247,1.553,3.965,3.965,0,0,1-.689,1.263,3.214,3.214,0,0,1-1.052.842A2.95,2.95,0,0,1,426.452,159.289Zm-.653-1.655a1.749,1.749,0,0,0,.806-.189,1.945,1.945,0,0,0,.631-.508,2.367,2.367,0,0,0,.406-.74,2.649,2.649,0,0,0,.146-.871,2.462,2.462,0,0,0-.16-.892,2.219,2.219,0,0,0-.443-.719,2.058,2.058,0,0,0-.667-.479,2,2,0,0,0-.835-.174,1.819,1.819,0,0,0-.566.094,1.988,1.988,0,0,0-.537.269,2.371,2.371,0,0,0-.443.406,1.685,1.685,0,0,0-.3.508v1.785a2.585,2.585,0,0,0,.8,1.082A1.828,1.828,0,0,0,425.8,157.634Z" fill="url(#c)"/><path d="M379.791,168.9a5.344,5.344,0,0,1,.341-1.865,5.011,5.011,0,0,1,2.591-2.823,4.93,4.93,0,0,1,2.148-.45,4.685,4.685,0,0,1,2.46.624,3.986,3.986,0,0,1,1.546,1.626l-1.538,1.059a2.647,2.647,0,0,0-.494-.733,2.5,2.5,0,0,0-.624-.472,2.845,2.845,0,0,0-.7-.254,3.317,3.317,0,0,0-.711-.079,2.7,2.7,0,0,0-1.313.3,2.879,2.879,0,0,0-.929.792,3.477,3.477,0,0,0-.559,1.1,4.166,4.166,0,0,0-.189,1.226,4.007,4.007,0,0,0,.218,1.314,3.5,3.5,0,0,0,.617,1.11,3.076,3.076,0,0,0,.958.769,2.611,2.611,0,0,0,1.226.29,3.236,3.236,0,0,0,.726-.087,2.783,2.783,0,0,0,.718-.275,2.715,2.715,0,0,0,.632-.487,2.24,2.24,0,0,0,.464-.718l1.64.943a3.09,3.09,0,0,1-.7,1.024,4.531,4.531,0,0,1-1.03.747,5.308,5.308,0,0,1-1.227.465,5.385,5.385,0,0,1-1.277.159,4.4,4.4,0,0,1-2.017-.464,5.258,5.258,0,0,1-1.575-1.212,5.62,5.62,0,0,1-1.031-1.7A5.318,5.318,0,0,1,379.791,168.9Z" fill="url(#c)"/><path d="M393.7,174.267a4.168,4.168,0,0,1-1.669-.319,3.741,3.741,0,0,1-1.256-.864,3.807,3.807,0,0,1-.791-1.255,4.1,4.1,0,0,1-.276-1.495,4.142,4.142,0,0,1,.276-1.51,3.807,3.807,0,0,1,.791-1.255,3.741,3.741,0,0,1,1.256-.864,4.185,4.185,0,0,1,1.669-.319,4.132,4.132,0,0,1,1.661.319,3.772,3.772,0,0,1,1.249.864,3.823,3.823,0,0,1,.791,1.255,4.163,4.163,0,0,1,.276,1.51,4.119,4.119,0,0,1-.276,1.495,3.872,3.872,0,0,1-.784,1.255,3.678,3.678,0,0,1-1.248.864A4.174,4.174,0,0,1,393.7,174.267Zm-1.989-3.933a2.642,2.642,0,0,0,.153.922,2.227,2.227,0,0,0,.421.718,1.9,1.9,0,0,0,2.2.472,1.888,1.888,0,0,0,.631-.472,2.239,2.239,0,0,0,.421-.726,2.723,2.723,0,0,0,.152-.929,2.685,2.685,0,0,0-.152-.914,2.239,2.239,0,0,0-.421-.726,1.886,1.886,0,0,0-.631-.471,1.848,1.848,0,0,0-.784-.167,1.789,1.789,0,0,0-.784.174,1.958,1.958,0,0,0-.631.479,2.209,2.209,0,0,0-.421.725A2.663,2.663,0,0,0,391.707,170.334Z" fill="url(#aq)"/><path d="M410.793,174.122h-1.945v-4.267a2.26,2.26,0,0,0-.312-1.335,1.014,1.014,0,0,0-.863-.421,1.632,1.632,0,0,0-1.089.442,2.447,2.447,0,0,0-.726,1.154v4.427h-1.944v-4.267a2.252,2.252,0,0,0-.313-1.335,1.013,1.013,0,0,0-.863-.421,1.656,1.656,0,0,0-1.081.435,2.364,2.364,0,0,0-.733,1.147v4.441h-1.945v-7.6h1.756v1.408a2.9,2.9,0,0,1,1.154-1.14,3.446,3.446,0,0,1,1.676-.4,2.16,2.16,0,0,1,1.481.464,2.073,2.073,0,0,1,.667,1.147,3.288,3.288,0,0,1,1.176-1.2,3.171,3.171,0,0,1,1.626-.414,2.26,2.26,0,0,1,1.146.261,1.894,1.894,0,0,1,.7.682,2.878,2.878,0,0,1,.341.958,6.272,6.272,0,0,1,.094,1.089Z" fill="url(#c)"/><path d="M424.306,174.122h-1.945v-4.267a2.26,2.26,0,0,0-.312-1.335,1.014,1.014,0,0,0-.864-.421,1.63,1.63,0,0,0-1.088.442,2.439,2.439,0,0,0-.726,1.154v4.427h-1.945v-4.267a2.26,2.26,0,0,0-.312-1.335,1.014,1.014,0,0,0-.863-.421,1.658,1.658,0,0,0-1.082.435,2.378,2.378,0,0,0-.733,1.147v4.441h-1.945v-7.6h1.757v1.408a2.9,2.9,0,0,1,1.154-1.14,3.446,3.446,0,0,1,1.676-.4,2.156,2.156,0,0,1,1.48.464,2.075,2.075,0,0,1,.668,1.147,3.28,3.28,0,0,1,1.176-1.2,3.17,3.17,0,0,1,1.625-.414,2.262,2.262,0,0,1,1.147.261,1.894,1.894,0,0,1,.7.682,2.878,2.878,0,0,1,.341.958,6.272,6.272,0,0,1,.094,1.089Z" fill="url(#c)"/><path d="M429.531,174.267a4.227,4.227,0,0,1-1.655-.312,3.736,3.736,0,0,1-2.068-2.1,4.021,4.021,0,0,1-.283-1.495,4.231,4.231,0,0,1,.276-1.531,3.746,3.746,0,0,1,.8-1.263,3.822,3.822,0,0,1,1.27-.864,4.246,4.246,0,0,1,1.677-.319,4.14,4.14,0,0,1,1.662.319,3.836,3.836,0,0,1,1.248.857,3.662,3.662,0,0,1,.784,1.248,4.157,4.157,0,0,1,.268,1.48c0,.126,0,.247-.007.363a1.511,1.511,0,0,1-.036.29h-5.879a2.255,2.255,0,0,0,.218.8,1.978,1.978,0,0,0,.45.6,1.952,1.952,0,0,0,.624.377,2.051,2.051,0,0,0,.726.131,2.252,2.252,0,0,0,1.1-.283,1.5,1.5,0,0,0,.7-.748l1.67.465a3.4,3.4,0,0,1-1.343,1.429A4.16,4.16,0,0,1,429.531,174.267Zm1.974-4.586a2.024,2.024,0,0,0-.631-1.372,1.985,1.985,0,0,0-2.693.007,2,2,0,0,0-.428.6,2.1,2.1,0,0,0-.2.77Z" fill="url(#c)"/><path d="M439.227,168.2a3.848,3.848,0,0,0-1.582.341,2,2,0,0,0-1,.98v4.6H434.7v-7.6h1.785v1.625a3.489,3.489,0,0,1,.479-.7,3.707,3.707,0,0,1,.6-.544,2.773,2.773,0,0,1,.645-.356,1.792,1.792,0,0,1,.632-.123h.239a.764.764,0,0,1,.153.015Z" fill="url(#aq)"/><path d="M439.459,170.319a4.133,4.133,0,0,1,.276-1.509,3.668,3.668,0,0,1,.8-1.248,3.882,3.882,0,0,1,1.263-.857,4.188,4.188,0,0,1,1.669-.319,4,4,0,0,1,2.126.537,3.423,3.423,0,0,1,1.314,1.408l-1.9.58a1.706,1.706,0,0,0-.653-.645,1.916,1.916,0,0,0-1.683-.058,1.928,1.928,0,0,0-.632.464,2.158,2.158,0,0,0-.421.718,2.73,2.73,0,0,0-.152.929,2.585,2.585,0,0,0,.16.929,2.327,2.327,0,0,0,.428.726,1.879,1.879,0,0,0,.631.472,1.822,1.822,0,0,0,.769.167,1.861,1.861,0,0,0,.966-.262,1.468,1.468,0,0,0,.616-.638l1.9.58a3.2,3.2,0,0,1-1.292,1.423,4.058,4.058,0,0,1-2.163.551,4.175,4.175,0,0,1-1.669-.319,3.789,3.789,0,0,1-2.068-2.126A4.058,4.058,0,0,1,439.459,170.319Z" fill="url(#c)"/><path d="M451.579,174.267a4.22,4.22,0,0,1-1.655-.312,3.728,3.728,0,0,1-2.068-2.1,4,4,0,0,1-.283-1.495,4.231,4.231,0,0,1,.275-1.531,3.734,3.734,0,0,1,.8-1.263,3.8,3.8,0,0,1,1.27-.864,4.241,4.241,0,0,1,1.676-.319,4.14,4.14,0,0,1,1.662.319,3.826,3.826,0,0,1,1.248.857,3.632,3.632,0,0,1,.784,1.248,4.157,4.157,0,0,1,.268,1.48c0,.126,0,.247-.007.363a1.511,1.511,0,0,1-.036.29h-5.878a2.254,2.254,0,0,0,.217.8,1.978,1.978,0,0,0,.45.6,1.952,1.952,0,0,0,.624.377,2.055,2.055,0,0,0,.726.131,2.252,2.252,0,0,0,1.1-.283,1.5,1.5,0,0,0,.7-.748l1.669.465a3.392,3.392,0,0,1-1.343,1.429A4.154,4.154,0,0,1,451.579,174.267Zm1.973-4.586a2.024,2.024,0,0,0-.631-1.372,1.983,1.983,0,0,0-2.692.007,2,2,0,0,0-.428.6,2.1,2.1,0,0,0-.2.77Z" fill="url(#x)"/><path d="M228.633,166.131l-.856-34.067-8.593.716a.751.751,0,0,1-.648-1.186L232.4,112.159a.92.92,0,0,1,1.5.005l12.348,17.593a.7.7,0,0,1-.567,1.1l-8.1.063,1.294,34.523a1.09,1.09,0,0,1-1.017,1.128l-8.155.538A1.007,1.007,0,0,1,228.633,166.131Z" fill="#fff"/></g></svg>